<svg id="ae86789e-50d2-404e-b71e-e521274f9244" data-name="Main" xmlns="http://www.w3.org/2000/svg" xmlns:xlink="http://www.w3.org/1999/xlink" viewBox="0 0 257 57.6935"><defs><style>.\38 619a169-2550-4567-92bf-4f8eac5af53e{fill:#023f6c;}.c81de30d-34cc-4e11-8e1e-094fcc71f221{fill:#1b75bc;}.\33 31088f4-9afd-462e-acfc-4d34e860cb64{opacity:0.15;fill:url(#6ce4352f-5a7a-43c7-8220-38bf30d4b700);}.bda5cc80-d2db-40b8-98a9-320a5665879c{opacity:0.05;fill:url(#ccc3c6c8-2d19-457e-aa6a-118ccce1fcd9);}.\36 8b05872-315d-43a0-8d43-62640f774910{fill:#a19700;}.c64850e3-6506-495c-b8f2-3e3f0478072d{fill:#fff200;}.\32 f764b5d-6e24-487c-a0aa-1daec90e3b52{fill:#231f20;stroke:#231f20;stroke-miterlimit:10;}</style><linearGradient id="6ce4352f-5a7a-43c7-8220-38bf30d4b700" x1="101.7612" y1="57.6934" x2="101.7612" y2="0.0267" gradientUnits="userSpaceOnUse"><stop offset="0" stop-color="#efabcd"/><stop offset="1" stop-color="#e8a9cc" stop-opacity="0"/></linearGradient><linearGradient id="ccc3c6c8-2d19-457e-aa6a-118ccce1fcd9" x1="126.2612" y1="149.3735" x2="126.2612" y2="91.7067" gradientTransform="matrix(1, 0, 0, -1, -24.5, 149.4002)" xlink:href="#6ce4352f-5a7a-43c7-8220-38bf30d4b700"/></defs><title>boggers</title><g id="b6d55360-8f74-4d72-a641-27dd24c55cd5" data-name="Full Logo"><g id="8a834593-1b40-419b-997a-be8a7e886916" data-name="LOGO Back"><path class="8619a169-2550-4567-92bf-4f8eac5af53e" d="M43.3333,55.1265l12.8333-27H24.5V85.7932H62.1666ZM31.8333,36.46H45.5l-5,10.6666H31.8333Zm0,23.3333H40.5L49.1666,77.46H31.8333Z" transform="translate(-24.5 -28.0998)"/><path class="8619a169-2550-4567-92bf-4f8eac5af53e" d="M58.5714,28.1265l-11.3333,27L63.9047,85.7932H80.5714V28.1265ZM71.8333,68.7932h-6l-6-13.7785L64.1666,40.46h7.6667Z" transform="translate(-24.5 -28.0998)"/><polygon class="8619a169-2550-4567-92bf-4f8eac5af53e" points="59.048 0.027 86.048 0.027 86.048 17.693 72.548 17.693 72.548 37.027 76.843 37.027 76.536 23.027 86.048 23.027 86.048 57.693 59.048 57.693 59.048 0.027"/><polygon class="8619a169-2550-4567-92bf-4f8eac5af53e" points="89.024 0.027 115.69 0.027 115.69 17.693 102.357 17.693 102.357 37.027 106.6 37.027 106.297 23.027 115.69 23.027 115.69 57.693 89.024 57.693 89.024 0.027"/><polygon class="8619a169-2550-4567-92bf-4f8eac5af53e" points="118.667 0.027 118.667 57.693 144.667 57.693 144.667 37.693 131.667 37.693 131.667 28.86 144.667 28.86 144.667 15.027 131.667 15.027 131.667 8.693 144.667 8.693 144.667 0.027 118.667 0.027"/><polygon class="8619a169-2550-4567-92bf-4f8eac5af53e" points="178.429 57.693 178.429 43.027 190.095 43.027 190.095 37.027 178.429 37.027 178.429 0.027 201.762 0.027 201.762 12.36 190.095 12.36 190.095 22.693 201.762 22.693 201.762 57.693 178.429 57.693"/><path class="8619a169-2550-4567-92bf-4f8eac5af53e" d="M199.381,28.1265H172.7143V85.7932h12.1429V66.1265l3.5714,19.6667H199.381L188.9048,54.6265H199.381Zm-7.5,19H180.2143V36.46H191.881Z" transform="translate(-24.5 -28.0998)"/></g><g id="36fa96ee-2d2a-456e-8925-88a168eea221" data-name="LOGO"><path class="c81de30d-34cc-4e11-8e1e-094fcc71f221" d="M45.1905,55.1265l12.8333-27H26.3572V85.7932H64.0238ZM33.6905,36.46H47.3572l-5,10.6666H33.6905Zm0,23.3333h8.6667L51.0238,77.46H33.6905Z" transform="translate(-24.5 -28.0998)"/><path class="c81de30d-34cc-4e11-8e1e-094fcc71f221" d="M60.4286,28.1265l-11.3333,27L65.7619,85.7932H82.4286V28.1265ZM73.6905,68.7932h-6l-6-13.7785L66.0238,40.46h7.6667Z" transform="translate(-24.5 -28.0998)"/><polygon class="c81de30d-34cc-4e11-8e1e-094fcc71f221" points="60.905 0.027 87.905 0.027 87.905 17.693 74.405 17.693 74.405 37.027 78.7 37.027 78.393 23.027 87.905 23.027 87.905 57.693 60.905 57.693 60.905 0.027"/><polygon class="c81de30d-34cc-4e11-8e1e-094fcc71f221" points="90.881 0.027 117.548 0.027 117.548 17.693 104.214 17.693 104.214 37.027 108.457 37.027 108.154 23.027 117.548 23.027 117.548 57.693 90.881 57.693 90.881 0.027"/><polygon class="c81de30d-34cc-4e11-8e1e-094fcc71f221" points="120.524 0.027 120.524 57.693 146.524 57.693 146.524 37.693 133.524 37.693 133.524 28.86 146.524 28.86 146.524 15.027 133.524 15.027 133.524 8.693 146.524 8.693 146.524 0.027 120.524 0.027"/><polygon class="c81de30d-34cc-4e11-8e1e-094fcc71f221" points="180.286 57.693 180.286 43.027 191.952 43.027 191.952 37.027 180.286 37.027 180.286 0.027 203.619 0.027 203.619 12.36 191.952 12.36 191.952 22.693 203.619 22.693 203.619 57.693 180.286 57.693"/><path class="c81de30d-34cc-4e11-8e1e-094fcc71f221" d="M201.2381,28.1266H174.5714V85.7932h12.1429V66.1266l3.5714,19.6666h10.9524L190.7619,54.6266h10.4762Zm-7.5,19H182.0714V36.46h11.6667Z" transform="translate(-24.5 -28.0998)"/></g><g id="cebdfe4d-b469-463c-ae93-c1245b2b7a7c" data-name="Stipples"><g id="a7ad033b-cafe-4838-b828-a99a2a194030" data-name="TR Corner"><rect class="8619a169-2550-4567-92bf-4f8eac5af53e" x="56" y="0.0268" width="1.9286" height="1.9286"/><rect class="8619a169-2550-4567-92bf-4f8eac5af53e" x="53.3438" y="0.0268" width="1.9286" height="1.9286"/><rect class="8619a169-2550-4567-92bf-4f8eac5af53e" x="56" y="2.558" width="1.9286" height="1.9286"/><rect class="8619a169-2550-4567-92bf-4f8eac5af53e" x="53.3438" y="2.558" width="1.9286" height="1.9286"/><rect class="8619a169-2550-4567-92bf-4f8eac5af53e" x="50.6875" y="0.0268" width="1.9286" height="1.9286"/><rect class="8619a169-2550-4567-92bf-4f8eac5af53e" x="56" y="4.9018" width="1.9286" height="1.9286"/></g><g id="19202d2f-2eda-4f5e-a7e8-ba75fd0fe1fb" data-name="BR Corner"><rect class="8619a169-2550-4567-92bf-4f8eac5af53e" x="56" y="55.7649" width="1.9286" height="1.9286"/><rect class="8619a169-2550-4567-92bf-4f8eac5af53e" x="56" y="53.2232" width="1.9286" height="1.9286"/><rect class="8619a169-2550-4567-92bf-4f8eac5af53e" x="56" y="50.4315" width="1.9286" height="1.9286"/><rect class="8619a169-2550-4567-92bf-4f8eac5af53e" x="56" y="47.8899" width="1.9286" height="1.9286"/><rect class="8619a169-2550-4567-92bf-4f8eac5af53e" x="53.5417" y="55.7649" width="1.9286" height="1.9286"/><rect class="8619a169-2550-4567-92bf-4f8eac5af53e" x="53.5417" y="53.2232" width="1.9286" height="1.9286"/><rect class="8619a169-2550-4567-92bf-4f8eac5af53e" x="53.5417" y="50.4315" width="1.9286" height="1.9286"/><rect class="8619a169-2550-4567-92bf-4f8eac5af53e" x="51.2083" y="55.7649" width="1.9286" height="1.9286"/></g><g id="adbddd51-e7bf-4659-95f6-be54b34c74a5" data-name="BL Corner"><rect class="8619a169-2550-4567-92bf-4f8eac5af53e" x="26.3572" y="83.8647" width="1.9286" height="1.9286" transform="translate(30.1429 141.5581) rotate(-180)"/><rect class="8619a169-2550-4567-92bf-4f8eac5af53e" x="26.3572" y="81.323" width="1.9286" height="1.9286" transform="translate(30.1429 136.4748) rotate(-180)"/><rect class="8619a169-2550-4567-92bf-4f8eac5af53e" x="26.3572" y="78.5313" width="1.9286" height="1.9286" transform="translate(30.1429 130.8914) rotate(-180)"/><rect class="8619a169-2550-4567-92bf-4f8eac5af53e" x="26.3572" y="75.9897" width="1.9286" height="1.9286" transform="translate(30.1429 125.8081) rotate(-180)"/><rect class="8619a169-2550-4567-92bf-4f8eac5af53e" x="28.8155" y="83.8647" width="1.9286" height="1.9286" transform="translate(35.0595 141.5581) rotate(-180)"/><rect class="8619a169-2550-4567-92bf-4f8eac5af53e" x="28.8155" y="81.323" width="1.9286" height="1.9286" transform="translate(35.0595 136.4748) rotate(-180)"/><rect class="8619a169-2550-4567-92bf-4f8eac5af53e" x="28.8155" y="78.5313" width="1.9286" height="1.9286" transform="translate(35.0595 130.8914) rotate(-180)"/><rect class="8619a169-2550-4567-92bf-4f8eac5af53e" x="31.1488" y="83.8647" width="1.9286" height="1.9286" transform="translate(39.7262 141.5581) rotate(-180)"/></g><g id="855576d8-0db2-4eba-91d3-42fb37866f1d" data-name="TL Corner"><rect class="8619a169-2550-4567-92bf-4f8eac5af53e" x="26.4197" y="28.0998" width="1.9286" height="1.9286" transform="translate(30.2679 30.0283) rotate(180)"/><rect class="8619a169-2550-4567-92bf-4f8eac5af53e" x="26.4197" y="30.6414" width="1.9286" height="1.9286" transform="translate(30.2679 35.1117) rotate(180)"/><rect class="8619a169-2550-4567-92bf-4f8eac5af53e" x="26.4197" y="33.4331" width="1.9286" height="1.9286" transform="translate(30.2679 40.695) rotate(180)"/><rect class="8619a169-2550-4567-92bf-4f8eac5af53e" x="28.878" y="28.0998" width="1.9286" height="1.9286" transform="translate(35.1845 30.0283) rotate(180)"/><rect class="8619a169-2550-4567-92bf-4f8eac5af53e" x="28.878" y="30.6414" width="1.9286" height="1.9286" transform="translate(35.1845 35.1117) rotate(180)"/><rect class="8619a169-2550-4567-92bf-4f8eac5af53e" x="31.2113" y="28.0998" width="1.9286" height="1.9286" transform="translate(39.8512 30.0283) rotate(180)"/></g><g id="216b4731-16bf-4a6e-b7d1-f2c1e6947e74" data-name="3 Row"><rect class="8619a169-2550-4567-92bf-4f8eac5af53e" x="60.4464" y="83.8646" width="1.9286" height="1.9286" transform="translate(-47.9182 118.1398) rotate(-90)"/><rect class="8619a169-2550-4567-92bf-4f8eac5af53e" x="57.9048" y="83.8646" width="1.9286" height="1.9286" transform="translate(-50.4598 115.5981) rotate(-90)"/><rect class="8619a169-2550-4567-92bf-4f8eac5af53e" x="55.1131" y="83.8646" width="1.9286" height="1.9286" transform="translate(-53.2515 112.8065) rotate(-90)"/></g><g id="bc6563cf-1089-4abd-8da3-8fa38a5f35c9" data-name="TL Corner"><rect class="8619a169-2550-4567-92bf-4f8eac5af53e" x="85.3572" y="28.0998" width="1.9286" height="1.9286" transform="translate(148.1429 30.0283) rotate(180)"/><rect class="8619a169-2550-4567-92bf-4f8eac5af53e" x="85.3572" y="30.6414" width="1.9286" height="1.9286" transform="translate(148.1429 35.1117) rotate(180)"/><rect class="8619a169-2550-4567-92bf-4f8eac5af53e" x="85.3572" y="33.4331" width="1.9286" height="1.9286" transform="translate(148.1429 40.695) rotate(180)"/><rect class="8619a169-2550-4567-92bf-4f8eac5af53e" x="87.8155" y="28.0998" width="1.9286" height="1.9286" transform="translate(153.0595 30.0283) rotate(180)"/><rect class="8619a169-2550-4567-92bf-4f8eac5af53e" x="87.8155" y="30.6414" width="1.9286" height="1.9286" transform="translate(153.0595 35.1117) rotate(180)"/><rect class="8619a169-2550-4567-92bf-4f8eac5af53e" x="90.1488" y="28.0998" width="1.9286" height="1.9286" transform="translate(157.7262 30.0283) rotate(180)"/></g><g id="e186924b-af25-4e3a-9fbd-99554e4ff2fc" data-name="BR Corner"><rect class="8619a169-2550-4567-92bf-4f8eac5af53e" x="85.9375" y="55.7649" width="1.9286" height="1.9286"/><rect class="8619a169-2550-4567-92bf-4f8eac5af53e" x="85.9375" y="53.2232" width="1.9286" height="1.9286"/><rect class="8619a169-2550-4567-92bf-4f8eac5af53e" x="85.9375" y="50.4315" width="1.9286" height="1.9286"/><rect class="8619a169-2550-4567-92bf-4f8eac5af53e" x="85.9375" y="47.8899" width="1.9286" height="1.9286"/><rect class="8619a169-2550-4567-92bf-4f8eac5af53e" x="83.4792" y="55.7649" width="1.9286" height="1.9286"/><rect class="8619a169-2550-4567-92bf-4f8eac5af53e" x="83.4792" y="53.2232" width="1.9286" height="1.9286"/><rect class="8619a169-2550-4567-92bf-4f8eac5af53e" x="83.4792" y="50.4315" width="1.9286" height="1.9286"/><rect class="8619a169-2550-4567-92bf-4f8eac5af53e" x="81.1458" y="55.7649" width="1.9286" height="1.9286"/></g><g id="91f3a893-65a7-4df0-a1e0-0b8059bc8b9e" data-name="3 Row"><rect class="8619a169-2550-4567-92bf-4f8eac5af53e" x="110.4911" y="43.7515" width="1.9286" height="1.9286" transform="translate(42.2396 128.0714) rotate(-90)"/><rect class="8619a169-2550-4567-92bf-4f8eac5af53e" x="107.9494" y="43.7515" width="1.9286" height="1.9286" transform="translate(39.6979 125.5297) rotate(-90)"/><rect class="8619a169-2550-4567-92bf-4f8eac5af53e" x="105.1577" y="43.7515" width="1.9286" height="1.9286" transform="translate(36.9062 122.738) rotate(-90)"/></g><g id="fda1a179-33f1-4e2b-86fd-c1846919b611" data-name="TR Corner"><rect class="8619a169-2550-4567-92bf-4f8eac5af53e" x="115.5833" y="0.0148" width="1.9286" height="1.9286"/><rect class="8619a169-2550-4567-92bf-4f8eac5af53e" x="112.9271" y="0.0148" width="1.9286" height="1.9286"/><rect class="8619a169-2550-4567-92bf-4f8eac5af53e" x="115.5833" y="2.5461" width="1.9286" height="1.9286"/><rect class="8619a169-2550-4567-92bf-4f8eac5af53e" x="112.9271" y="2.5461" width="1.9286" height="1.9286"/><rect class="8619a169-2550-4567-92bf-4f8eac5af53e" x="110.2708" y="0.0148" width="1.9286" height="1.9286"/><rect class="8619a169-2550-4567-92bf-4f8eac5af53e" x="115.5833" y="4.8898" width="1.9286" height="1.9286"/></g><g id="55978f8d-a6f0-41ce-8357-f54a86c1e854" data-name="3 Row"><rect class="8619a169-2550-4567-92bf-4f8eac5af53e" x="139.9688" y="51.1206" width="1.9286" height="1.9286" transform="translate(64.3482 164.9181) rotate(-90)"/><rect class="8619a169-2550-4567-92bf-4f8eac5af53e" x="137.4271" y="51.1206" width="1.9286" height="1.9286" transform="translate(61.8065 162.3765) rotate(-90)"/><rect class="8619a169-2550-4567-92bf-4f8eac5af53e" x="134.6354" y="51.1206" width="1.9286" height="1.9286" transform="translate(59.0149 159.5848) rotate(-90)"/></g><g id="4efce8d5-8009-4c37-944b-00bf49ff2fe5" data-name="BL Corner"><rect class="8619a169-2550-4567-92bf-4f8eac5af53e" x="115.3631" y="83.823" width="1.9286" height="1.9286" transform="translate(208.1548 141.4748) rotate(-180)"/><rect class="8619a169-2550-4567-92bf-4f8eac5af53e" x="115.3631" y="81.2813" width="1.9286" height="1.9286" transform="translate(208.1548 136.3914) rotate(-180)"/><rect class="8619a169-2550-4567-92bf-4f8eac5af53e" x="115.3631" y="78.4897" width="1.9286" height="1.9286" transform="translate(208.1548 130.8081) rotate(-180)"/><rect class="8619a169-2550-4567-92bf-4f8eac5af53e" x="115.3631" y="75.948" width="1.9286" height="1.9286" transform="translate(208.1548 125.7248) rotate(-180)"/><rect class="8619a169-2550-4567-92bf-4f8eac5af53e" x="117.8214" y="83.823" width="1.9286" height="1.9286" transform="translate(213.0714 141.4748) rotate(-180)"/><rect class="8619a169-2550-4567-92bf-4f8eac5af53e" x="117.8214" y="81.2813" width="1.9286" height="1.9286" transform="translate(213.0714 136.3914) rotate(-180)"/><rect class="8619a169-2550-4567-92bf-4f8eac5af53e" x="117.8214" y="78.4897" width="1.9286" height="1.9286" transform="translate(213.0714 130.8081) rotate(-180)"/><rect class="8619a169-2550-4567-92bf-4f8eac5af53e" x="120.1548" y="83.823" width="1.9286" height="1.9286" transform="translate(217.7381 141.4748) rotate(-180)"/></g><g id="171d6f57-107e-4c6b-a968-fdda4e4163d1" data-name="TR Corner"><rect class="8619a169-2550-4567-92bf-4f8eac5af53e" x="144.497" y="0.0148" width="1.9286" height="1.9286"/><rect class="8619a169-2550-4567-92bf-4f8eac5af53e" x="141.8408" y="0.0148" width="1.9286" height="1.9286"/><rect class="8619a169-2550-4567-92bf-4f8eac5af53e" x="144.497" y="2.5461" width="1.9286" height="1.9286"/><rect class="8619a169-2550-4567-92bf-4f8eac5af53e" x="141.8408" y="2.5461" width="1.9286" height="1.9286"/><rect class="8619a169-2550-4567-92bf-4f8eac5af53e" x="139.1845" y="0.0148" width="1.9286" height="1.9286"/><rect class="8619a169-2550-4567-92bf-4f8eac5af53e" x="144.497" y="4.8898" width="1.9286" height="1.9286"/></g><g id="4ec83c19-4790-4ae9-aea7-424bebfe25f2" data-name="BR Corner"><rect class="8619a169-2550-4567-92bf-4f8eac5af53e" x="144.3929" y="55.6399" width="1.9286" height="1.9286"/><rect class="8619a169-2550-4567-92bf-4f8eac5af53e" x="144.3929" y="53.0982" width="1.9286" height="1.9286"/><rect class="8619a169-2550-4567-92bf-4f8eac5af53e" x="144.3929" y="50.3065" width="1.9286" height="1.9286"/><rect class="8619a169-2550-4567-92bf-4f8eac5af53e" x="144.3929" y="47.7649" width="1.9286" height="1.9286"/><rect class="8619a169-2550-4567-92bf-4f8eac5af53e" x="141.9345" y="55.6399" width="1.9286" height="1.9286"/><rect class="8619a169-2550-4567-92bf-4f8eac5af53e" x="141.9345" y="53.0982" width="1.9286" height="1.9286"/><rect class="8619a169-2550-4567-92bf-4f8eac5af53e" x="141.9345" y="50.3065" width="1.9286" height="1.9286"/><rect class="8619a169-2550-4567-92bf-4f8eac5af53e" x="139.6012" y="55.6399" width="1.9286" height="1.9286"/></g><g id="98e13e5c-00b2-47cc-8707-0eb3e0e1812c" data-name="3 Col"><rect class="8619a169-2550-4567-92bf-4f8eac5af53e" x="145.0238" y="28.1266" width="1.9286" height="1.9286" transform="translate(267.4762 30.0819) rotate(-180)"/><rect class="8619a169-2550-4567-92bf-4f8eac5af53e" x="145.0238" y="30.6682" width="1.9286" height="1.9286" transform="translate(267.4762 35.1652) rotate(-180)"/><rect class="8619a169-2550-4567-92bf-4f8eac5af53e" x="145.0238" y="33.4599" width="1.9286" height="1.9286" transform="translate(267.4762 40.7486) rotate(-180)"/></g><g id="5a962d15-5df0-48bb-bf1d-0bd366c5620b" data-name="3 Col"><rect class="8619a169-2550-4567-92bf-4f8eac5af53e" x="145.0238" y="78.5313" width="1.9286" height="1.9286" transform="translate(267.4762 130.8914) rotate(-180)"/><rect class="8619a169-2550-4567-92bf-4f8eac5af53e" x="145.0238" y="81.073" width="1.9286" height="1.9286" transform="translate(267.4762 135.9748) rotate(-180)"/><rect class="8619a169-2550-4567-92bf-4f8eac5af53e" x="145.0238" y="83.8647" width="1.9286" height="1.9286" transform="translate(267.4762 141.5581) rotate(-180)"/></g><g id="b501aac1-5486-4950-9e40-e84e13995633" data-name="3 Row"><rect class="8619a169-2550-4567-92bf-4f8eac5af53e" x="152.9643" y="83.8647" width="1.9286" height="1.9286" transform="translate(44.5997 210.6578) rotate(-90)"/><rect class="8619a169-2550-4567-92bf-4f8eac5af53e" x="150.4227" y="83.8647" width="1.9286" height="1.9286" transform="translate(42.058 208.1161) rotate(-90)"/><rect class="8619a169-2550-4567-92bf-4f8eac5af53e" x="147.631" y="83.8647" width="1.9286" height="1.9286" transform="translate(39.2663 205.3244) rotate(-90)"/></g><g id="064c3aba-f30e-4544-8d8e-20a7a75467c3" data-name="TR Corner"><rect class="8619a169-2550-4567-92bf-4f8eac5af53e" x="174.5804" y="0.0148" width="1.9286" height="1.9286"/><rect class="8619a169-2550-4567-92bf-4f8eac5af53e" x="171.9241" y="0.0148" width="1.9286" height="1.9286"/><rect class="8619a169-2550-4567-92bf-4f8eac5af53e" x="174.5804" y="2.5461" width="1.9286" height="1.9286"/><rect class="8619a169-2550-4567-92bf-4f8eac5af53e" x="171.9241" y="2.5461" width="1.9286" height="1.9286"/><rect class="8619a169-2550-4567-92bf-4f8eac5af53e" x="169.2679" y="0.0148" width="1.9286" height="1.9286"/><rect class="8619a169-2550-4567-92bf-4f8eac5af53e" x="174.5804" y="4.8898" width="1.9286" height="1.9286"/></g><g id="bb35772e-38ff-45da-b023-be2f3c4e100b" data-name="3 Row"><rect class="8619a169-2550-4567-92bf-4f8eac5af53e" x="179.9048" y="83.7397" width="1.9286" height="1.9286" transform="translate(71.6651 237.4732) rotate(-90)"/><rect class="8619a169-2550-4567-92bf-4f8eac5af53e" x="177.3631" y="83.7397" width="1.9286" height="1.9286" transform="translate(69.1234 234.9315) rotate(-90)"/><rect class="8619a169-2550-4567-92bf-4f8eac5af53e" x="174.5714" y="83.7397" width="1.9286" height="1.9286" transform="translate(66.3318 232.1399) rotate(-90)"/></g><g id="6c8f710f-6aff-4a98-88d5-33ac7164c5f6" data-name="BR Corner"><rect class="8619a169-2550-4567-92bf-4f8eac5af53e" x="174.5447" y="24.4315" width="1.9286" height="1.9286"/><rect class="8619a169-2550-4567-92bf-4f8eac5af53e" x="174.5447" y="21.8899" width="1.9286" height="1.9286"/><rect class="8619a169-2550-4567-92bf-4f8eac5af53e" x="174.5447" y="19.0982" width="1.9286" height="1.9286"/><rect class="8619a169-2550-4567-92bf-4f8eac5af53e" x="174.5447" y="16.5565" width="1.9286" height="1.9286"/><rect class="8619a169-2550-4567-92bf-4f8eac5af53e" x="172.0863" y="24.4315" width="1.9286" height="1.9286"/><rect class="8619a169-2550-4567-92bf-4f8eac5af53e" x="172.0863" y="21.8899" width="1.9286" height="1.9286"/><rect class="8619a169-2550-4567-92bf-4f8eac5af53e" x="172.0863" y="19.0982" width="1.9286" height="1.9286"/><rect class="8619a169-2550-4567-92bf-4f8eac5af53e" x="169.753" y="24.4315" width="1.9286" height="1.9286"/></g><g id="43f5c467-ed03-4f0f-99c0-8c24f0faa0aa" data-name="BL Corner"><rect class="8619a169-2550-4567-92bf-4f8eac5af53e" x="204.8631" y="83.8171" width="1.9286" height="1.9286" transform="translate(387.1548 141.4629) rotate(-180)"/><rect class="8619a169-2550-4567-92bf-4f8eac5af53e" x="204.8631" y="81.2754" width="1.9286" height="1.9286" transform="translate(387.1548 136.3796) rotate(-180)"/><rect class="8619a169-2550-4567-92bf-4f8eac5af53e" x="204.8631" y="78.4837" width="1.9286" height="1.9286" transform="translate(387.1548 130.7963) rotate(-180)"/><rect class="8619a169-2550-4567-92bf-4f8eac5af53e" x="204.8631" y="75.9421" width="1.9286" height="1.9286" transform="translate(387.1548 125.7129) rotate(-180)"/><rect class="8619a169-2550-4567-92bf-4f8eac5af53e" x="207.3214" y="83.8171" width="1.9286" height="1.9286" transform="translate(392.0714 141.4629) rotate(-180)"/><rect class="8619a169-2550-4567-92bf-4f8eac5af53e" x="207.3214" y="81.2754" width="1.9286" height="1.9286" transform="translate(392.0714 136.3796) rotate(-180)"/><rect class="8619a169-2550-4567-92bf-4f8eac5af53e" x="207.3214" y="78.4837" width="1.9286" height="1.9286" transform="translate(392.0714 130.7963) rotate(-180)"/><rect class="8619a169-2550-4567-92bf-4f8eac5af53e" x="209.6548" y="83.8171" width="1.9286" height="1.9286" transform="translate(396.7381 141.4629) rotate(-180)"/></g><g id="1bc11eb2-fcb0-45b9-8d52-a5d44fb66ae2" data-name="BL Corner"><rect class="8619a169-2550-4567-92bf-4f8eac5af53e" x="204.7381" y="63.0671" width="1.9286" height="1.9286" transform="translate(386.9048 99.9629) rotate(-180)"/><rect class="8619a169-2550-4567-92bf-4f8eac5af53e" x="204.7381" y="60.5254" width="1.9286" height="1.9286" transform="translate(386.9048 94.8796) rotate(-180)"/><rect class="8619a169-2550-4567-92bf-4f8eac5af53e" x="204.7381" y="57.7337" width="1.9286" height="1.9286" transform="translate(386.9048 89.2963) rotate(-180)"/><rect class="8619a169-2550-4567-92bf-4f8eac5af53e" x="204.7381" y="55.1921" width="1.9286" height="1.9286" transform="translate(386.9048 84.2129) rotate(-180)"/><rect class="8619a169-2550-4567-92bf-4f8eac5af53e" x="207.1964" y="63.0671" width="1.9286" height="1.9286" transform="translate(391.8214 99.9629) rotate(-180)"/><rect class="8619a169-2550-4567-92bf-4f8eac5af53e" x="207.1964" y="60.5254" width="1.9286" height="1.9286" transform="translate(391.8214 94.8796) rotate(-180)"/><rect class="8619a169-2550-4567-92bf-4f8eac5af53e" x="207.1964" y="57.7337" width="1.9286" height="1.9286" transform="translate(391.8214 89.2963) rotate(-180)"/><rect class="8619a169-2550-4567-92bf-4f8eac5af53e" x="209.5298" y="63.0671" width="1.9286" height="1.9286" transform="translate(396.4881 99.9629) rotate(-180)"/></g><g id="7a8bfcc6-9a6b-4dac-98e0-88dd1c407217" data-name="3 Row"><rect class="8619a169-2550-4567-92bf-4f8eac5af53e" x="226.0938" y="50.9539" width="1.9286" height="1.9286" transform="translate(150.6398 250.8765) rotate(-90)"/><rect class="8619a169-2550-4567-92bf-4f8eac5af53e" x="223.5521" y="50.9539" width="1.9286" height="1.9286" transform="translate(148.0982 248.3348) rotate(-90)"/><rect class="8619a169-2550-4567-92bf-4f8eac5af53e" x="220.7604" y="50.9539" width="1.9286" height="1.9286" transform="translate(145.3065 245.5432) rotate(-90)"/></g><g id="3cf49427-7d95-4ffe-8c9c-1ca92e845fa3" data-name="TL Corner"><rect class="8619a169-2550-4567-92bf-4f8eac5af53e" x="204.8006" y="28.1266" width="1.9286" height="1.9286" transform="translate(387.0298 30.0819) rotate(180)"/><rect class="8619a169-2550-4567-92bf-4f8eac5af53e" x="204.8006" y="30.6682" width="1.9286" height="1.9286" transform="translate(387.0298 35.1652) rotate(180)"/><rect class="8619a169-2550-4567-92bf-4f8eac5af53e" x="204.8006" y="33.4599" width="1.9286" height="1.9286" transform="translate(387.0298 40.7486) rotate(180)"/><rect class="8619a169-2550-4567-92bf-4f8eac5af53e" x="207.2589" y="28.1266" width="1.9286" height="1.9286" transform="translate(391.9464 30.0819) rotate(180)"/><rect class="8619a169-2550-4567-92bf-4f8eac5af53e" x="207.2589" y="30.6682" width="1.9286" height="1.9286" transform="translate(391.9464 35.1652) rotate(180)"/><rect class="8619a169-2550-4567-92bf-4f8eac5af53e" x="209.5923" y="28.1266" width="1.9286" height="1.9286" transform="translate(396.6131 30.0819) rotate(180)"/></g></g><g id="c7f10091-3f94-41ea-9429-2bd484a42601" data-name="Gradient"><rect class="331088f4-9afd-462e-acfc-4d34e860cb64" y="0.0267" width="203.5223" height="57.6667"/><rect class="bda5cc80-d2db-40b8-98a9-320a5665879c" y="0.0267" width="203.5223" height="57.6667"/></g></g><g id="a677c733-1310-4146-9fe7-6d156b4c33e0" data-name="JS Box"><g id="9322f54e-5d0f-4ee7-ae43-cecb1d7911dd" data-name="Box"><rect class="68b05872-315d-43a0-8d43-62640f774910" x="205.3095" y="0.0268" width="49.6905" height="57.6667"/><rect class="c64850e3-6506-495c-b8f2-3e3f0478072d" x="207.3095" y="0.0267" width="49.6905" height="57.6667"/><rect class="68b05872-315d-43a0-8d43-62640f774910" x="209.2262" y="1.7649" width="3.5339" height="3.5339"/><rect class="68b05872-315d-43a0-8d43-62640f774910" x="209.2262" y="52.373" width="3.5339" height="3.5339"/><rect class="68b05872-315d-43a0-8d43-62640f774910" x="250.8997" y="1.7649" width="3.5339" height="3.5339"/></g><g id="e5b33e76-9b2a-428d-9e79-33611a90fdea" data-name="JS"><polygon class="2f764b5d-6e24-487c-a0aa-1daec90e3b52" points="252.667 39.273 242.333 39.273 242.333 46.646 247.784 46.646 247.784 46.708 242.333 46.708 242.333 48.578 247.784 48.578 247.784 50.374 242.333 50.374 242.333 54.019 252.667 53.846 252.667 44.906 244.945 44.741 244.831 42.918 252.667 43.084 252.667 39.273"/><polygon class="2f764b5d-6e24-487c-a0aa-1daec90e3b52" points="232.615 45.424 228.333 45.424 228.333 39.316 239.809 39.316 239.809 45.424 236.384 45.424 236.384 53.975 229.018 53.975 229.018 50.311 232.615 50.311 232.615 45.424"/></g></g></svg>