<svg id="6077380e-596e-4558-8433-33d30d6d1a88" data-name="Foreground" xmlns="http://www.w3.org/2000/svg" xmlns:xlink="http://www.w3.org/1999/xlink" viewBox="0 0 370.6113 302.7259"><defs><style>.\36 6a1a59a-be5e-44ce-9a63-acc3e318f9ca{fill:#fef9c6;}.d4b51ca4-4bca-45a6-bcc3-8c4834de8c9e{fill:#fae5f0;}.cdbaa886-9de8-4cab-860f-47c14eda159a{fill:#f6aac1;}.\33 b2dd844-8af3-4a00-9413-946779d10dc4{fill:#e09cb8;}.\34 37bd3af-6b11-4b77-b317-3f91a9181598{fill:#fce5ef;}.\32 37e1cb4-8058-4876-a578-9c092db3f882{fill:#f5a2c6;}.\37 6c41ca4-4afc-4c17-8b4d-51ab309eeffe{fill:#f49bc2;}.fca86eb2-b991-467c-9826-31aaf3f83e11{fill:#b3668c;}.\31 39849e6-6522-4f32-ad3f-4583cb46ba22{fill:#966c8e;}.\37 2064c51-7f91-42a1-8e27-15b7c8587303{stroke:#f5e0ed;stroke-miterlimit:10;fill:url(#dbc97440-cabf-4e8b-95fb-d23c38cd9996);}.\37 884d512-b295-4a95-a785-894ff48a9702{fill:#3c2415;}.\34 e10e477-9386-4bf5-8160-0770743a3c5d{fill:url(#ec82f641-6ed0-4ce8-92e2-5ba78fade260);}.c30a5472-ffaf-4889-9730-76e73847588f{fill:url(#f495f86a-d930-431f-9fb8-c43c0345b016);}.\32 15daed2-37c3-4b61-86c8-40b752e14921{fill:url(#41c592aa-7e7e-464a-9716-9b963e0f85f7);}.\35 cf33e45-d858-4370-99bd-9c16a89ca50a{fill:url(#3a69841a-6f73-4481-aa9c-9cd6cce02dd7);}.a71652e6-393d-414d-9a77-53770cfbf92f{fill:url(#3c3cec3b-e8eb-48a9-96a0-48195fcbc0ad);}.\37 8e8b887-df3c-4a9b-85db-5b9c2ef190a9{fill:url(#8bac6bfb-6e24-4736-af28-fe90a2947968);}.\32 6a89bd8-4d43-41a9-8c53-fafef0ef3b8c{fill:url(#5dc94a7e-63ac-46cd-8f97-c33045a98d8b);}.ce664140-f505-4c14-b859-a373475a488b{fill:url(#b07f50c5-249b-4bc9-bfb5-0b59d75cfcd5);}.e5564ed2-60c2-4136-b8ec-6b46be1671d6{fill:url(#2bc8cfee-8aea-4082-ba4a-67f4431f2753);}.\33 0667f60-6ba4-40ab-96b1-484b8e83ea78{fill:url(#a38b21cd-eb21-4f1e-97e3-1106fd15de4d);}.d388dc6b-0cab-4cb3-aaa4-de453b13f147{fill:url(#5f6f145f-a5e9-4125-a9a9-d988b474aaf9);}.\30 56a0fc9-0c33-436e-842a-ee9971319fee{fill:url(#4594eac5-9e44-48c4-8f29-72eae17c4823);}.\33 4078f14-721e-4cf9-8a10-87f042a814b1{fill:url(#110a00f0-06c8-4398-bbcc-3d8239ec902b);}.ad7a9a9a-757d-4497-9dcd-776373808524{fill:url(#00cb759f-4b59-4480-abb3-c6aaeb55e0c7);}.\37 712a741-9407-443d-a2b3-60e9db75c6c4{fill:#231f20;}.\30 0c03673-e21b-4774-ad17-923ad79d9d37{fill:#fff;}</style><linearGradient id="dbc97440-cabf-4e8b-95fb-d23c38cd9996" x1="190.2048" y1="290.8893" x2="190.2048" y2="22.8893" gradientUnits="userSpaceOnUse"><stop offset="0" stop-color="#fce7f0" stop-opacity="0.9"/><stop offset="1" stop-color="#f6adcd" stop-opacity="0"/></linearGradient><linearGradient id="ec82f641-6ed0-4ce8-92e2-5ba78fade260" x1="406.773" y1="375.4342" x2="406.773" y2="389.9342" gradientTransform="translate(138.2412 -9.0003) scale(0.3715 0.6599)" gradientUnits="userSpaceOnUse"><stop offset="0" stop-color="#f7a8aa"/><stop offset="1" stop-color="#2484c6" stop-opacity="0"/></linearGradient><linearGradient id="f495f86a-d930-431f-9fb8-c43c0345b016" x1="233.2347" y1="372.1964" x2="233.2347" y2="386.6964" gradientTransform="translate(282.4858 -24.4271) scale(0.2173 0.6599)" xlink:href="#ec82f641-6ed0-4ce8-92e2-5ba78fade260"/><linearGradient id="41c592aa-7e7e-464a-9716-9b963e0f85f7" x1="238.6436" y1="370.8011" x2="238.6436" y2="385.3011" gradientTransform="translate(328.1066 -28.3051) scale(0.1225 0.6599)" xlink:href="#ec82f641-6ed0-4ce8-92e2-5ba78fade260"/><linearGradient id="3a69841a-6f73-4481-aa9c-9cd6cce02dd7" x1="606.5458" y1="368.9952" x2="606.5458" y2="383.4952" gradientTransform="translate(104.8752 -45.3279) scale(0.232 0.8233)" xlink:href="#ec82f641-6ed0-4ce8-92e2-5ba78fade260"/><linearGradient id="3c3cec3b-e8eb-48a9-96a0-48195fcbc0ad" x1="767.5655" y1="365.1553" x2="767.5655" y2="379.6553" gradientTransform="translate(8.4407 -19.508) scale(0.2646 0.8233)" xlink:href="#ec82f641-6ed0-4ce8-92e2-5ba78fade260"/><linearGradient id="8bac6bfb-6e24-4736-af28-fe90a2947968" x1="887.2137" y1="385.1811" x2="887.2137" y2="399.6811" gradientTransform="translate(17.7138 62.2783) scale(0.1866 0.5781)" xlink:href="#ec82f641-6ed0-4ce8-92e2-5ba78fade260"/><linearGradient id="5dc94a7e-63ac-46cd-8f97-c33045a98d8b" x1="1168.3718" y1="396.2155" x2="1168.3718" y2="410.7155" gradientTransform="translate(-279.2833 65.4661) scale(0.3589 0.5781)" xlink:href="#ec82f641-6ed0-4ce8-92e2-5ba78fade260"/><linearGradient id="b07f50c5-249b-4bc9-bfb5-0b59d75cfcd5" x1="1209.8832" y1="392.0145" x2="1209.8832" y2="406.5145" gradientTransform="translate(-51.6157 51.4336) scale(0.138 0.5781)" xlink:href="#ec82f641-6ed0-4ce8-92e2-5ba78fade260"/><linearGradient id="2bc8cfee-8aea-4082-ba4a-67f4431f2753" x1="1437.8754" y1="389.7436" x2="1437.8754" y2="404.2436" gradientTransform="translate(-196.4139 44.3011) scale(0.199 0.5781)" xlink:href="#ec82f641-6ed0-4ce8-92e2-5ba78fade260"/><linearGradient id="a38b21cd-eb21-4f1e-97e3-1106fd15de4d" x1="1606.3489" y1="391.7576" x2="1606.3489" y2="406.2576" gradientTransform="translate(-299.327 38.6084) scale(0.2204 0.5781)" xlink:href="#ec82f641-6ed0-4ce8-92e2-5ba78fade260"/><linearGradient id="5f6f145f-a5e9-4125-a9a9-d988b474aaf9" x1="1702.4847" y1="399.5959" x2="1702.4847" y2="414.0959" gradientTransform="translate(-251.3392 39.0418) scale(0.1626 0.5781)" xlink:href="#ec82f641-6ed0-4ce8-92e2-5ba78fade260"/><linearGradient id="4594eac5-9e44-48c4-8f29-72eae17c4823" x1="1830.6779" y1="393.9636" x2="1830.6779" y2="408.4636" gradientTransform="translate(-219.7951 30.161) scale(0.1251 0.5781)" xlink:href="#ec82f641-6ed0-4ce8-92e2-5ba78fade260"/><linearGradient id="110a00f0-06c8-4398-bbcc-3d8239ec902b" x1="400.3676" y1="398.9743" x2="400.3676" y2="413.4743" gradientTransform="translate(210.6263 -53.5317) scale(0.1988 0.6599)" xlink:href="#ec82f641-6ed0-4ce8-92e2-5ba78fade260"/><linearGradient id="00cb759f-4b59-4480-abb3-c6aaeb55e0c7" x1="541.1727" y1="401.1263" x2="541.1727" y2="415.6263" gradientTransform="translate(182.6597 -62.9363) scale(0.1488 0.6599)" xlink:href="#ec82f641-6ed0-4ce8-92e2-5ba78fade260"/></defs><title>branch</title><g id="18786a6b-5f94-49fe-b6c5-3d396d77d4e9" data-name="Cityscape"><circle class="66a1a59a-be5e-44ce-9a63-acc3e318f9ca" cx="91.2881" cy="42.2693" r="9.8985"/><rect class="d4b51ca4-4bca-45a6-bcc3-8c4834de8c9e" x="116.5224" y="64.593" width="56.4895" height="209.4028" transform="translate(9.8714 -10.8542) rotate(2.5142)"/><rect class="d4b51ca4-4bca-45a6-bcc3-8c4834de8c9e" x="229.5742" y="40.9781" width="65.0662" height="203.1122" transform="translate(-4.4574 8.5424) rotate(-2.8501)"/><rect class="cdbaa886-9de8-4cab-860f-47c14eda159a" x="242.5172" y="54.968" width="45.3198" height="189.3901"/><rect class="3b2dd844-8af3-4a00-9413-946779d10dc4" x="239.798" y="123.9363" width="51.9667" height="14.128"/><rect class="3b2dd844-8af3-4a00-9413-946779d10dc4" x="239.1937" y="45.2973" width="51.9667" height="10.5292"/><rect class="3b2dd844-8af3-4a00-9413-946779d10dc4" x="274.3025" y="138.0643" width="10.5746" height="101.3632"/><rect class="3b2dd844-8af3-4a00-9413-946779d10dc4" x="246.1428" y="138.0643" width="9.6198" height="99.9305"/><rect class="437bd3af-6b11-4b77-b317-3f91a9181598" x="274.8938" y="82.4052" width="5.5042" height="14.6851"/><rect class="437bd3af-6b11-4b77-b317-3f91a9181598" x="250.2583" y="82.4052" width="5.5042" height="14.6851"/><rect class="437bd3af-6b11-4b77-b317-3f91a9181598" x="262.6128" y="82.4052" width="5.5042" height="14.6851"/><rect class="437bd3af-6b11-4b77-b317-3f91a9181598" x="274.8938" y="103.3215" width="5.5042" height="14.6851"/><rect class="437bd3af-6b11-4b77-b317-3f91a9181598" x="250.2583" y="103.3215" width="5.5042" height="14.6851"/><rect class="437bd3af-6b11-4b77-b317-3f91a9181598" x="262.6128" y="103.3215" width="5.5042" height="14.6851"/><rect class="437bd3af-6b11-4b77-b317-3f91a9181598" x="274.9422" y="61.7733" width="5.5042" height="14.6851"/><rect class="437bd3af-6b11-4b77-b317-3f91a9181598" x="250.3068" y="61.7733" width="5.5042" height="14.6851"/><rect class="437bd3af-6b11-4b77-b317-3f91a9181598" x="262.6613" y="61.7733" width="5.5042" height="14.6851"/><rect class="237e1cb4-8058-4876-a578-9c092db3f882" x="258.3056" width="4.3072" height="45.2973"/><rect class="237e1cb4-8058-4876-a578-9c092db3f882" x="250.9527" y="12" width="3.6863" height="33.2973"/><rect class="cdbaa886-9de8-4cab-860f-47c14eda159a" x="172.9723" y="101.3333" width="50" height="176.2553"/><rect class="3b2dd844-8af3-4a00-9413-946779d10dc4" x="169.9723" y="165.5185" width="57.3333" height="13.1482"/><rect class="3b2dd844-8af3-4a00-9413-946779d10dc4" x="169.3056" y="92.3333" width="57.3333" height="9.799"/><rect class="3b2dd844-8af3-4a00-9413-946779d10dc4" x="208.04" y="178.6667" width="11.6667" height="94.3333"/><rect class="3b2dd844-8af3-4a00-9413-946779d10dc4" x="176.9723" y="178.6667" width="10.6132" height="93"/><rect class="437bd3af-6b11-4b77-b317-3f91a9181598" x="208.6924" y="126.8677" width="6.0727" height="13.6667"/><rect class="437bd3af-6b11-4b77-b317-3f91a9181598" x="181.5129" y="126.8677" width="6.0727" height="13.6667"/><rect class="437bd3af-6b11-4b77-b317-3f91a9181598" x="195.1432" y="126.8677" width="6.0727" height="13.6667"/><rect class="437bd3af-6b11-4b77-b317-3f91a9181598" x="208.6924" y="146.3333" width="6.0727" height="13.6667"/><rect class="437bd3af-6b11-4b77-b317-3f91a9181598" x="181.5129" y="146.3333" width="6.0727" height="13.6667"/><rect class="437bd3af-6b11-4b77-b317-3f91a9181598" x="195.1432" y="146.3333" width="6.0727" height="13.6667"/><rect class="437bd3af-6b11-4b77-b317-3f91a9181598" x="208.7458" y="107.6667" width="6.0727" height="13.6667"/><rect class="437bd3af-6b11-4b77-b317-3f91a9181598" x="181.5663" y="107.6667" width="6.0727" height="13.6667"/><rect class="437bd3af-6b11-4b77-b317-3f91a9181598" x="195.1966" y="107.6667" width="6.0727" height="13.6667"/><rect class="237e1cb4-8058-4876-a578-9c092db3f882" x="175.3056" y="60.3333" width="3.6667" height="32"/><rect class="237e1cb4-8058-4876-a578-9c092db3f882" x="212.6869" y="71.3333" width="12.2854" height="11.0718"/><rect class="237e1cb4-8058-4876-a578-9c092db3f882" x="198.233" y="82.4052" width="26.7393" height="9.9282"/><rect class="76c41ca4-4afc-4c17-8b4d-51ab309eeffe" x="103.8056" y="114.5" width="9.6233" height="52.0454"/><rect class="76c41ca4-4afc-4c17-8b4d-51ab309eeffe" x="102.9723" y="166.5454" width="11.29" height="101.7792"/><rect class="76c41ca4-4afc-4c17-8b4d-51ab309eeffe" x="105.0865" y="63.725" width="7.0617" height="52.0454"/><rect class="fca86eb2-b991-467c-9826-31aaf3f83e11" x="101.5556" y="185.7954" width="14.5" height="34.2879"/><rect class="fca86eb2-b991-467c-9826-31aaf3f83e11" x="101.3673" y="156.3977" width="14.5" height="14.5"/><rect class="fca86eb2-b991-467c-9826-31aaf3f83e11" x="101.5556" y="114.0833" width="14.5" height="10.75"/><rect class="139849e6-6522-4f32-ad3f-4583cb46ba22" x="128.0272" y="240.0262" width="188.9249" height="25.7317" transform="translate(-74.9869 94.6458) rotate(-21.5331)"/><rect class="139849e6-6522-4f32-ad3f-4583cb46ba22" x="120.2576" y="267.9143" width="56.0571" height="19.0685" transform="translate(-11.3065 3.0498) rotate(-2.8501)"/></g><rect class="72064c51-7f91-42a1-8e27-15b7c8587303" x="60.7017" y="22.8893" width="259.0063" height="268"/><g id="f0921555-da5f-4d1c-b355-2bbdb31c0713" data-name="Branch"><rect class="7884d512-b295-4a95-a785-894ff48a9702" x="266.9" y="219.1406" width="91.0454" height="18" transform="translate(-52.4734 101.7407) rotate(-17.7969)"/><rect class="7884d512-b295-4a95-a785-894ff48a9702" x="199.8479" y="237.1123" width="146.4069" height="18" transform="translate(-74.0968 127.3828) rotate(-23.9528)"/><rect class="7884d512-b295-4a95-a785-894ff48a9702" x="163.1579" y="263.5217" width="100.8899" height="18" transform="translate(-78.8687 86.1942) rotate(-20.2665)"/><rect class="7884d512-b295-4a95-a785-894ff48a9702" x="129.9489" y="276.0179" width="98.6235" height="15.1394" transform="translate(-67.9785 54.6807) rotate(-15.7595)"/><rect class="7884d512-b295-4a95-a785-894ff48a9702" x="203.82" y="236.0587" width="146.4069" height="10.0362" transform="translate(-64.0503 106.2156) rotate(-20.2665)"/><rect class="7884d512-b295-4a95-a785-894ff48a9702" x="335.5368" y="207.2884" width="32.354" height="18" transform="translate(12.1321 -19.887) rotate(2.5142)"/><rect class="7884d512-b295-4a95-a785-894ff48a9702" x="108.1742" y="288.3363" width="62.9541" height="14.4392" transform="translate(-38.6176 18.4032) rotate(-8.2412)"/><rect class="7884d512-b295-4a95-a785-894ff48a9702" x="107.1161" y="273.7493" width="41.3536" height="18.7938" transform="translate(160.9998 -30.6287) rotate(30)"/><rect class="7884d512-b295-4a95-a785-894ff48a9702" x="74.0618" y="263.1325" width="41.3536" height="15.4232" transform="translate(28.5697 -12.4678) rotate(5.473)"/><rect class="7884d512-b295-4a95-a785-894ff48a9702" x="32.1104" y="258.6597" width="56.2693" height="15.4563" transform="translate(27.9874 -9.1982) rotate(5.473)"/><rect class="7884d512-b295-4a95-a785-894ff48a9702" x="-1.3521" y="255.9583" width="56.2693" height="12.5969" transform="translate(44.4106 -5.585) rotate(9.1631)"/><rect class="7884d512-b295-4a95-a785-894ff48a9702" x="9.7024" y="266.0497" width="28.4563" height="12.3966" transform="translate(-130.6122 43.7729) rotate(-30)"/><rect class="7884d512-b295-4a95-a785-894ff48a9702" x="273.0892" y="206.3335" width="71.3209" height="14.1031" transform="translate(24.065 -33.1413) rotate(5.473)"/><rect class="7884d512-b295-4a95-a785-894ff48a9702" x="250.6263" y="198.5187" width="35.6605" height="14.1031" transform="matrix(0.9553, 0.2955, -0.2955, 0.9553, 75.0382, -74.814)"/><rect class="7884d512-b295-4a95-a785-894ff48a9702" x="187.7717" y="279.785" width="45.2191" height="14.1031" transform="translate(-136.389 213.7486) rotate(-42.6519)"/><rect class="4e10e477-9386-4bf5-8160-0770743a3c5d" x="256.6463" y="238.7338" width="65.3884" height="9.568" transform="translate(654.933 343.9296) rotate(156.0472)"/><rect class="c30a5472-ffaf-4889-9730-76e73847588f" x="314.0416" y="221.1704" width="38.2514" height="9.568" transform="translate(721.7583 334.5989) rotate(162.2031)"/><rect class="215daed2-37c3-4b61-86c8-40b752e14921" x="346.551" y="216.3718" width="21.5551" height="9.568" transform="matrix(-0.999, -0.0439, 0.0439, -0.999, 706.9175, 453.1067)"/><rect class="5cf33e45-d858-4370-99bd-9c16a89ca50a" x="225.1589" y="258.4646" width="40.8341" height="11.9378" transform="matrix(-0.9302, 0.367, -0.367, -0.9302, 573.375, 415.6087)"/><rect class="a71652e6-393d-414d-9a77-53770cfbf92f" x="188.2754" y="281.1231" width="46.5846" height="11.9378" transform="translate(563.995 350.2306) rotate(137.3481)"/><rect class="78e8b887-df3c-4a9b-85db-5b9c2ef190a9" x="166.8386" y="284.9582" width="32.8462" height="8.3827" transform="translate(457.6414 492.2521) rotate(159.7335)"/><rect class="26a89bd8-4d43-41a9-8c53-fafef0ef3b8c" x="108.4536" y="294.5252" width="63.1772" height="8.3827" transform="translate(323.7623 569.6079) rotate(171.7588)"/><rect class="ce664140-f505-4c14-b859-a373475a488b" x="103.1733" y="278.0639" width="24.2878" height="8.3827" transform="translate(76.3629 579.6875) rotate(-150)"/><rect class="e5564ed2-60c2-4136-b8ec-6b46be1671d6" x="72.1749" y="269.6186" width="35.0259" height="8.3827" transform="matrix(-0.9954, -0.0954, 0.0954, -0.9954, 155.1575, 550.2591)"/><rect class="30667f60-6ba4-40ab-96b1-484b8e83ea78" x="35.2393" y="265.0903" width="38.7887" height="8.3827" transform="translate(85.6408 537.8798) rotate(-174.527)"/><rect class="d388dc6b-0cab-4cb3-aaa4-de453b13f147" x="11.1148" y="270.0552" width="28.6163" height="8.3827" transform="translate(186.8687 494.3728) rotate(150)"/><rect class="056a0fc9-0c33-436e-842a-ee9971319fee" x="-1.7787" y="257.9182" width="22.0225" height="8.3827" transform="translate(-21.0868 517.6778) rotate(-170.8369)"/><rect class="34078f14-721e-4cf9-8a10-87f042a814b1" x="272.7157" y="209.7355" width="34.9916" height="9.568" transform="translate(560.9455 451.0737) rotate(-174.527)"/><rect class="ad7a9a9a-757d-4497-9dcd-776373808524" x="250.0789" y="201.7509" width="26.1894" height="9.568" transform="translate(455.8711 476.9463) rotate(-162.8129)"/></g><g id="c96a787a-57f9-4953-8486-4f7cbcc67c8c" data-name="Trash"><ellipse class="7712a741-9407-443d-a2b3-60e9db75c6c4" cx="55.1405" cy="190.4621" rx="18.5994" ry="23.3094" transform="matrix(0.1079, -0.9942, 0.9942, 0.1079, -137.8543, 220.0598)"/><ellipse class="7712a741-9407-443d-a2b3-60e9db75c6c4" cx="68.6201" cy="174.5956" rx="11.3898" ry="6.7545" transform="translate(-110.0554 219.3064) rotate(-83.8047)"/><ellipse class="7712a741-9407-443d-a2b3-60e9db75c6c4" cx="59.581" cy="170.1852" rx="7.9807" ry="3.6376" transform="translate(-113.7344 206.3857) rotate(-83.8047)"/><ellipse class="7712a741-9407-443d-a2b3-60e9db75c6c4" cx="80.0153" cy="228.8773" rx="34.271" ry="26.6488" transform="translate(-153.8547 279.0589) rotate(-83.8047)"/><rect class="7712a741-9407-443d-a2b3-60e9db75c6c4" x="27.0698" y="250.4516" width="65.4736" height="10.673" rx="0.9553" ry="0.9553" transform="translate(93.9656 511.8699) rotate(-173.8047)"/><ellipse class="7712a741-9407-443d-a2b3-60e9db75c6c4" cx="53.4164" cy="241.5155" rx="11.8297" ry="11.3382" transform="translate(-190.1475 263.8896) rotate(-83.8047)"/><ellipse class="7712a741-9407-443d-a2b3-60e9db75c6c4" cx="55.6741" cy="215.9253" rx="22.8504" ry="9.8269" transform="translate(-65.2252 25.3988) rotate(-19.0819)"/><ellipse class="7712a741-9407-443d-a2b3-60e9db75c6c4" cx="35.975" cy="221.0325" rx="4.3944" ry="9.4222" transform="translate(-174.7261 147.2451) rotate(-62.7774)"/><ellipse class="7712a741-9407-443d-a2b3-60e9db75c6c4" cx="122.548" cy="216.488" rx="49.4609" ry="12.1254" transform="translate(-123.8547 217.2251) rotate(-61.7317)"/><rect class="7712a741-9407-443d-a2b3-60e9db75c6c4" x="91.9241" y="253.744" width="8.8289" height="5.7997" transform="translate(166.7239 517.5189) rotate(-173.8047)"/><ellipse class="00c03673-e21b-4774-ad17-923ad79d9d37" cx="42.6385" cy="181.4785" rx="1.7432" ry="1.6708" transform="translate(-140.0759 199.6167) rotate(-83.8047)"/><ellipse class="7712a741-9407-443d-a2b3-60e9db75c6c4" cx="95.2231" cy="258.7137" rx="9.125" ry="4.1875" transform="translate(-86.0474 48.3773) rotate(-21.5446)"/><path class="7712a741-9407-443d-a2b3-60e9db75c6c4" d="M78.3677,190.4621s3.5944,5.396,7.1089,4.3444c5.48-1.64-9.1526,4.36-9.1526,4.36L73.22,193.6011l-.8869-3.139h6.0344" transform="translate(2.3056 -4.6667)"/></g></svg>