<svg xmlns="http://www.w3.org/2000/svg" viewBox="0 0 385.8333 477.5708"><defs><style>.\35 a11ebec-a4cc-4a35-8ee6-98d83c9e7713{fill:#d2d2d1;}.\31 1e683aa-4636-43b2-8bdc-4607edab6aa9{fill:#8c8c8c;}.\33 4f78385-eba0-4849-90e8-7ca21f59a365,.\38 e495307-b8d4-486c-aa1b-85b416712472{font-size:72px;}.\38 e495307-b8d4-486c-aa1b-85b416712472{fill:#787878;}.\31 925fb36-9d7d-40bd-a927-990be58d8a6f,.\33 4f78385-eba0-4849-90e8-7ca21f59a365,.\37 2e59ab2-59ae-4df4-91a9-5f4db76aced8,.\38 e495307-b8d4-486c-aa1b-85b416712472{font-family:Impact, Impact;}.\31 737545d-2085-450a-892e-51ff36977d2f{fill:#ababab;}.\33 8eb48b3-6931-47f6-8314-ec9583df7cdb{fill:#d8d8d8;}.\31 21d34d9-b2bc-41f5-b193-3ebe99ee77f3{fill:#c9c9c9;}.\33 b93ef99-d683-46eb-a395-ff002756b689{fill:#d7ca26;}.\36 fc781ce-44c1-4536-ae2f-af4d6a2377dd{fill:#fff200;}.\38 8c3bc9f-44b3-44ca-939a-5432f176eb88{fill:#e8d52a;}.\33 4f78385-eba0-4849-90e8-7ca21f59a365{fill:#f2d820;}.\35 e8aca98-ff4c-4f42-8171-7f84024d67ad{fill:#b5b5b6;}.\37 2e59ab2-59ae-4df4-91a9-5f4db76aced8{font-size:75.2359px;fill:#979899;}.bdaa345e-042d-488c-8581-cf9e2415c531{fill:#636464;}.\31 3b08451-6212-4faf-bfa8-6d5674481b06,.\37 b84659c-af0f-4cf8-8c92-0b7724e8549a{fill:#fff;}.\31 f6bed98-5a03-454f-baec-a762b2d720ed{fill:#e8e8e8;opacity:0.49;}.\38 20e6e3f-d806-4e2b-92ba-b48f634f0187{fill:#0b6eb7;}.a37ed77b-ff63-4e10-a3e8-d022a878d7cd{fill:#3a51a3;}.\37 b84659c-af0f-4cf8-8c92-0b7724e8549a,.\39 ef8b55e-398d-49b7-acd4-babd24e73027,.a37ed77b-ff63-4e10-a3e8-d022a878d7cd{stroke:#231f20;stroke-miterlimit:10;}.\37 b84659c-af0f-4cf8-8c92-0b7724e8549a,.a37ed77b-ff63-4e10-a3e8-d022a878d7cd{stroke-width:0.5px;}.\31 925fb36-9d7d-40bd-a927-990be58d8a6f{font-size:9.2772px;fill:#231f20;}.\39 ef8b55e-398d-49b7-acd4-babd24e73027{fill:#0d0d0d;}</style></defs><title>button</title><g id="5038f285-0374-4aad-ad93-be96f9d133b5" data-name="Bricks"><rect class="5a11ebec-a4cc-4a35-8ee6-98d83c9e7713" x="34.1921" y="348.5663" width="76.7328" height="31.3125"/><rect class="5a11ebec-a4cc-4a35-8ee6-98d83c9e7713" x="76.1809" y="384.2329" width="76.7328" height="31.3125"/><rect class="5a11ebec-a4cc-4a35-8ee6-98d83c9e7713" x="116.6006" y="348.5663" width="76.7328" height="31.3125"/><rect class="5a11ebec-a4cc-4a35-8ee6-98d83c9e7713" x="158.1809" y="384.2329" width="76.7328" height="31.3125"/><rect class="5a11ebec-a4cc-4a35-8ee6-98d83c9e7713" x="198.8006" y="348.5663" width="76.7328" height="31.3125"/><rect class="5a11ebec-a4cc-4a35-8ee6-98d83c9e7713" x="15.8333" y="312.8996" width="51.5632" height="31.3125"/><rect class="5a11ebec-a4cc-4a35-8ee6-98d83c9e7713" x="28.6012" y="277.2329" width="38.7954" height="31.3125"/><rect class="5a11ebec-a4cc-4a35-8ee6-98d83c9e7713" x="15.8333" y="241.7194" width="51.5632" height="31.3125"/><rect class="5a11ebec-a4cc-4a35-8ee6-98d83c9e7713" x="15.8333" y="384.2329" width="56.7252" height="31.3125"/><rect class="5a11ebec-a4cc-4a35-8ee6-98d83c9e7713" x="281.6809" y="384.2329" width="76.7328" height="31.3125"/><rect class="5a11ebec-a4cc-4a35-8ee6-98d83c9e7713" x="313.1809" y="348.5663" width="72.6525" height="31.3125"/></g><g id="35760a62-aecc-48b1-a7dc-cf2ce56c846a" data-name="Poster"><g id="d625ed03-c9d5-4cd3-9a56-b0b5bb0633ae" data-name="BG"><rect class="11e683aa-4636-43b2-8bdc-4607edab6aa9" x="62.0836" y="7.459" width="318.5" height="360.3333"/><text class="8e495307-b8d4-486c-aa1b-85b416712472" transform="translate(62.084 364.2225) scale(0.749 1)">THE BUTTON TO</text><text class="8e495307-b8d4-486c-aa1b-85b416712472" transform="translate(62.084 304.056) scale(0.8795 1)">TON TO PUSH</text><text class="8e495307-b8d4-486c-aa1b-85b416712472" transform="translate(62.083 242.7225) scale(0.8069 1)">PUSH THE BUT</text><text class="8e495307-b8d4-486c-aa1b-85b416712472" transform="translate(62.0845 185.959) scale(0.749 1)">THE BUTTON TO</text><text class="8e495307-b8d4-486c-aa1b-85b416712472" transform="translate(62.0845 125.7925) scale(0.8795 1)">TON TO PUSH</text><text class="8e495307-b8d4-486c-aa1b-85b416712472" transform="translate(62.0835 64.459) scale(0.8069 1)">PUSH THE BUT</text></g><g id="3a4fb893-3073-4a1e-8683-7661e940ae38" data-name="Button Base"><polygon class="1737545d-2085-450a-892e-51ff36977d2f" points="258.667 283.112 221.806 274.362 184.944 283.112 68.456 283.112 68.456 310.14 71.083 310.14 221.806 345.917 372.528 310.14 376.14 310.14 376.14 283.112 258.667 283.112"/><polygon class="38eb48b3-6931-47f6-8314-ec9583df7cdb" points="258.762 276.445 221.901 267.695 185.04 276.445 68.552 276.445 68.552 303.473 71.179 303.473 221.901 339.251 372.623 303.473 376.235 303.473 376.235 276.445 258.762 276.445"/><polygon class="121d34d9-b2bc-41f5-b193-3ebe99ee77f3" points="221.334 243.286 67.397 279.064 221.334 314.842 375.271 279.064 221.334 243.286"/><polygon class="38eb48b3-6931-47f6-8314-ec9583df7cdb" points="222.298 240.195 68.361 275.973 222.298 311.751 376.235 275.973 222.298 240.195"/></g><g id="4388735f-bf11-4b3a-8b85-cad11d533e4f" data-name="Button Yellow"><path class="3b93ef99-d683-46eb-a395-ff002756b689" d="M130.8818,264.2442v30.241c0,9.1669,43.1547,16.5981,96.3889,16.5981s96.3889-7.4312,96.3889-16.5981v-30.241Z" transform="translate(-6.6667 -16.291)"/><path class="6fc781ce-44c1-4536-ae2f-af4d6a2377dd" d="M130.8818,259.5775v30.241c0,9.1669,43.1547,16.5982,96.3889,16.5982s96.3889-7.4313,96.3889-16.5982v-30.241Z" transform="translate(-6.6667 -16.291)"/><ellipse class="88c3bc9f-44b3-44ca-939a-5432f176eb88" cx="220.604" cy="247.9532" rx="96.3889" ry="18.8275"/><ellipse class="6fc781ce-44c1-4536-ae2f-af4d6a2377dd" cx="221.3336" cy="243.2865" rx="96.3889" ry="18.8275"/><text class="34f78385-eba0-4849-90e8-7ca21f59a365" transform="translate(191.603 233.4588) rotate(90) scale(0.4749 1)">2</text></g><g id="c0c0f127-c71d-4d79-b4e7-7576fc829e5a" data-name="Arrow"><polygon class="5e8aca98-ff4c-4f42-8171-7f84024d67ad" points="262.253 150.823 262.253 19.234 178.955 19.234 178.955 150.823 133.316 150.823 220.604 210.459 307.892 150.823 262.253 150.823"/><text class="72e59ab2-59ae-4df4-91a9-5f4db76aced8" transform="translate(177.4464 80.189) scale(0.7568 1)">ONE</text><text class="72e59ab2-59ae-4df4-91a9-5f4db76aced8" transform="translate(179.7188 140.2739) scale(0.6899 1)">AND</text></g><g id="16880ac6-93ac-4f24-a63e-a1d38cbff509" data-name="Unstick"><path class="bdaa345e-042d-488c-8581-cf9e2415c531" d="M68.75,56.6414S78.12,82.1057,109.176,81.5752,174.5,23.75,174.5,23.75Z" transform="translate(-6.6667 -16.291)"/><polygon class="13b08451-6212-4faf-bfa8-6d5674481b06" points="62.083 40.35 62.084 7.459 139.333 6.292 167.833 7.459 62.083 40.35"/><polygon class="1f6bed98-5a03-454f-baec-a762b2d720ed" points="62.084 7.459 62.083 40.35 167.833 7.459 62.084 7.459"/></g></g><g id="b3ea1898-098d-4a2b-8d92-ac127067e2c4" data-name="Artist"><path class="820e6e3f-d806-4e2b-92ba-b48f634f0187" d="M102.0874,291.2042C99.05,293.122,95.29,296.06,97.6852,299.919c.9865,1.5893,2.7238,2.1594,3.4638,4.0477.8172,2.0853-.0047,4.6708-1.2054,6.3869-2.1533,3.0774-5.9748,4.4818-8.9423,6.5908-3.5077,2.4927-6.6188,5.94-5.7449,10.5344.5974,3.14,2.723,5.7069,3.1263,8.9528.5565,4.48-1.422,7.1584-2.9461,11.1191-1.1689,3.0378-.916,6.4768-1.0005,9.6828-.07,2.6446-.6856,6.2365.3964,8.7862,1.5451,3.6411,5.8024,4.5718,8.7724,6.6253,12.764,8.8254-18.7285,21.6227-7.6782,31.6968.7661.6983,3.4908-.4128,2.6883-1.1445-9.5092-8.669,15.4578-18.9874,10.3172-29.0054-1.8636-3.6319-6.6383-4.1537-9.4447-6.7216-2.8717-2.6278-2.2672-6.1881-2.1735-9.7416.0778-2.9487-.171-6.1858.5447-9.0584.6984-2.8034,2.5914-5.0884,3.2183-7.9507a14.87,14.87,0,0,0-.3316-7.4419c-.9246-3.0554-3.2914-5.9095-2.6482-9.2983.75-3.95,4.7268-6.1927,7.8459-8.1052,3.5215-2.1591,7.3912-4.6521,8.2622-9.0152a6.3229,6.3229,0,0,0-.9413-5.0929c-.9-1.2866-2.9384-2.2728-3.3654-3.8539-.7122-2.6371,2.1775-4.6664,3.9958-5.8146,1.6533-1.044-.8534-1.4955-1.807-.8934Z" transform="translate(-6.6667 -16.291)"/><path class="820e6e3f-d806-4e2b-92ba-b48f634f0187" d="M131.65,276.1177a29.9751,29.9751,0,0,0,7.2433-.0426c.95-.1211,2.623-1.445.77-1.5914a33.2763,33.2763,0,0,1-11.362-2.972l-1.7232,1.4985a8.4763,8.4763,0,0,1,4.9836,1.6547l1.7232-1.4985c-7.2334.4232-10.2031,3.1535-14.8787,8.4525-2.1755,2.4656-2.6063,2.3839-5.4952,2.3864a5.1219,5.1219,0,0,0-1.6051.1415,4.7082,4.7082,0,0,0-1.4558.6988c-.2666.178-.1688.6613-.3686.8451-1.9859,1.8278-3.4987,4.1944-6.34,4.9122-1.74.44-1.3686,1.8556.3789,1.4141,2.62-.662,5.61-1.4325,7.4118-3.6259.3873-.4714.9057-2.2532,1.27-2.5379-.2162.1688-.7617.3478.3934.4032.5347.0256,1.0954.2248,1.6537.2216a6.9834,6.9834,0,0,0,4.6315-2.3292c4.3555-4.1494,6.41-8.9683,13.268-9.37.4717-.0276,2.93-.76,1.7232-1.4985a12.4089,12.4089,0,0,0-6.1591-1.8833c-.48-.0325-2.9586.9355-1.7232,1.4985a36.4983,36.4983,0,0,0,12.5376,3.2007l.77-1.5914a18.5656,18.5656,0,0,1-5.8672.0636c-.8938-.0992-3.3914,1.37-1.7811,1.5489Z" transform="translate(-6.6667 -16.291)"/><path class="820e6e3f-d806-4e2b-92ba-b48f634f0187" d="M133.9821,272.5736c.1083.6241-.34.9262-.1031,1.5149a5.02,5.02,0,0,0,.7758,1.2163,6.4581,6.4581,0,0,0,2.4557,1.7885l-.1851-.6907a1.509,1.509,0,0,1-.6469.579c-.38.1612-1.1746.613-.7864,1.1129.3662.4716,1.4933.1774,1.91,0a5.097,5.097,0,0,0,2.21-1.672.4262.4262,0,0,0-.1851-.6908,5.3767,5.3767,0,0,1-2.1718-1.6637,1.6809,1.6809,0,0,1-.4938-1.0223,4.1783,4.1783,0,0,0,.1179-1.2489c-.1608-.927-3.0746-.2428-2.8978.7764Z" transform="translate(-6.6667 -16.291)"/><path class="820e6e3f-d806-4e2b-92ba-b48f634f0187" d="M133.8932,271.9992l2.3385,1.9907c.561.4775,2.0823,1.3248,2.301,2.0086l.2283-.8457c-.9652,1.51-2.9892,2.6768-4.4661,3.627a.9543.9543,0,0,0-.14,1.5554c.5781.5035,1.5344.1924,2.0819-.16a30.0231,30.0231,0,0,0,3.22-2.3623c.6774-.576,1.9936-1.4359,1.9851-2.4466-.0078-.9137-1.2235-1.59-1.8183-2.0966l-3.5079-2.986c-1.0227-.87-3.5191.6114-2.2221,1.7153Z" transform="translate(-6.6667 -16.291)"/><polygon class="a37ed77b-ff63-4e10-a3e8-d022a878d7cd" points="125.525 254.633 128.744 257.376 131.667 252.975 129.686 251.572 125.525 254.633"/><polygon class="7b84659c-af0f-4cf8-8c92-0b7724e8549a" points="118.888 235.685 109.532 221.709 99.72 228.697 109.304 237.933 125.277 254.851 129.841 250.853 118.888 235.685"/><text class="1925fb36-9d7d-40bd-a927-990be58d8a6f" transform="matrix(0.6382, 0.7765, -0.8197, 0.5728, 104.8918, 230.6581)">bruh</text><path class="9ef8b55e-398d-49b7-acd4-babd24e73027" d="M111.05,264.4839c-6.3427,1.876-13.5323,4.2-17.7833,6.2156-7.996-13.6449-16.2811-47.47-20.6978-67.38a39.07,39.07,0,1,0-26.9047-4.9817C35.54,230.8051,11.8005,310.27,20.2537,315.6126c10.6422,6.7259,16.2035,5.8851,13.8291,0-1.2965-3.2132,7.2376-47.466,14.8551-83.0011C43.7562,271.1569,36.1187,332.33,36.1213,358.0156,31.5118,377.0471,18.9086,431.9546,20,459.1011c.9167,22.8,4.7579,30.43,7.069,32.9724l-.9772.82h1.882a2.3343,2.3343,0,0,0,.88.4394l.5235-.4394h7.095v-5.9561l1.3017-1.0928L42.029,372.551a16.8064,16.8064,0,0,0,3.4308,1.2039l3.7383,111.2112,2.0317,1.9058v6.4614h8.92l-.8265-.7753c2.1808-2.0855,6.65-9.7218,7.6482-37.4748.8564-23.7989-6.7185-66.6967-12.2481-94.3453l11.21-127.9919c2.04,18.29,7.1948,52.8132,17.428,58.1845,14.0287,7.3636,30.3331-10.1751,30.3331-10.1751l26.2886-23.406S124.0043,253.17,111.05,264.4839Z" transform="translate(-6.6667 -16.291)"/><line class="9ef8b55e-398d-49b7-acd4-babd24e73027" y1="477.0423" x2="193.3333" y2="477.0423"/></g></svg>