<svg id="Layer_1" data-name="Layer 1" xmlns="http://www.w3.org/2000/svg" viewBox="0 0 601.21 28.21"><defs><style>.cls-1{fill:#231f20;stroke:#231f20;stroke-miterlimit:10;}</style></defs><title>grounding</title><rect class="cls-1" x="0.5" y="0.71" width="600" height="6.5"/><path class="cls-1" d="M27,0,2.36,27h8.8L31.81,4.38Z" transform="translate(0.5 0.71)"/><path class="cls-1" d="M68.85,0,44.2,27H53L73.65,4.38Z" transform="translate(0.5 0.71)"/><path class="cls-1" d="M115.14,0,90.49,27h8.8L119.94,4.38Z" transform="translate(0.5 0.71)"/><path class="cls-1" d="M163.67,0,139,27h8.8L168.47,4.38Z" transform="translate(0.5 0.71)"/><path class="cls-1" d="M211.74,0,187.08,27h8.81L216.54,4.38Z" transform="translate(0.5 0.71)"/><path class="cls-1" d="M254.5,0,229.84,27h8.81L259.3,4.38Z" transform="translate(0.5 0.71)"/><path class="cls-1" d="M309.93,0,285.27,27h8.81L314.73,4.38Z" transform="translate(0.5 0.71)"/><path class="cls-1" d="M357.5,0,332.85,27h8.8L362.3,4.38Z" transform="translate(0.5 0.71)"/><path class="cls-1" d="M404.23,0,379.58,27h8.8L409,4.38Z" transform="translate(0.5 0.71)"/><path class="cls-1" d="M457.48,0,432.83,27h8.8L462.28,4.38Z" transform="translate(0.5 0.71)"/><path class="cls-1" d="M504,0,479.38,27h8.8L508.83,4.38Z" transform="translate(0.5 0.71)"/><path class="cls-1" d="M552.7,0,528.05,27h8.8L557.51,4.38Z" transform="translate(0.5 0.71)"/><path class="cls-1" d="M595.2,0,570.55,27h8.8L600,4.38Z" transform="translate(0.5 0.71)"/></svg>