<svg id="98418e3d-6deb-4c4a-9575-b59e5e64d13b" data-name="Layer 1" xmlns="http://www.w3.org/2000/svg" xmlns:xlink="http://www.w3.org/1999/xlink" viewBox="0 0 400 311.2768"><defs><style>.\31 028d7fa-a212-44bb-91ad-b73ae14b1297,.\32 ef9802b-65fa-40c8-9862-d97787fec694,.c0dcb2c8-c8e1-435b-bdea-4330109e0e31,.d7a5c803-2fe5-4e15-8d50-673001471d97,.eba542ad-70c5-46ee-aaee-1ce358d1dfe2{fill:none;}.e5e2d2f2-73fd-4ab3-89f2-1eab8cd73315{clip-path:url(#783c1afb-2814-4b2c-b676-f0b5730eda7f);}.d59ba3b2-bbef-4293-8e80-44a926354ade{fill:url(#e0672cf2-8f3b-4158-b794-77cd801be25d);}.\30 016895d-6f36-45e1-b95b-4f10467f539c,.\31 f11da28-0f6e-4dea-89cd-92f1f44344c8,.\33 ae345ec-b0cc-4fcd-84d2-e55e11421f24,.\35 ca5610d-ecae-4d74-8887-d0adce38eb5a,.\38 d0f06d1-68c7-4970-b378-c55863f032e0,.a0b1901b-51e8-4e21-8633-25cec7fdb97d{fill:#fff;}.a0b1901b-51e8-4e21-8633-25cec7fdb97d{stroke:#0093c9;}.\30 016895d-6f36-45e1-b95b-4f10467f539c,.\31 f11da28-0f6e-4dea-89cd-92f1f44344c8,.\32 4726fb7-2b00-4556-8ce3-d2d14807d12c,.\32 ef9802b-65fa-40c8-9862-d97787fec694,.\33 ae345ec-b0cc-4fcd-84d2-e55e11421f24,.\35 ca5610d-ecae-4d74-8887-d0adce38eb5a,.a0b1901b-51e8-4e21-8633-25cec7fdb97d,.b164b56f-7794-4573-93a0-4832cb7d1eb6,.c0dcb2c8-c8e1-435b-bdea-4330109e0e31,.d7a5c803-2fe5-4e15-8d50-673001471d97,.eba542ad-70c5-46ee-aaee-1ce358d1dfe2{stroke-miterlimit:10;}.ce12f3a6-eda0-469f-8e5f-a955b6889978{fill:#1092d1;}.ce12f3a6-eda0-469f-8e5f-a955b6889978,.d7a5c803-2fe5-4e15-8d50-673001471d97{opacity:0.56;}.e27d6d68-715e-470d-a3a5-c5ce8ee541ad{fill:#009ade;opacity:0.24;}.fe7d5857-e7d7-464f-b92b-10b509737777{fill:#00a1d4;}.\31 3122ca5-8cdf-4000-b19b-6eeb27d1b6ed{fill:#4579bd;}.\32 4726fb7-2b00-4556-8ce3-d2d14807d12c{fill:#4e81c2;stroke:#2e3192;}.\32 4726fb7-2b00-4556-8ce3-d2d14807d12c,.\33 ae345ec-b0cc-4fcd-84d2-e55e11421f24,.\35 ca5610d-ecae-4d74-8887-d0adce38eb5a{stroke-width:0.25px;}.f2ec2c3e-57e8-479e-bc30-db6a094c638c{fill:#ccddf2;}.\31 f11da28-0f6e-4dea-89cd-92f1f44344c8,.\35 ca5610d-ecae-4d74-8887-d0adce38eb5a,.b164b56f-7794-4573-93a0-4832cb7d1eb6{stroke:#fff;}.\37 4dde47d-7ab2-4894-8189-909e7ffd2364,.b164b56f-7794-4573-93a0-4832cb7d1eb6{fill:#c2dbf3;}.\32 ef9802b-65fa-40c8-9862-d97787fec694,.c0dcb2c8-c8e1-435b-bdea-4330109e0e31,.d7a5c803-2fe5-4e15-8d50-673001471d97,.eba542ad-70c5-46ee-aaee-1ce358d1dfe2{stroke:#4859a8;stroke-width:0.5px;}.\32 ef9802b-65fa-40c8-9862-d97787fec694{opacity:0.22;}.eba542ad-70c5-46ee-aaee-1ce358d1dfe2{opacity:0.19;}.c0dcb2c8-c8e1-435b-bdea-4330109e0e31{opacity:0.44;}.\35 9101aee-8313-4250-b7e3-6c08128c51df{fill:#3375bb;}.\36 28597cf-3f71-43d3-a26c-24b850f6823c{fill:#84a2be;}.e3cd266c-b040-4d13-b240-eb3921ef4d46{fill:#fef4f4;}.defb94d4-7ece-42b1-b4ce-32d3fa50db89{fill:#5399d3;}.\33 ae345ec-b0cc-4fcd-84d2-e55e11421f24{stroke:#457cbf;}.\32 afc30a3-d0ea-45dc-88df-87d2815c999e{fill:#6d8dc8;}.afcca979-eaec-4bb5-a431-0094221739e2{fill:#2b7dc1;}.\30 016895d-6f36-45e1-b95b-4f10467f539c{stroke:#007fc4;}.\39 9dcded5-3d4b-4c4e-8908-5ffba4209882{font-size:16.1098px;fill:#106db7;font-family:MalgunGothicBold, Malgun Gothic;font-weight:700;}.\30 2915d6c-0077-4ab9-90f0-518151d3fa86,.\39 5f75c0f-a32d-49cc-97fe-1a00d9b357eb,.c98a9911-8045-4ed5-afd6-98b5e47e560e{fill:#2a2874;}.\39 5f75c0f-a32d-49cc-97fe-1a00d9b357eb{opacity:0.15;}.\30 2915d6c-0077-4ab9-90f0-518151d3fa86{opacity:0.31;}.c98a9911-8045-4ed5-afd6-98b5e47e560e{opacity:0.17;}.\37 6749716-674b-48de-b6a6-b181f897e677{clip-path:url(#15268f63-3342-49cc-8ec5-623101bcad1a);}.\35 1798076-905f-4469-9120-c3602753e386{fill:#414042;}.\31 f11da28-0f6e-4dea-89cd-92f1f44344c8{stroke-width:2px;}.bee72d18-6a8f-48f4-ba0b-08b0cd3abf3a{opacity:0.4;fill:url(#1c4846af-81c2-4a05-a076-8ade63bc60ad);}</style><clipPath id="783c1afb-2814-4b2c-b676-f0b5730eda7f"><polygon class="1028d7fa-a212-44bb-91ad-b73ae14b1297" points="306.333 155.638 202.103 311.277 97.873 155.638 202.103 0 306.333 155.638"/></clipPath><linearGradient id="e0672cf2-8f3b-4158-b794-77cd801be25d" x1="195.3724" y1="-178.4006" x2="203.1186" y2="319.0139" gradientUnits="userSpaceOnUse"><stop offset="0" stop-color="#2484c6"/><stop offset="1" stop-color="#2484c6" stop-opacity="0.2"/></linearGradient><clipPath id="15268f63-3342-49cc-8ec5-623101bcad1a"><polygon class="1028d7fa-a212-44bb-91ad-b73ae14b1297" points="0 215.76 400 215.76 202.103 276.133 0 215.76"/></clipPath><linearGradient id="1c4846af-81c2-4a05-a076-8ade63bc60ad" x1="199.8343" y1="215.6171" x2="200.1602" y2="275.2631" gradientUnits="userSpaceOnUse"><stop offset="0" stop-color="#394da1"/><stop offset="1" stop-color="#5783c3" stop-opacity="0.2"/></linearGradient></defs><title>shops</title><g class="e5e2d2f2-73fd-4ab3-89f2-1eab8cd73315"><rect class="d59ba3b2-bbef-4293-8e80-44a926354ade" x="65.3092" y="-179.5339" width="267.8775" height="500"/></g><rect class="a0b1901b-51e8-4e21-8633-25cec7fdb97d" x="12.6113" y="90.6166" width="240.356" height="125.4477"/><rect class="ce12f3a6-eda0-469f-8e5f-a955b6889978" x="21.409" y="138.946" width="105.9177" height="77.1183"/><rect class="e27d6d68-715e-470d-a3a5-c5ce8ee541ad" x="158.0324" y="149.9469" width="75.2119" height="67.0496"/><rect class="8d0f06d1-68c7-4970-b378-c55863f032e0" x="166.1401" y="158.6731" width="25.7031" height="57.3912"/><rect class="8d0f06d1-68c7-4970-b378-c55863f032e0" x="201.5035" y="158.6731" width="23.6331" height="57.3912"/><rect class="fe7d5857-e7d7-464f-b92b-10b509737777" x="184.9431" y="185.7465" width="5.0601" height="4.9224"/><rect class="fe7d5857-e7d7-464f-b92b-10b509737777" x="204.2636" y="185.7465" width="5.0601" height="4.9224"/><rect class="13122ca5-8cdf-4000-b19b-6eeb27d1b6ed" x="142.852" y="127.1993" width="102.4676" height="20.4729"/><polygon class="24726fb7-2b00-4556-8ce3-d2d14807d12c" points="143.197 138.946 123.187 159.419 260.5 159.419 245.665 138.946 143.197 138.946"/><polygon class="f2ec2c3e-57e8-479e-bc30-db6a094c638c" points="151.362 138.946 131.438 159.419 151.362 159.419 168.613 138.946 151.362 138.946"/><polygon class="f2ec2c3e-57e8-479e-bc30-db6a094c638c" points="240.94 138.946 252.335 159.419 235.635 159.419 224.044 138.946 240.94 138.946"/><rect class="5ca5610d-ecae-4d74-8887-d0adce38eb5a" x="26.5493" y="142.6005" width="97.0624" height="58.9947"/><rect class="b164b56f-7794-4573-93a0-4832cb7d1eb6" x="38.8894" y="188.8184" width="75.0394" height="3.7012"/><rect class="b164b56f-7794-4573-93a0-4832cb7d1eb6" x="38.8894" y="175.6546" width="75.0394" height="3.7012"/><rect class="b164b56f-7794-4573-93a0-4832cb7d1eb6" x="38.8894" y="162.4674" width="75.0394" height="3.7012"/><rect class="74dde47d-7ab2-4894-8189-909e7ffd2364" x="42.7995" y="192.361" width="67.3917" height="9.2342"/><rect class="74dde47d-7ab2-4894-8189-909e7ffd2364" x="42.7133" y="179.5841" width="67.3917" height="9.2342"/><rect class="74dde47d-7ab2-4894-8189-909e7ffd2364" x="42.7133" y="166.4203" width="67.3917" height="9.2342"/><line class="d7a5c803-2fe5-4e15-8d50-673001471d97" x1="28.5392" y1="156.8458" x2="43.2595" y2="146.1059"/><line class="2ef9802b-65fa-40c8-9862-d97787fec694" x1="28.3092" y1="162.2157" x2="51.9998" y2="145.2109"/><line class="eba542ad-70c5-46ee-aaee-1ce358d1dfe2" x1="102.831" y1="198.9103" x2="115.4814" y2="189.5129"/><line class="c0dcb2c8-c8e1-435b-bdea-4330109e0e31" x1="109.1562" y1="200.4765" x2="121.9215" y2="190.6689"/><rect class="59101aee-8313-4250-b7e3-6c08128c51df" x="5.0786" y="107.1739" width="255.4214" height="17.676"/><path class="628597cf-3f71-43d3-a26c-24b850f6823c" d="M50.6933,184.1877v4.6316H47.1052v-4.0409h.0277v-.5907c0-.51.4691-.9532,1.1178-1.1411v-1.6379h1.2972v1.6379C50.2241,183.221,50.6933,183.6641,50.6933,184.1877Z"/><rect class="e3cd266c-b040-4d13-b240-eb3921ef4d46" x="47.1052" y="184.7784" width="3.5881" height="2.7908"/><path class="628597cf-3f71-43d3-a26c-24b850f6823c" d="M56.2565,184.1877v4.6316h-3.588v-4.0409h.0276v-.5907c0-.51.4692-.9532,1.1178-1.1411v-1.6379h1.2973v1.6379C55.7874,183.221,56.2565,183.6641,56.2565,184.1877Z"/><rect class="e3cd266c-b040-4d13-b240-eb3921ef4d46" x="52.6685" y="184.7784" width="3.5881" height="2.7908"/><path class="628597cf-3f71-43d3-a26c-24b850f6823c" d="M62.51,184.1877v4.6316h-3.588v-4.0409h.0276v-.5907c0-.51.4692-.9532,1.1178-1.1411v-1.6379h1.2973v1.6379C62.0407,183.221,62.51,183.6641,62.51,184.1877Z"/><rect class="e3cd266c-b040-4d13-b240-eb3921ef4d46" x="58.9218" y="184.7784" width="3.5881" height="2.7908"/><path class="628597cf-3f71-43d3-a26c-24b850f6823c" d="M67.7281,184.1877v4.6316H64.14v-4.0409h.0277v-.5907c0-.51.4691-.9532,1.1178-1.1411v-1.6379h1.2972v1.6379C67.2589,183.221,67.7281,183.6641,67.7281,184.1877Z"/><rect class="e3cd266c-b040-4d13-b240-eb3921ef4d46" x="64.14" y="184.7784" width="3.5881" height="2.7908"/><path class="628597cf-3f71-43d3-a26c-24b850f6823c" d="M73.7657,184.1877v4.6316h-3.588v-4.0409h.0276v-.5907c0-.51.4692-.9532,1.1178-1.1411v-1.6379H72.62v1.6379C73.2966,183.221,73.7657,183.6641,73.7657,184.1877Z"/><rect class="e3cd266c-b040-4d13-b240-eb3921ef4d46" x="70.1777" y="184.7784" width="3.5881" height="2.7908"/><path class="628597cf-3f71-43d3-a26c-24b850f6823c" d="M79.2859,184.1877v4.6316H75.6978v-4.0409h.0276v-.5907c0-.51.4692-.9532,1.1179-1.1411v-1.6379h1.2972v1.6379C78.8167,183.221,79.2859,183.6641,79.2859,184.1877Z"/><rect class="e3cd266c-b040-4d13-b240-eb3921ef4d46" x="75.6978" y="184.7784" width="3.5881" height="2.7908"/><path class="628597cf-3f71-43d3-a26c-24b850f6823c" d="M85.4529,184.1877v4.6316H81.8648v-4.0409h.0277v-.5907c0-.51.4691-.9532,1.1178-1.1411v-1.6379h1.2972v1.6379C84.9837,183.221,85.4529,183.6641,85.4529,184.1877Z"/><rect class="e3cd266c-b040-4d13-b240-eb3921ef4d46" x="81.8648" y="184.7784" width="3.5881" height="2.7908"/><path class="628597cf-3f71-43d3-a26c-24b850f6823c" d="M90.5418,184.1877v4.6316H86.9537v-4.0409h.0277v-.5907c0-.51.4691-.9532,1.1178-1.1411v-1.6379h1.2972v1.6379C90.0726,183.221,90.5418,183.6641,90.5418,184.1877Z"/><rect class="e3cd266c-b040-4d13-b240-eb3921ef4d46" x="86.9537" y="184.7784" width="3.5881" height="2.7908"/><path class="628597cf-3f71-43d3-a26c-24b850f6823c" d="M97.8732,184.1877v4.6316h-3.588v-4.0409h.0276v-.5907c0-.51.4692-.9532,1.1178-1.1411v-1.6379h1.2972v1.6379C97.4041,183.221,97.8732,183.6641,97.8732,184.1877Z"/><rect class="e3cd266c-b040-4d13-b240-eb3921ef4d46" x="94.2852" y="184.7784" width="3.5881" height="2.7908"/><path class="628597cf-3f71-43d3-a26c-24b850f6823c" d="M106.8806,159.62l4.7508-.3044.2359,3.4829-4.145.2656-.0018-.0269-.6059.0389a1.3673,1.3673,0,0,1-1.2439-1.01l-1.68.1077-.0852-1.2592,1.68-.1077A1.3268,1.3268,0,0,1,106.8806,159.62Z"/><polygon class="e3cd266c-b040-4d13-b240-eb3921ef4d46" points="110.349 159.397 110.585 162.88 107.722 163.064 107.486 159.581 110.349 159.397"/><path class="defb94d4-7ece-42b1-b4ce-32d3fa50db89" d="M60.7158,175.6546H51.7616l-4.6564-4.6563v-1.5948H60.7158Z"/><polygon class="3ae345ec-b0cc-4fcd-84d2-e55e11421f24" points="50.131 169.404 54.463 175.655 58.541 175.571 54.463 169.404 50.131 169.404"/><path class="defb94d4-7ece-42b1-b4ce-32d3fa50db89" d="M81.4606,175.6545l-8.9542,0L67.85,170.9984v-1.5948H81.4606Z"/><polygon class="3ae345ec-b0cc-4fcd-84d2-e55e11421f24" points="70.876 169.404 75.207 175.655 79.285 175.571 75.207 169.404 70.876 169.404"/><path class="defb94d4-7ece-42b1-b4ce-32d3fa50db89" d="M102.3583,175.6545l-8.9541,0-4.6564-4.6563v-1.5948h13.6105Z"/><polygon class="3ae345ec-b0cc-4fcd-84d2-e55e11421f24" points="91.773 169.404 96.105 175.655 100.183 175.571 96.105 169.404 91.773 169.404"/><rect class="2afc30a3-d0ea-45dc-88df-87d2815c999e" x="60.7158" y="195.5727" width="35.7901" height="6.0225"/><rect class="8d0f06d1-68c7-4970-b378-c55863f032e0" x="62.5098" y="196.9782" width="7.6679" height="2.6034"/><rect class="74dde47d-7ab2-4894-8189-909e7ffd2364" x="128.5342" y="207.189" width="10.8103" height="8.0922"/><rect class="74dde47d-7ab2-4894-8189-909e7ffd2364" x="128.5342" y="168.9701" width="10.8103" height="8.0922"/><rect class="74dde47d-7ab2-4894-8189-909e7ffd2364" x="21.1442" y="129.3435" width="10.8103" height="8.0922"/><rect class="74dde47d-7ab2-4894-8189-909e7ffd2364" x="34.7493" y="129.3435" width="10.8103" height="8.0922"/><rect class="74dde47d-7ab2-4894-8189-909e7ffd2364" x="47.7303" y="129.3435" width="10.8103" height="8.0922"/><rect class="74dde47d-7ab2-4894-8189-909e7ffd2364" x="103.6306" y="129.3435" width="10.8103" height="8.0922"/><rect class="74dde47d-7ab2-4894-8189-909e7ffd2364" x="116.5164" y="129.3435" width="10.8103" height="8.0922"/><rect class="74dde47d-7ab2-4894-8189-909e7ffd2364" x="128.5342" y="188.4734" width="10.8103" height="8.0922"/><rect class="74dde47d-7ab2-4894-8189-909e7ffd2364" x="129.3967" y="197.5492" width="9.0852" height="8.0922"/><rect class="74dde47d-7ab2-4894-8189-909e7ffd2364" x="129.3967" y="178.6425" width="9.0852" height="8.0922"/><rect class="afcca979-eaec-4bb5-a431-0094221739e2" x="5.0786" y="89.2741" width="255.4214" height="11.0755"/><rect class="0016895d-6f36-45e1-b95b-4f10467f539c" x="15.7059" y="92.1828" width="116.1196" height="27.6328"/><text class="99dcded5-3d4b-4c4e-8908-5ffba4209882" transform="translate(29.8862 111.8738) scale(1.028 1)">읽지 마세요</text><polygon class="74dde47d-7ab2-4894-8189-909e7ffd2364" points="227.523 88.428 190.319 88.428 190.319 70.752 190.319 66.501 227.523 66.501 227.523 88.428"/><polygon class="74dde47d-7ab2-4894-8189-909e7ffd2364" points="189.514 72.43 189.514 72.989 189.514 88.428 175.484 88.428 189.514 72.43"/><ellipse class="95f75c0f-a32d-49cc-97fe-1a00d9b357eb" cx="202.3445" cy="78.2545" rx="9.9837" ry="9.712"/><ellipse class="02915d6c-0077-4ab9-90f0-518151d3fa86" cx="202.3445" cy="78.2545" rx="2.8032" ry="2.7269"/><ellipse class="c98a9911-8045-4ed5-afd6-98b5e47e560e" cx="202.3229" cy="72.0413" rx="1.6819" ry="3.4863"/><ellipse class="c98a9911-8045-4ed5-afd6-98b5e47e560e" cx="202.3229" cy="84.4678" rx="1.6819" ry="3.4863"/><ellipse class="c98a9911-8045-4ed5-afd6-98b5e47e560e" cx="208.9212" cy="78.2545" rx="3.5838" ry="1.6362"/><ellipse class="c98a9911-8045-4ed5-afd6-98b5e47e560e" cx="206.8048" cy="73.8945" rx="3.5358" ry="1.6584" transform="translate(6.3391 163.5725) rotate(-43.7639)"/><ellipse class="c98a9911-8045-4ed5-afd6-98b5e47e560e" cx="197.841" cy="82.6145" rx="3.5358" ry="1.6584" transform="translate(-2.1826 159.7948) rotate(-43.7639)"/><ellipse class="c98a9911-8045-4ed5-afd6-98b5e47e560e" cx="197.841" cy="73.8945" rx="1.6584" ry="3.5358" transform="translate(7.6304 165.6627) rotate(-46.2361)"/><ellipse class="c98a9911-8045-4ed5-afd6-98b5e47e560e" cx="206.8048" cy="82.6145" rx="1.6584" ry="3.5358" transform="translate(4.0966 174.8248) rotate(-46.2361)"/><ellipse class="c98a9911-8045-4ed5-afd6-98b5e47e560e" cx="195.9446" cy="78.2545" rx="3.5838" ry="1.6362"/><rect class="59101aee-8313-4250-b7e3-6c08128c51df" x="361.1667" y="177.6898" width="9" height="33.6495"/><rect class="59101aee-8313-4250-b7e3-6c08128c51df" x="345.3333" y="172.6199" width="40.6667" height="7.1487"/><rect class="59101aee-8313-4250-b7e3-6c08128c51df" x="333.8588" y="121.8153" width="4.8667" height="90.4313"/><polygon class="59101aee-8313-4250-b7e3-6c08128c51df" points="337.525 93.073 299.685 121.096 372.9 121.096 337.525 93.073"/><polygon class="59101aee-8313-4250-b7e3-6c08128c51df" points="333.859 93.073 286 108.839 299.685 118.466 333.859 93.073"/><polygon class="59101aee-8313-4250-b7e3-6c08128c51df" points="340.667 93.073 372.9 118.466 388.333 107.084 340.667 93.073"/><rect class="59101aee-8313-4250-b7e3-6c08128c51df" x="334.151" y="83.3512" width="4.8667" height="8.2911"/><g class="76749716-674b-48de-b6a6-b181f897e677"><rect class="51798076-905f-4469-9120-c3602753e386" y="214.1548" width="400" height="61.978"/><line class="1f11da28-0f6e-4dea-89cd-92f1f44344c8" x1="400.0143" y1="213.9943" x2="0.0143" y2="214.3154"/><rect class="bee72d18-6a8f-48f4-ba0b-08b0cd3abf3a" y="215.7605" width="400" height="60.3723"/></g></svg>