<svg id="e0781264-0064-409c-9f00-530ff6aac797" data-name="Layer 1" xmlns="http://www.w3.org/2000/svg" xmlns:xlink="http://www.w3.org/1999/xlink" viewBox="0 0 306.4754 251.6085"><defs><style>.\35 43c0a85-c0ea-44ef-aa89-ce463da0b459{fill:#f58020;}.\31 5227a3b-fc69-41f9-a5af-61d5c6a6efa2,.\31 f2d4ec0-fcee-415c-bf14-b4de4b70d78c,.\33 4840668-5153-4c28-b78f-b6b455011391,.\35 43c0a85-c0ea-44ef-aa89-ce463da0b459,.\35 65ca35f-050c-4a29-b8f1-ea43bccce598,.\35 dffd153-e66e-445a-9fca-a20dd569535f,.\39 ef98eb4-4c64-4d62-b8e1-55f9fb5e432f,.b1cd64bd-4b4a-450a-a508-bc792e9b5165,.bbba702c-e80d-48c3-9b45-894d0d8db20c,.cda0f48e-c922-46d7-82c9-b1b451594c16,.eda921ed-c5d1-4f19-83b9-df78dbfabd5c,.f1115caf-d8e1-461b-865f-92b9747f7573{stroke:#fff;}.\31 5227a3b-fc69-41f9-a5af-61d5c6a6efa2,.\31 f2d4ec0-fcee-415c-bf14-b4de4b70d78c,.\33 4840668-5153-4c28-b78f-b6b455011391,.\33 a77552d-3a2d-4b5b-91d3-0d5551e4414b,.\35 43c0a85-c0ea-44ef-aa89-ce463da0b459,.\35 65ca35f-050c-4a29-b8f1-ea43bccce598,.\35 dffd153-e66e-445a-9fca-a20dd569535f,.\39 ef98eb4-4c64-4d62-b8e1-55f9fb5e432f,.b1cd64bd-4b4a-450a-a508-bc792e9b5165,.bbba702c-e80d-48c3-9b45-894d0d8db20c,.cda0f48e-c922-46d7-82c9-b1b451594c16,.eda921ed-c5d1-4f19-83b9-df78dbfabd5c,.f1115caf-d8e1-461b-865f-92b9747f7573{stroke-miterlimit:10;}.\31 f2d4ec0-fcee-415c-bf14-b4de4b70d78c{fill:#f47721;}.\35 dffd153-e66e-445a-9fca-a20dd569535f{fill:#f15a29;}.f1115caf-d8e1-461b-865f-92b9747f7573{fill:url(#481a0001-5e07-4276-a026-c4b780a99aa6);}.b1cd64bd-4b4a-450a-a508-bc792e9b5165{fill:url(#f0f57d27-656f-41c9-9f81-c48f0f570f87);}.\35 65ca35f-050c-4a29-b8f1-ea43bccce598{fill:url(#361aef77-0ba5-4d4e-86ff-ff2f6de492d4);}.cda0f48e-c922-46d7-82c9-b1b451594c16{fill:#fff;}.\33 a77552d-3a2d-4b5b-91d3-0d5551e4414b{fill:none;stroke:#eb7224;stroke-width:2px;}.\33 4840668-5153-4c28-b78f-b6b455011391{fill:#f58229;stroke-width:0.5px;}.\31 5227a3b-fc69-41f9-a5af-61d5c6a6efa2{fill:#f47920;}.eda921ed-c5d1-4f19-83b9-df78dbfabd5c{fill:url(#fd49493b-d624-4335-95b1-c2b89d7765c6);}.bbba702c-e80d-48c3-9b45-894d0d8db20c{fill:url(#43d52e8d-a049-4cac-8bde-7c5c3c9866c6);}.\39 ef98eb4-4c64-4d62-b8e1-55f9fb5e432f{fill:url(#0a92c602-2313-4715-b6c1-cdf53d8b97e3);}</style><linearGradient id="481a0001-5e07-4276-a026-c4b780a99aa6" x1="82.2883" y1="185.5083" x2="320.5" y2="185.5083" gradientUnits="userSpaceOnUse"><stop offset="0" stop-color="#f5843a"/><stop offset="0.0642" stop-color="#f4832f"/><stop offset="0.169" stop-color="#f38224"/><stop offset="0.2809" stop-color="#f38220"/><stop offset="0.6685" stop-color="#f3903f"/><stop offset="0.8876" stop-color="#ed683c"/><stop offset="1" stop-color="#e93e3a"/></linearGradient><linearGradient id="f0f57d27-656f-41c9-9f81-c48f0f570f87" x1="42.4723" y1="101.5496" x2="273.9723" y2="101.5496" xlink:href="#481a0001-5e07-4276-a026-c4b780a99aa6"/><linearGradient id="361aef77-0ba5-4d4e-86ff-ff2f6de492d4" x1="42.4723" y1="37.8523" x2="293.4723" y2="37.8523" xlink:href="#481a0001-5e07-4276-a026-c4b780a99aa6"/><linearGradient id="fd49493b-d624-4335-95b1-c2b89d7765c6" x1="89.4634" y1="75.4322" x2="198.7967" y2="75.4322" xlink:href="#481a0001-5e07-4276-a026-c4b780a99aa6"/><linearGradient id="43d52e8d-a049-4cac-8bde-7c5c3c9866c6" x1="190.8056" y1="88.4593" x2="254.1389" y2="88.4593" xlink:href="#481a0001-5e07-4276-a026-c4b780a99aa6"/><linearGradient id="0a92c602-2313-4715-b6c1-cdf53d8b97e3" x1="257.562" y1="117.7898" x2="338.8916" y2="117.7898" xlink:href="#481a0001-5e07-4276-a026-c4b780a99aa6"/></defs><title>time</title><g id="0cea3dd8-15e8-4465-b0ca-5b9f05475d6c" data-name="Bottom"><path class="543c0a85-c0ea-44ef-aa89-ce463da0b459" d="M168.53,233.9445l-18.6954-4.5378c-10.6936-7.39-26.36-14.1633-44.4333-18.55s-35.1018-5.5489-47.9931-3.8837l-18.6955-4.5378-3.8186,15.7326a9.9669,9.9669,0,0,0-.5844,1.6635c-3.32,13.68,23.1246,31.8428,59.0669,40.5667s67.771,4.7059,71.0916-8.9746a9.952,9.952,0,0,0,.2432-1.7464Z" transform="translate(-33.5277 -13.9012)"/><ellipse class="1f2d4ec0-fcee-415c-bf14-b4de4b70d78c" cx="103.3816" cy="219.1755" rx="25.4899" ry="66.9688" transform="translate(-167.5222 254.0417) rotate(-76.357)"/></g><g id="466e5c97-0b1c-4d14-a3d4-9dd289fef60e" data-name="Axle"><path class="5dffd153-e66e-445a-9fca-a20dd569535f" d="M124.4079,209.0913l-36.2993-8.81L83.1864,220.56l.2569.0623a2.7094,2.7094,0,0,0-.2036.5229c-.9073,3.7377,6.4006,8.72,16.3225,11.1284s18.7008,1.33,19.608-2.4073a2.7081,2.7081,0,0,0,.0587-.558l.2569.0623Z" transform="translate(-33.5277 -13.9012)"/><ellipse id="7c9556e9-54ef-4abc-8ebf-31d407d0a219" data-name="&lt;Ellipse&gt;" class="5dffd153-e66e-445a-9fca-a20dd569535f" cx="106.3903" cy="204.142" rx="6.9643" ry="18.2972" transform="translate(-150.6139 245.4779) rotate(-76.357)"/></g><g id="14c3a67b-9331-47e9-bb20-b13a6a8b112e" data-name="String"><path class="f1115caf-d8e1-461b-865f-92b9747f7573" d="M217.7742,181.5034l-10.8353,4.0049-66.76,24.6758c-45.31,8.5921-52.0707-9.9033-52.0707-9.9033-8.8987,4.141-4.945,23.2192-4.945,23.2192,24.4568,16.674,36.0066,6.3661,36.0066,6.3661a98.8226,98.8226,0,0,0,21.0053-1.23v.0014l.0065-.0026c2.2179-.3791,4.3479-.8357,6.4026-1.3515h0a76.9765,76.9765,0,0,0,20.2238-8.1921l66.454-26.9185L320.5,158l-13-20Z" transform="translate(-33.5277 -13.9012)"/><polygon class="b1cd64bd-4b4a-450a-a508-bc792e9b5165" points="42.472 91.599 248.394 136.5 273.972 124.099 42.472 66.599 42.472 91.599"/><polygon class="565ca35f-050c-4a29-b8f1-ea43bccce598" points="293.472 30.099 280.972 0.599 42.472 66.599 76.722 75.106 293.472 30.099"/></g><g id="bf6dd2cb-90b1-431b-a83c-f80a6287f699" data-name="Top"><path class="543c0a85-c0ea-44ef-aa89-ce463da0b459" d="M177.6578,196.3363l-18.6955-4.5378c-10.6935-7.39-26.36-14.1633-44.4332-18.55S79.4273,167.7,66.5359,169.3648L47.8405,164.827,44.0219,180.56a9.9673,9.9673,0,0,0-.5845,1.6635c-3.32,13.6805,23.1247,31.8428,59.0669,40.5668s67.7711,4.7058,71.0916-8.9747a9.9508,9.9508,0,0,0,.2433-1.7464Z" transform="translate(-33.5277 -13.9012)"/><ellipse class="1f2d4ec0-fcee-415c-bf14-b4de4b70d78c" cx="112.5099" cy="181.5673" rx="25.4899" ry="66.9688" transform="translate(-124 234.1749) rotate(-76.357)"/></g><g id="a6955ab2-482f-4f1a-a49e-721a5dd6b3c0" data-name="Face"><ellipse class="cda0f48e-c922-46d7-82c9-b1b451594c16" cx="112.6481" cy="180.9979" rx="20.2148" ry="57.1526" transform="translate(-123.341 233.8741) rotate(-76.357)"/><g id="030498f0-c032-4a5f-9650-2274a5fe7351" data-name="Markings"><line class="3a77552d-3a2d-4b5b-91d3-0d5551e4414b" x1="26.4292" y1="152.3126" x2="40.7625" y2="155.9793"/><line class="3a77552d-3a2d-4b5b-91d3-0d5551e4414b" x1="76.6465" y1="176.5209" x2="74.2726" y2="184.2284"/><line class="3a77552d-3a2d-4b5b-91d3-0d5551e4414b" x1="119.0074" y1="175.9954" x2="133.3408" y2="179.6621"/><line class="3a77552d-3a2d-4b5b-91d3-0d5551e4414b" x1="85.3192" y1="148.3625" x2="83.5379" y2="154.146"/></g><polygon class="34840668-5153-4c28-b78f-b6b455011391" points="75.025 167.913 49.032 168.116 49.167 171.446 39.486 167.01 48.8 162.417 48.935 165.746 74.928 165.495 75.025 167.913"/><polygon class="34840668-5153-4c28-b78f-b6b455011391" points="74.968 166.489 48.975 166.72 49.11 170.05 39.429 165.625 48.743 161.022 48.878 164.351 74.871 164.071 74.968 166.489"/><g id="cb6cbd99-d7fd-4e5a-8af0-911c36552ed4" data-name="Hand"><polygon class="34840668-5153-4c28-b78f-b6b455011391" points="81.986 168.605 106.597 173.502 104.708 176.675 116.261 174.2 109.83 168.048 107.941 171.238 83.33 166.38 81.986 168.605"/><polygon class="34840668-5153-4c28-b78f-b6b455011391" points="82.778 167.295 107.389 172.169 105.5 175.346 117.053 172.857 110.621 166.709 108.733 169.902 84.122 165.068 82.778 167.295"/></g><g id="b6c9ff1c-2a6f-4023-802e-364571417c56" data-name="Axle"><path class="15227a3b-fc69-41f9-a5af-61d5c6a6efa2" d="M121.4583,176.89l-13.7016-3.3257-1.8579,7.6546.0969.0235a1.027,1.027,0,0,0-.0768.1974c-.3425,1.4109,2.416,3.2915,6.1611,4.2006s7.0589.5022,7.4013-.9087a1.0245,1.0245,0,0,0,.0222-.2106l.0969.0235Z" transform="translate(-33.5277 -13.9012)"/><ellipse id="923e74be-2f8e-413b-befb-f61b46e97622" data-name="&lt;Ellipse&gt;" class="15227a3b-fc69-41f9-a5af-61d5c6a6efa2" cx="114.6574" cy="175.0217" rx="2.6288" ry="6.9065" transform="translate(-115.9982 231.2601) rotate(-76.357)"/></g></g><g id="6a7a28e6-6dd9-4194-9297-8695b701f1d0" data-name="Lip"><polygon class="eda921ed-c5d1-4f19-83b9-df78dbfabd5c" points="181.463 56.766 89.463 75.106 181.463 94.099 198.797 90.099 130.121 78.766 194.13 66.599 181.463 56.766"/><polygon class="bbba702c-e80d-48c3-9b45-894d0d8db20c" points="236.139 78.734 190.806 95.401 216.139 98.185 254.139 85.401 236.139 78.734"/><path class="9ef98eb4-4c64-4d62-b8e1-55f9fb5e432f" d="M298.2268,103.4667l-2.1149.86-38.55,15.6812,29.9128,3.3084,10.752-5.5139,21.9176,14.3361,18.7472-8.8222S300.3418,102.6064,298.2268,103.4667Zm20.8149,23.71L294.2293,109.532l6.6166-1.8813,23.71,15.1146Z" transform="translate(-33.5277 -13.9012)"/></g></svg>