<svg id="d614c54b-b12c-4d8b-8895-55cfbe37c90f" data-name="Layer 1" xmlns="http://www.w3.org/2000/svg" xmlns:xlink="http://www.w3.org/1999/xlink" viewBox="0 0 400 442"><defs><style>.\33 a972441-05bd-49f5-8fd5-ee20fb3614da,.ccaa8a78-3f1c-4782-b2ed-dd4a2e07472d,.fb1b27af-78f6-4c56-bf66-75502b762b16{fill:none;}.\34 c1bef8c-1b48-496a-9cca-08a7c7cfe459{clip-path:url(#784c6e93-c5b1-4e99-b662-ad41f5838bd4);}.d632025a-504b-4bbe-9031-70c33f25006e{stroke:#fff;fill:url(#85c1ff12-3b85-477b-9e69-96a05be48c0e);}.\33 a972441-05bd-49f5-8fd5-ee20fb3614da,.\35 c474ecb-5b12-4a21-a354-741aa786e5f9,.d632025a-504b-4bbe-9031-70c33f25006e,.d7b8a2f2-9852-46cd-acd0-a8938f476873,.edf5dc8a-383f-414a-94b7-dfe595d8fa2b,.f0695c2f-d17e-4836-9ac5-d7225c6e9e8e,.fb1b27af-78f6-4c56-bf66-75502b762b16{stroke-miterlimit:10;}.\33 a972441-05bd-49f5-8fd5-ee20fb3614da,.d632025a-504b-4bbe-9031-70c33f25006e,.d7b8a2f2-9852-46cd-acd0-a8938f476873,.edf5dc8a-383f-414a-94b7-dfe595d8fa2b,.f0695c2f-d17e-4836-9ac5-d7225c6e9e8e,.fb1b27af-78f6-4c56-bf66-75502b762b16{stroke-width:2px;}.dfb22eb8-671d-4ab9-bd96-f29a7a862225{fill:#236d3b;}.\34 50f4a47-8eb0-4d8d-9cd0-165bc44947aa,.dfb22eb8-671d-4ab9-bd96-f29a7a862225{opacity:0.53;}.edf5dc8a-383f-414a-94b7-dfe595d8fa2b{fill:#0a6b37;stroke:#1f562a;}.\33 a972441-05bd-49f5-8fd5-ee20fb3614da{stroke:#069547;}.f0695c2f-d17e-4836-9ac5-d7225c6e9e8e{fill:#058040;stroke:#029447;}.fb1b27af-78f6-4c56-bf66-75502b762b16{stroke:#41b656;}.\39 fcf74bd-5eb9-4bd3-b640-8250b3471e80{fill:#d3e386;}.\34 50f4a47-8eb0-4d8d-9cd0-165bc44947aa{fill:#fbfcf3;}.d7b8a2f2-9852-46cd-acd0-a8938f476873{fill:#00a651;stroke:#0a6b37;}.eed5a33d-e46f-489a-bd57-764efe98cb63{fill:#231f20;}.b8f7bf23-db79-4aad-a2fb-a99df4e3612f{fill:#fff;}.\35 c474ecb-5b12-4a21-a354-741aa786e5f9{fill:#dde56c;stroke:#859539;stroke-width:0.75px;}.\36 4a7e9b7-addf-4acf-bfff-de6b3c19180b{fill:#9aa24d;}</style><clipPath id="784c6e93-c5b1-4e99-b662-ad41f5838bd4"><path class="ccaa8a78-3f1c-4782-b2ed-dd4a2e07472d" d="M172.5754,34.01s-52.8943-13.084-79.5354,0S74.3912,63.1521,74.3912,63.1521,25.2881,87.1768,27.7071,102.8194s-8.0326,26.3478,9.7964,68.5736S14.4449,277.255,90.22,293.3127s25.84,72.8877,98.9326,45.2,112.0611,29.1771,139.7634,3.5683,67.9-121.5463,26.4362-127.59,13.0188-38.3395,13.0188-38.3395,12.8026-90.9938-9.9448-81.4781-.3445-67.2045-38.9043-52.931S245.3042,12.6,210.8757,23.3052,172.5754,34.01,172.5754,34.01Z"/></clipPath><linearGradient id="85c1ff12-3b85-477b-9e69-96a05be48c0e" x1="198.7186" y1="348.3744" x2="201.0979" y2="-33.1151" gradientUnits="userSpaceOnUse"><stop offset="0" stop-color="#55985b"/><stop offset="1" stop-color="#82c678"/></linearGradient></defs><title>window</title><g class="4c1bef8c-1b48-496a-9cca-08a7c7cfe459"><rect class="d632025a-504b-4bbe-9031-70c33f25006e" x="24.2598" y="-34.8349" width="351.2529" height="391.9821"/><polygon class="dfb22eb8-671d-4ab9-bd96-f29a7a862225" points="245.494 371.722 94.435 183.401 262.483 57.259 413.542 245.58 245.494 371.722"/><polygon class="dfb22eb8-671d-4ab9-bd96-f29a7a862225" points="53.125 301.781 -43.825 213.382 32.466 135.083 129.416 223.482 53.125 301.781"/><rect class="edf5dc8a-383f-414a-94b7-dfe595d8fa2b" x="97.2059" y="204.1032" width="67.9785" height="54.0222"/><rect class="3a972441-05bd-49f5-8fd5-ee20fb3614da" x="102.6712" y="208.4465" width="57.0479" height="45.3357"/><rect class="edf5dc8a-383f-414a-94b7-dfe595d8fa2b" x="27.7071" y="204.1032" width="67.9785" height="54.0222"/><rect class="3a972441-05bd-49f5-8fd5-ee20fb3614da" x="33.1724" y="208.4465" width="57.0479" height="45.3357"/><rect class="edf5dc8a-383f-414a-94b7-dfe595d8fa2b" x="305.8581" y="204.1032" width="67.9785" height="54.0222"/><rect class="3a972441-05bd-49f5-8fd5-ee20fb3614da" x="311.3234" y="208.4465" width="57.0479" height="45.3357"/><rect class="edf5dc8a-383f-414a-94b7-dfe595d8fa2b" x="167.1101" y="204.1032" width="67.9785" height="54.0222"/><rect class="3a972441-05bd-49f5-8fd5-ee20fb3614da" x="172.5754" y="208.4465" width="57.0479" height="45.3357"/><rect class="edf5dc8a-383f-414a-94b7-dfe595d8fa2b" x="236.2317" y="204.1032" width="67.9785" height="54.0222"/><rect class="3a972441-05bd-49f5-8fd5-ee20fb3614da" x="241.6971" y="208.4465" width="57.0479" height="45.3357"/><polygon class="f0695c2f-d17e-4836-9ac5-d7225c6e9e8e" points="363.14 330.556 319.667 372.61 276.194 330.556 319.667 288.502 363.14 330.556"/><polygon class="fb1b27af-78f6-4c56-bf66-75502b762b16" points="356.256 330.696 319.522 366.232 282.788 330.696 319.522 295.161 356.256 330.696"/><polygon class="f0695c2f-d17e-4836-9ac5-d7225c6e9e8e" points="273.325 244.942 229.852 286.996 186.379 244.942 229.852 202.889 273.325 244.942"/><polygon class="fb1b27af-78f6-4c56-bf66-75502b762b16" points="266.441 245.083 229.707 280.618 192.973 245.083 229.707 209.547 266.441 245.083"/><polygon class="f0695c2f-d17e-4836-9ac5-d7225c6e9e8e" points="186.386 329.044 142.913 371.097 99.441 329.044 142.913 286.99 186.386 329.044"/><polygon class="fb1b27af-78f6-4c56-bf66-75502b762b16" points="179.503 329.184 142.769 364.719 106.034 329.184 142.769 293.648 179.503 329.184"/><polygon class="f0695c2f-d17e-4836-9ac5-d7225c6e9e8e" points="141.495 201.79 98.022 243.844 54.55 201.79 98.022 159.737 141.495 201.79"/><polygon class="fb1b27af-78f6-4c56-bf66-75502b762b16" points="134.612 201.931 97.878 237.466 61.143 201.931 97.878 166.395 134.612 201.931"/><polygon class="f0695c2f-d17e-4836-9ac5-d7225c6e9e8e" points="407.407 287.733 363.935 329.787 320.462 287.733 363.935 245.679 407.407 287.733"/><polygon class="fb1b27af-78f6-4c56-bf66-75502b762b16" points="400.524 287.873 363.79 323.409 327.055 287.873 363.79 252.338 400.524 287.873"/><polygon class="f0695c2f-d17e-4836-9ac5-d7225c6e9e8e" points="363.75 244.32 320.277 286.374 276.805 244.32 320.277 202.266 363.75 244.32"/><polygon class="fb1b27af-78f6-4c56-bf66-75502b762b16" points="356.867 244.46 320.133 279.996 283.398 244.46 320.133 208.925 356.867 244.46"/><polygon class="f0695c2f-d17e-4836-9ac5-d7225c6e9e8e" points="185.604 244.18 142.132 286.234 98.659 244.18 142.132 202.126 185.604 244.18"/><polygon class="fb1b27af-78f6-4c56-bf66-75502b762b16" points="178.721 244.32 141.987 279.855 105.253 244.32 141.987 208.785 178.721 244.32"/><polygon class="f0695c2f-d17e-4836-9ac5-d7225c6e9e8e" points="141.495 286.85 98.022 328.903 54.55 286.85 98.022 244.796 141.495 286.85"/><polygon class="fb1b27af-78f6-4c56-bf66-75502b762b16" points="134.612 286.99 97.878 322.525 61.143 286.99 97.878 251.454 134.612 286.99"/><polygon class="f0695c2f-d17e-4836-9ac5-d7225c6e9e8e" points="229.859 286.99 186.386 329.044 142.913 286.99 186.386 244.936 229.859 286.99"/><polygon class="fb1b27af-78f6-4c56-bf66-75502b762b16" points="222.975 287.13 186.241 322.665 149.507 287.13 186.241 251.594 222.975 287.13"/><polygon class="f0695c2f-d17e-4836-9ac5-d7225c6e9e8e" points="274.75 330.416 231.277 372.47 187.804 330.416 231.277 288.362 274.75 330.416"/><polygon class="fb1b27af-78f6-4c56-bf66-75502b762b16" points="267.866 330.556 231.132 366.091 194.398 330.556 231.132 295.02 267.866 330.556"/><polygon class="f0695c2f-d17e-4836-9ac5-d7225c6e9e8e" points="318.872 287.733 275.4 329.787 231.927 287.733 275.4 245.679 318.872 287.733"/><polygon class="fb1b27af-78f6-4c56-bf66-75502b762b16" points="311.989 287.873 275.255 323.409 238.52 287.873 275.255 252.338 311.989 287.873"/><ellipse class="9fcf74bd-5eb9-4bd3-b640-8250b3471e80" cx="119.5594" cy="100.5396" rx="14.262" ry="13.7965"/><rect class="450f4a47-8eb0-4d8d-9cd0-165bc44947aa" x="93.04" y="58.5925" width="70.0866" height="4.5596"/><rect class="450f4a47-8eb0-4d8d-9cd0-165bc44947aa" x="189.1529" y="77.6239" width="70.0866" height="6.542"/><rect class="450f4a47-8eb0-4d8d-9cd0-165bc44947aa" x="333.328" y="79.6063" width="70.0866" height="4.5596"/><rect class="450f4a47-8eb0-4d8d-9cd0-165bc44947aa" x="218.9454" y="60.8723" width="70.0866" height="4.5596"/><rect class="450f4a47-8eb0-4d8d-9cd0-165bc44947aa" x="107.7252" y="126.59" width="70.0866" height="4.5596"/><rect class="450f4a47-8eb0-4d8d-9cd0-165bc44947aa" x="273.7897" y="100.5396" width="70.0866" height="6.8208"/><rect class="450f4a47-8eb0-4d8d-9cd0-165bc44947aa" x="24.2598" y="100.5396" width="70.0866" height="4.5596"/></g><rect class="d7b8a2f2-9852-46cd-acd0-a8938f476873" x="63" y="392" width="280.6667" height="4.3333"/><circle class="eed5a33d-e46f-489a-bd57-764efe98cb63" cx="297.1493" cy="251.6863" r="16.5218"/><path class="eed5a33d-e46f-489a-bd57-764efe98cb63" d="M298.1448,266.0643s13.4071,63.1113,4.7559,71.7121-8.116-4.9271-8.116-4.9271,1.7322-67.0374-.7154-68.1756S298.1448,266.0643,298.1448,266.0643Z"/><path class="eed5a33d-e46f-489a-bd57-764efe98cb63" d="M294.7214,266.0959s-9.1262,32.4164-7.8715,44.1713,5.8563,1.6969,5.8563,1.6969,2.3534-37.58,2.9985-40.9554S294.7214,266.0959,294.7214,266.0959Z"/><path class="eed5a33d-e46f-489a-bd57-764efe98cb63" d="M297.1493,267.07s15.6534,47.2381,13.14,52.89,7.9146,1.0191,7.9146,1.0191-11.2014-49.8518-16.1279-51.88Z"/><path class="eed5a33d-e46f-489a-bd57-764efe98cb63" d="M305.0149,330.1121s20.3184,57.47,15.1518,60.5547-8.6667,1.3711-8.6667,1.3711l-9.3333-54.5,2-7.4256Z"/><path class="eed5a33d-e46f-489a-bd57-764efe98cb63" d="M295.6955,334.5372s-11.4635,55.3273-8.4635,57.1606a6.0737,6.0737,0,0,0,6,0s5.5-48.6666,6.3334-50.3333S295.6955,334.5372,295.6955,334.5372Z"/><circle class="b8f7bf23-db79-4aad-a2fb-a99df4e3612f" cx="293.5198" cy="245" r="0.9005"/><circle class="b8f7bf23-db79-4aad-a2fb-a99df4e3612f" cx="289.4372" cy="241.8869" r="0.9048"/><rect class="5c474ecb-5b12-4a21-a354-741aa786e5f9" x="163.8249" y="354.3926" width="82.1751" height="22.4407"/><rect class="64a7e9b7-addf-4acf-bfff-de6b3c19180b" x="167.8333" y="359" width="72.8333" height="1.3333"/><rect class="64a7e9b7-addf-4acf-bfff-de6b3c19180b" x="167.8333" y="363.5249" width="73.6667" height="2.0881"/><rect class="64a7e9b7-addf-4acf-bfff-de6b3c19180b" x="166.5" y="369.8333" width="76.6667" height="2.6667"/></svg>