<svg id="8f8b2dfb-e650-461a-81e9-2b62048713f8" data-name="Main" xmlns="http://www.w3.org/2000/svg" viewBox="0 0 260.5407 249.4444"><defs><style>.\38 ac68497-872c-410c-8b1a-3aae18149e8d{fill:#a6dde5;}.\39 a600914-6489-4f0b-9042-9676afd2ad45{fill:#9acf89;}.affadeb5-9e55-4e5e-9f80-0a935096b2ca{fill:#3852a4;}.\35 c1613a3-e5a1-49f6-9896-dea9e842c31f{fill:#fff;}.f3163107-3c45-45ad-9390-51025da33905{fill:#1985c7;}.\38 f2224fc-29dc-4c60-808d-6be53f89b4e1{fill:#4e53a3;}</style></defs><title>world</title><g id="45d1db9f-1074-4ad4-a082-969fcfe0ec28" data-name="Table"><ellipse class="8ac68497-872c-410c-8b1a-3aae18149e8d" cx="125.9145" cy="214.8388" rx="125.9145" ry="34.6056"/><rect class="8ac68497-872c-410c-8b1a-3aae18149e8d" x="0.0927" y="177.8778" width="251.7362" height="36.9609"/><ellipse class="8ac68497-872c-410c-8b1a-3aae18149e8d" cx="125.9145" cy="176.6113" rx="125.9145" ry="34.6056"/><path class="9a600914-6489-4f0b-9042-9676afd2ad45" d="M61.18,223.3345s47.96,13.4185,108.179,10.5809,35.9694-7.8375,34.2194-7.8375-12.25-12.5-20-9.5a44.8036,44.8036,0,0,0-13.5,8.6333s-35.25-14.6333-43.25-12.6333-17,15.75-25,12.75-39.75-11-42-8.5S61.18,223.3345,61.18,223.3345Z" transform="translate(-26.9141 -22.9946)"/><path class="9a600914-6489-4f0b-9042-9676afd2ad45" d="M204.8133,168.0779s3.5153,32.056-6.4847,31.528c0,0,7,17.222,16.25,11.722s4.75,8,4.75,8,47.25-5.25,42.5-8.5,7.75-11.222,7.75-11.222l2.0337-11.5009S241.9928,170.2858,204.8133,168.0779Z" transform="translate(-26.9141 -22.9946)"/><path class="9a600914-6489-4f0b-9042-9676afd2ad45" d="M162.5786,165s-62.7607.5147-75.2553,5.0461-23.7447,13.0315-22.2447,13.7815,23.75.5,17.5,4.5,6.5,11.278,6.5,11.278,27.75-15.528,20.5-18.778,18.25-8.25,16-.75,27.25,13.25,27.25,13.25-1,6.25,5.25,7.5,37.75-24.25,37.75-24.25S169.5826,164.904,162.5786,165Z" transform="translate(-26.9141 -22.9946)"/><path class="9a600914-6489-4f0b-9042-9676afd2ad45" d="M61.18,223.3345S67.6667,245.5,81,244.8333s98.3333,2.3629,98.6667.0148,36.4859-13.2593,30.1989-16.0148l-6.287-2.7554Z" transform="translate(-26.9141 -22.9946)"/><path class="9a600914-6489-4f0b-9042-9676afd2ad45" d="M219.3286,219.3279S254.59,256.5,266.6667,239.5s12.0764-27.11,12.0764-27.11l-16.9145-1.5622Z" transform="translate(-26.9141 -22.9946)"/><path class="9a600914-6489-4f0b-9042-9676afd2ad45" d="M27.0068,217.1667,26.9141,241.5s9.6385,16.2136,41.42,21.9906S67,253.5,67,253.5s-10.2983-26.8874-12.4825-26.11S48,212.39,48,212.39s-20.9977-8.9518-20.9932-11.5177S27.0068,217.1667,27.0068,217.1667Z" transform="translate(-26.9141 -22.9946)"/><path class="9a600914-6489-4f0b-9042-9676afd2ad45" d="M147.6648,245.6537s35.1059,26.1636,22.3836,26.4626,13.5742-.57,21.31-1.3294,9.779-35.4114,9.779-35.4114Z" transform="translate(-26.9141 -22.9946)"/></g><g id="f17a2e60-704b-4cd4-95a2-ce3bbe06ba4f" data-name="Pointer"><circle class="affadeb5-9e55-4e5e-9f80-0a935096b2ca" cx="201.9978" cy="35.4167" r="35.4167"/><path class="affadeb5-9e55-4e5e-9f80-0a935096b2ca" d="M220.9019,92.9089s28.0975,75.4684,15.5121,80.8187l18.1712,5.4961s1.0433-78.8092-4.1067-92.7275Z" transform="translate(-26.9141 -22.9946)"/><path class="affadeb5-9e55-4e5e-9f80-0a935096b2ca" d="M245.012,87.5028s31.35,54.0817,13.85,62.0817c0,0-50.5,23.7916-39.5,30.6458a45.0671,45.0671,0,0,0,21.6219,6.8542s48.8781-22.5,46.3781-35S270.1619,77.9211,245.012,87.5028Z" transform="translate(-26.9141 -22.9946)"/><path class="affadeb5-9e55-4e5e-9f80-0a935096b2ca" d="M220.9019,92.9089s-60.0733,96.1822-49.0733,94.1756,57.5536-69.7,54.54-78.52S220.9019,92.9089,220.9019,92.9089Z" transform="translate(-26.9141 -22.9946)"/><circle class="5c1613a3-e5a1-49f6-9896-dea9e842c31f" cx="183.9878" cy="46.5233" r="2.565"/><circle class="5c1613a3-e5a1-49f6-9896-dea9e842c31f" cx="193.9878" cy="48.1483" r="2.565"/></g><g id="df05ed11-2605-484e-b8eb-6c9f9002e64c" data-name="Short"><circle class="f3163107-3c45-45ad-9390-51025da33905" cx="58.754" cy="111.5833" r="25.9938"/><path class="f3163107-3c45-45ad-9390-51025da33905" d="M81.8286,160.5717c-1,6.0062-3.9543,11.1664,0,10.453s23.4414-3.4681,23.4414-3.4681L98.5188,157.17Z" transform="translate(-26.9141 -22.9946)"/><path class="f3163107-3c45-45ad-9390-51025da33905" d="M81.8286,160.5717s-57.5,22.5062-31,29.5062a408.77,408.77,0,0,0,45.5,9.528s6.94-16.028-3.78-16.528-27.72-2.9891-27.72-2.9891l17-9.0641Z" transform="translate(-26.9141 -22.9946)"/><path class="f3163107-3c45-45ad-9390-51025da33905" d="M98.5188,157.17s68.81,11.9083,54.31,20.4083-27.5,18-30.5,18.5-14.5-5.5-5.5-11,15-5.8542,15-5.8542L105.27,167.5566Z" transform="translate(-26.9141 -22.9946)"/><circle class="5c1613a3-e5a1-49f6-9896-dea9e842c31f" cx="64.7327" cy="107.3004" r="2.565"/><circle class="5c1613a3-e5a1-49f6-9896-dea9e842c31f" cx="73.4145" cy="104.7353" r="2.565"/></g><g id="e2830725-7538-4842-be7a-1fc23a10d58b" data-name="Stand"><circle class="8f2224fc-29dc-4c60-808d-6be53f89b4e1" cx="129.0989" cy="35.9743" r="27.391"/><path class="8f2224fc-29dc-4c60-808d-6be53f89b4e1" d="M167.5409,166.34s-17.0105-1.2762-21.4569.0752,0-87.85,0-87.85,17.1737-1.39,19.7476-2.8058S167.5409,166.34,167.5409,166.34Z" transform="translate(-26.9141 -22.9946)"/><path class="8f2224fc-29dc-4c60-808d-6be53f89b4e1" d="M163.9389,79.0976s32.5347,58.3116,20.4859,69.5393-12.0489-8.685-12.0489-8.685l-8.437-41.0474Z" transform="translate(-26.9141 -22.9946)"/><path class="8f2224fc-29dc-4c60-808d-6be53f89b4e1" d="M147.4473,84.4191s-30.47,59.7478-17.2662,69.0535c14.6,10.29,12.4174-29.9333,12.4174-29.9333l3.9794-18.6994.578-19.8834Z" transform="translate(-26.9141 -22.9946)"/><circle class="5c1613a3-e5a1-49f6-9896-dea9e842c31f" cx="124.3211" cy="45.5833" r="2.565"/><circle class="5c1613a3-e5a1-49f6-9896-dea9e842c31f" cx="133.0294" cy="45.5833" r="2.565"/></g></svg>