<svg id="07d7ae04-509b-458a-8934-377dc4346cfc" data-name="art" xmlns="http://www.w3.org/2000/svg" xmlns:xlink="http://www.w3.org/1999/xlink" viewBox="0 0 400 541"><defs><style>.\31 1649320-3135-4f53-b1ae-6c920fbb8a45,.ab43a0fe-b340-43c2-b9cc-a5c897cef76a{fill:none;}.b8826087-877d-4c1e-8d8c-66cff15e0f0d{clip-path:url(#9e775dda-a9de-43f7-90a5-3dd604d89680);}.e6fc1220-9a3a-40c0-94b5-959a2c08dab8{clip-path:url(#6cbcd1ef-619c-4a9b-9ba7-05bcade87f58);}.\33 15dd7f8-c880-46ad-8b4d-c021fd9d0908{fill:url(#e65195f9-cea9-4155-a847-dcdad8ea2b9e);}.\31 e84ecd4-9569-4680-91a8-a2e308b20387,.f4b31200-1530-476b-94cf-09c2c9b3aa12{fill:#644353;}.f4b31200-1530-476b-94cf-09c2c9b3aa12{opacity:0.33;}.\30 e850188-534e-41af-b3c9-d0bf8c835b2c,.\32 f038cd0-387a-4a92-802c-736b110778c0,.\34 374b055-3b46-4f8e-b9b9-75d6226fac84,.\37 7626299-e5bf-41e3-8e7b-b35864e3f30f,.b1af5385-dfd3-4439-a2e0-2c9c58aae22f,.b72fbbaf-f564-4150-bc98-8539f9b959d2,.de802d95-06bd-4539-b6b6-dde6d369768f,.f96c5365-780c-4008-8288-06fda4b7537a{fill:#231f20;}.\38 e84d08d-10ac-48d2-8159-be21881e7494,.b1af5385-dfd3-4439-a2e0-2c9c58aae22f,.cdef2c3a-223d-4546-ac06-66660ca03c37{stroke:#231f20;}.\30 e850188-534e-41af-b3c9-d0bf8c835b2c,.\31 1649320-3135-4f53-b1ae-6c920fbb8a45,.\31 46ca75d-e37d-415c-9c20-1d694205119e,.\32 f038cd0-387a-4a92-802c-736b110778c0,.\37 7626299-e5bf-41e3-8e7b-b35864e3f30f,.\38 e84d08d-10ac-48d2-8159-be21881e7494,.b1af5385-dfd3-4439-a2e0-2c9c58aae22f,.b72fbbaf-f564-4150-bc98-8539f9b959d2,.cdef2c3a-223d-4546-ac06-66660ca03c37,.de802d95-06bd-4539-b6b6-dde6d369768f,.f96c5365-780c-4008-8288-06fda4b7537a{stroke-miterlimit:10;}.\39 03c73c8-2df1-433d-a5c5-5334a80dd646{fill:#273a92;opacity:0.13;}.f22d3277-3431-4b1a-ad6c-aab6b9fc5018{fill:url(#b54ad41a-15a0-47b5-b5ee-bc4bba7287fa);}.\38 e84d08d-10ac-48d2-8159-be21881e7494{fill:url(#d88fe20b-edaf-40ba-aa49-ae7f6b0879fc);}.cdef2c3a-223d-4546-ac06-66660ca03c37{fill:url(#1e80717a-6390-48bc-b2c7-4af8289fd643);}.b97d6dd2-0bb5-4169-b92e-dd886842afd8{fill:#f2ec63;}.\31 1649320-3135-4f53-b1ae-6c920fbb8a45,.\31 46ca75d-e37d-415c-9c20-1d694205119e{stroke:#fff;}.\30 48f02c4-3d60-4b08-81a7-c2ef27e86c3a,.\31 46ca75d-e37d-415c-9c20-1d694205119e,.\38 b9f73cb-6c47-4693-83e5-431bbb242e69{fill:#fff;}.\36 651cf09-79e6-4af5-a577-4a81b82691e0,.\38 b9f73cb-6c47-4693-83e5-431bbb242e69{opacity:0.21;}.a1a8e87c-8e4d-4cc0-8dc0-4b8ff866a1b2{opacity:0.19;fill:url(#16e8e26f-8295-4aff-b1ee-8401ea7ebfe2);}.\37 7626299-e5bf-41e3-8e7b-b35864e3f30f{stroke:#c99fc9;}.\30 e850188-534e-41af-b3c9-d0bf8c835b2c,.\32 f038cd0-387a-4a92-802c-736b110778c0,.\37 7626299-e5bf-41e3-8e7b-b35864e3f30f,.b72fbbaf-f564-4150-bc98-8539f9b959d2,.de802d95-06bd-4539-b6b6-dde6d369768f,.f96c5365-780c-4008-8288-06fda4b7537a{stroke-width:0.25px;}.f96c5365-780c-4008-8288-06fda4b7537a{stroke:#d7aed1;}.\32 f038cd0-387a-4a92-802c-736b110778c0{stroke:#bc91c2;}.b72fbbaf-f564-4150-bc98-8539f9b959d2{stroke:#cac1e0;}.de802d95-06bd-4539-b6b6-dde6d369768f{stroke:#c3a4ce;}.\30 e850188-534e-41af-b3c9-d0bf8c835b2c{stroke:#c5bcdd;}.\35 4a06617-d8f6-464f-a50f-4307f53740ec{font-size:18px;fill:#eaa6ca;font-family:Arial-BoldMT, Arial;font-weight:700;letter-spacing:-0.0181em;}</style><clipPath id="9e775dda-a9de-43f7-90a5-3dd604d89680"><rect class="ab43a0fe-b340-43c2-b9cc-a5c897cef76a" x="-0.3333" width="400" height="543.3333"/></clipPath><clipPath id="6cbcd1ef-619c-4a9b-9ba7-05bcade87f58"><rect class="ab43a0fe-b340-43c2-b9cc-a5c897cef76a" x="-25.3811" y="118.9989" width="461.7158" height="307.043" transform="translate(252.8838 -65.4747) rotate(45)"/></clipPath><linearGradient id="e65195f9-cea9-4155-a847-dcdad8ea2b9e" x1="196.6796" y1="-101.9916" x2="202.6796" y2="599.0084" gradientUnits="userSpaceOnUse"><stop offset="0" stop-color="#2a0029"/><stop offset="0.8641" stop-color="#fbf071"/><stop offset="1" stop-color="#1d0a3e"/></linearGradient><linearGradient id="b54ad41a-15a0-47b5-b5ee-bc4bba7287fa" x1="199.1635" y1="428.3119" x2="200.1635" y2="591.3119" gradientUnits="userSpaceOnUse"><stop offset="0.1897" stop-color="#fff" stop-opacity="0"/><stop offset="1" stop-color="#fff" stop-opacity="0.2"/></linearGradient><linearGradient id="d88fe20b-edaf-40ba-aa49-ae7f6b0879fc" x1="275.4792" y1="384.6667" x2="275.4792" y2="324.6667" gradientUnits="userSpaceOnUse"><stop offset="0" stop-color="#c799c6"/><stop offset="0.8641" stop-color="#fbf071"/><stop offset="1" stop-color="#1d0a3e"/></linearGradient><linearGradient id="1e80717a-6390-48bc-b2c7-4af8289fd643" x1="345.0763" y1="409.3661" x2="343.7429" y2="344.6995" xlink:href="#d88fe20b-edaf-40ba-aa49-ae7f6b0879fc"/><radialGradient id="16e8e26f-8295-4aff-b1ee-8401ea7ebfe2" cx="168.2144" cy="-33.3181" r="22" gradientTransform="translate(-11.2987 44.9145)" gradientUnits="userSpaceOnUse"><stop offset="0.2256" stop-color="#fff"/><stop offset="0.4077" stop-color="#fffef5"/><stop offset="0.5359" stop-color="#fbf071"/><stop offset="0.8231" stop-color="#4e1954"/><stop offset="1" stop-color="#220e29"/></radialGradient></defs><title>calm</title><g class="b8826087-877d-4c1e-8d8c-66cff15e0f0d"><g class="e6fc1220-9a3a-40c0-94b5-959a2c08dab8"><g id="bc9c4524-8471-4e48-92f8-c1540e57300e" data-name="sky"><rect class="315dd7f8-c880-46ad-8b4d-c021fd9d0908" x="-0.3333" y="-103" width="400" height="700"/></g><path class="f4b31200-1530-476b-94cf-09c2c9b3aa12" d="M-4.4752,61.3163C28.0252,19.904,84.5,9.1752,126.8347,31.1574c29.43,15.2813,28.1,33.9466,57.949,57.6566,72.9069,57.9117,125.8909-17.6575,182.4777,31.0459,23.3946,20.1354,37.79,72.8542,66.58,178.2919,32.25,118.1085,48.3747,177.1627,33.29,211.999-22.4914,51.94-90.2034,42.8582-186.1765,28.3847C135.9169,516.6628,63.3981,505.7264,15.8686,427.6575-45.9878,326.0561-64.9267,138.3441-4.4752,61.3163Z"/><polygon id="b61d833e-9734-4a4c-9c3c-090984a5c04e" data-name="ground" class="b1af5385-dfd3-4439-a2e0-2c9c58aae22f" points="399.667 419 399.667 597 -0.333 597 -0.333 387 190.667 387 190.667 419 399.667 419"/><path class="903c73c8-2df1-433d-a5c5-5334a80dd646" d="M-189.8338,647.3689c9.0522,118.3265,173.2107,253.304,277.7,139.8859C149.9826,719.83,167.0857,590.5912,220.64,603.7c50.9466,12.47,59.926,135.4155,126.467,211.4123,81.4388,93.0118,193.4691,52.1633,208.4144-58.0508C571.0113,642.8325,485.0342,433.2949,407.3333,330,163.31,5.5968-204.4713,456.0316-189.8338,647.3689Z"/><rect id="02d211e5-6fdc-4a59-be8d-b956c62fb862" data-name="ground gradient" class="f22d3277-3431-4b1a-ad6c-aab6b9fc5018" x="-0.3333" y="421.3333" width="400" height="178"/><path id="79399dac-c46e-4ff5-a9c1-95d29a490f55" data-name="sign" class="4374b055-3b46-4f8e-b9b9-75d6226fac84" d="M74.8567,302.33a13.7664,13.7664,0,0,1-11.52,13.58V387h-4.5V315.91a13.7642,13.7642,0,0,1,0-27.16V281h4.5v7.75A13.7743,13.7743,0,0,1,74.8567,302.33Z"/><polygon id="2cc884ed-8689-4556-b50c-9ec87360c145" data-name="bench" class="b1af5385-dfd3-4439-a2e0-2c9c58aae22f" points="157.997 369.33 157.997 376 152.337 376 152.337 387 145.667 387 145.667 376 87.667 376 87.667 387 81.337 387 81.337 376 76.337 376 76.337 369.33 144.337 369.33 144.337 363 89.997 363 89.997 368 87.667 368 87.667 363 81.337 363 81.337 347 152.337 347 152.337 363 146.997 363 146.997 369.33 157.997 369.33"/><g id="d683f903-5027-480b-a60b-da18c6e52fdd" data-name="shop"><rect class="4374b055-3b46-4f8e-b9b9-75d6226fac84" x="233.6667" y="292.6667" width="148.5" height="126.3333" rx="6.8333" ry="6.8333"/><rect class="4374b055-3b46-4f8e-b9b9-75d6226fac84" x="219.4167" y="303" width="173.75" height="16.6667"/><rect class="8e84d08d-10ac-48d2-8159-be21881e7494" x="248.6667" y="331.3333" width="53.625" height="76"/><rect class="cdef2c3a-223d-4546-ac06-66660ca03c37" x="318.6667" y="360" width="52" height="59"/><rect class="4374b055-3b46-4f8e-b9b9-75d6226fac84" x="326.1667" y="371.6667" width="38" height="47.3333"/><rect class="b97d6dd2-0bb5-4169-b92e-dd886842afd8" x="352.6667" y="395.3333" width="9" height="3.6667"/></g><line class="11649320-3135-4f53-b1ae-6c920fbb8a45" x1="190.6667" y1="419" x2="399.6667" y2="419"/><line class="146ca75d-e37d-415c-9c20-1d694205119e" x1="-0.3333" y1="387" x2="190.6667" y2="387"/><path class="1e84ecd4-9569-4680-91a8-a2e308b20387" d="M-61.5772,482.0949l168,7.3334"/><g class="6651cf09-79e6-4af5-a577-4a81b82691e0"><path class="048f02c4-3d60-4b08-81a7-c2ef27e86c3a" d="M28.1-5.9573c7.3742-13.7461,44.66-6.5355,64.6667-2.6666,21.5459,4.1666,40.4522,7.8228,42,17.3333,1.3187,8.1029-10.0739,19.7736-20,19.3333-12.1746-.54-13.7126-18.9254-30-22.6666-2.3088-.53-9.9039.75-25,3.3333-19.6572,3.3634-25.0957,4.818-29,1.3333C26.9093,6.6,25.3931-.9113,28.1-5.9573Z"/><rect class="ab43a0fe-b340-43c2-b9cc-a5c897cef76a" x="27.4703" y="47.4726" width="51.4424" height="20.0053"/><path class="8b9f73cb-6c47-4693-83e5-431bbb242e69" d="M28.1225,51.2986C31.63,44.76,49.367,48.19,58.8839,50.03c10.2491,1.982,19.2427,3.7212,19.979,8.2453.6273,3.8545-4.792,9.4062-9.5138,9.1967-5.7914-.2569-6.523-9.0027-14.2708-10.7823-1.0982-.2523-4.7112.3569-11.8922,1.5856-9.3508,1.6-11.9379,2.2919-13.7951.6343A6.79,6.79,0,0,1,28.1225,51.2986Z"/></g><rect class="ab43a0fe-b340-43c2-b9cc-a5c897cef76a" x="240.2407" y="-28.3213" width="103.0278" height="40.0662"/><path class="8b9f73cb-6c47-4693-83e5-431bbb242e69" d="M241.5469-20.6587c7.0254-13.096,42.5481-6.2264,61.6083-2.5405,20.5268,3.97,38.539,7.4528,40.0136,16.5135,1.2563,7.72-9.5975,18.8385-19.0541,18.419-11.5989-.5145-13.0641-18.03-28.5812-21.5946-2.2-.5053-9.4355.7148-23.8176,3.1756-18.7276,3.2044-23.9089,4.59-27.6285,1.27C240.4125-8.6953,238.968-15.8513,241.5469-20.6587Z"/><rect class="ab43a0fe-b340-43c2-b9cc-a5c897cef76a" x="185.9356" y="94.5754" width="0.4841" height="0.4841"/><circle class="048f02c4-3d60-4b08-81a7-c2ef27e86c3a" cx="186.1776" cy="94.8175" r="0.2421"/><rect class="ab43a0fe-b340-43c2-b9cc-a5c897cef76a" x="204.786" y="89.4649" width="0.5396" height="0.5396"/><circle class="048f02c4-3d60-4b08-81a7-c2ef27e86c3a" cx="205.0558" cy="89.7346" r="0.2698"/><rect class="ab43a0fe-b340-43c2-b9cc-a5c897cef76a" x="224.2932" y="80.6733" width="0.4488" height="0.4488"/><circle class="048f02c4-3d60-4b08-81a7-c2ef27e86c3a" cx="224.5176" cy="80.8977" r="0.2244"/><rect class="ab43a0fe-b340-43c2-b9cc-a5c897cef76a" x="238.7919" y="77.0451" width="0.4138" height="0.4138"/><circle class="048f02c4-3d60-4b08-81a7-c2ef27e86c3a" cx="238.9988" cy="77.252" r="0.2069"/><rect class="ab43a0fe-b340-43c2-b9cc-a5c897cef76a" x="262.381" y="67.8433" width="0.2618" height="0.2618"/><circle class="048f02c4-3d60-4b08-81a7-c2ef27e86c3a" cx="262.512" cy="67.9742" r="0.1309"/><rect class="ab43a0fe-b340-43c2-b9cc-a5c897cef76a" x="285.0562" y="55.0758" width="0.3272" height="0.3272"/><circle class="048f02c4-3d60-4b08-81a7-c2ef27e86c3a" cx="285.2198" cy="55.2395" r="0.1636"/><rect class="ab43a0fe-b340-43c2-b9cc-a5c897cef76a" x="304.0763" y="34.4771" width="0.5179" height="0.5179"/><circle class="048f02c4-3d60-4b08-81a7-c2ef27e86c3a" cx="304.3352" cy="34.7361" r="0.259"/><rect class="ab43a0fe-b340-43c2-b9cc-a5c897cef76a" x="178.427" y="28.4768" width="0.25" height="0.25"/><circle class="048f02c4-3d60-4b08-81a7-c2ef27e86c3a" cx="178.552" cy="28.6017" r="0.125"/><rect class="ab43a0fe-b340-43c2-b9cc-a5c897cef76a" x="184.0598" y="25.3682" width="0.3592" height="0.3592"/><circle class="048f02c4-3d60-4b08-81a7-c2ef27e86c3a" cx="184.2394" cy="25.5478" r="0.1796"/><rect class="ab43a0fe-b340-43c2-b9cc-a5c897cef76a" x="188.325" y="19.1227" width="0.4234" height="0.4234"/><circle class="048f02c4-3d60-4b08-81a7-c2ef27e86c3a" cx="188.5367" cy="19.3344" r="0.2117"/><rect class="ab43a0fe-b340-43c2-b9cc-a5c897cef76a" x="207.3338" y="17.9312" width="0.4791" height="0.4791"/><circle class="048f02c4-3d60-4b08-81a7-c2ef27e86c3a" cx="207.5733" cy="18.1708" r="0.2396"/><rect class="ab43a0fe-b340-43c2-b9cc-a5c897cef76a" x="218.0031" y="7.3674" width="0.363" height="0.363"/><circle class="048f02c4-3d60-4b08-81a7-c2ef27e86c3a" cx="218.1846" cy="7.5489" r="0.1815"/><rect class="ab43a0fe-b340-43c2-b9cc-a5c897cef76a" x="224.3342" y="7.8428" width="0.5929" height="0.5929"/><circle class="048f02c4-3d60-4b08-81a7-c2ef27e86c3a" cx="224.6307" cy="8.1393" r="0.2964"/><rect class="ab43a0fe-b340-43c2-b9cc-a5c897cef76a" x="252.9601" y="7.3436" width="0.437" height="0.437"/><circle class="048f02c4-3d60-4b08-81a7-c2ef27e86c3a" cx="253.1786" cy="7.5621" r="0.2185"/><rect class="ab43a0fe-b340-43c2-b9cc-a5c897cef76a" x="96.1008" y="34.2704" width="0.409" height="0.409"/><circle class="048f02c4-3d60-4b08-81a7-c2ef27e86c3a" cx="96.3053" cy="34.4749" r="0.2045"/><rect class="ab43a0fe-b340-43c2-b9cc-a5c897cef76a" x="109.2022" y="23.6687" width="0.2643" height="0.2643"/><circle class="048f02c4-3d60-4b08-81a7-c2ef27e86c3a" cx="109.3343" cy="23.8009" r="0.1321"/><rect class="ab43a0fe-b340-43c2-b9cc-a5c897cef76a" x="125.6428" y="23.434" width="0.5809" height="0.5809"/><circle class="048f02c4-3d60-4b08-81a7-c2ef27e86c3a" cx="125.9333" cy="23.7245" r="0.2905"/><rect class="ab43a0fe-b340-43c2-b9cc-a5c897cef76a" x="147.1918" y="23.1912" width="0.209" height="0.209"/><circle class="048f02c4-3d60-4b08-81a7-c2ef27e86c3a" cx="147.2963" cy="23.2957" r="0.1045"/><rect class="ab43a0fe-b340-43c2-b9cc-a5c897cef76a" x="170.8302" y="15.8247" width="0.3301" height="0.3301"/><circle class="048f02c4-3d60-4b08-81a7-c2ef27e86c3a" cx="170.9952" cy="15.9897" r="0.1651"/><rect class="ab43a0fe-b340-43c2-b9cc-a5c897cef76a" x="188.0865" y="9.5489" width="0.4516" height="0.4516"/><circle class="048f02c4-3d60-4b08-81a7-c2ef27e86c3a" cx="188.3123" cy="9.7747" r="0.2258"/><rect class="ab43a0fe-b340-43c2-b9cc-a5c897cef76a" x="215.5029" y="11.495" width="0.5208" height="0.5208"/><circle class="048f02c4-3d60-4b08-81a7-c2ef27e86c3a" cx="215.7633" cy="11.7554" r="0.2604"/><rect class="ab43a0fe-b340-43c2-b9cc-a5c897cef76a" x="244.4597" y="7.1731" width="0.417" height="0.417"/><circle class="048f02c4-3d60-4b08-81a7-c2ef27e86c3a" cx="244.6682" cy="7.3816" r="0.2085"/><rect class="ab43a0fe-b340-43c2-b9cc-a5c897cef76a" x="257.7998" y="9.4892" width="0.3482" height="0.3482"/><circle class="048f02c4-3d60-4b08-81a7-c2ef27e86c3a" cx="257.9739" cy="9.6633" r="0.1741"/><rect class="ab43a0fe-b340-43c2-b9cc-a5c897cef76a" x="84.711" y="105.6976" width="0.3025" height="0.3025"/><circle class="048f02c4-3d60-4b08-81a7-c2ef27e86c3a" cx="84.8622" cy="105.8489" r="0.1512"/><rect class="ab43a0fe-b340-43c2-b9cc-a5c897cef76a" x="103.4006" y="96.4944" width="0.2995" height="0.2995"/><circle class="048f02c4-3d60-4b08-81a7-c2ef27e86c3a" cx="103.5504" cy="96.6442" r="0.1498"/><rect class="ab43a0fe-b340-43c2-b9cc-a5c897cef76a" x="132.5584" y="92.1932" width="0.2489" height="0.2489"/><circle class="048f02c4-3d60-4b08-81a7-c2ef27e86c3a" cx="132.6828" cy="92.3176" r="0.1244"/><rect class="ab43a0fe-b340-43c2-b9cc-a5c897cef76a" x="146.5016" y="92.8335" width="0.5551" height="0.5551"/><circle class="048f02c4-3d60-4b08-81a7-c2ef27e86c3a" cx="146.7791" cy="93.1111" r="0.2775"/><rect class="ab43a0fe-b340-43c2-b9cc-a5c897cef76a" x="162.5244" y="92.9266" width="0.5375" height="0.5375"/><circle class="048f02c4-3d60-4b08-81a7-c2ef27e86c3a" cx="162.7931" cy="93.1953" r="0.2688"/><rect class="ab43a0fe-b340-43c2-b9cc-a5c897cef76a" x="174.6695" y="83.6306" width="0.4065" height="0.4065"/><circle class="048f02c4-3d60-4b08-81a7-c2ef27e86c3a" cx="174.8727" cy="83.8339" r="0.2032"/><rect class="ab43a0fe-b340-43c2-b9cc-a5c897cef76a" x="199.8082" y="84.5797" width="0.4632" height="0.4632"/><circle class="048f02c4-3d60-4b08-81a7-c2ef27e86c3a" cx="200.0398" cy="84.8113" r="0.2316"/><rect class="ab43a0fe-b340-43c2-b9cc-a5c897cef76a" x="212.0924" y="76.9048" width="0.5387" height="0.5387"/><circle class="048f02c4-3d60-4b08-81a7-c2ef27e86c3a" cx="212.3617" cy="77.1741" r="0.2693"/><rect class="ab43a0fe-b340-43c2-b9cc-a5c897cef76a" x="233.7393" y="80.852" width="0.3433" height="0.3433"/><circle class="048f02c4-3d60-4b08-81a7-c2ef27e86c3a" cx="233.9109" cy="81.0237" r="0.1717"/><rect class="ab43a0fe-b340-43c2-b9cc-a5c897cef76a" x="251.351" y="77.5592" width="0.4366" height="0.4366"/><circle class="048f02c4-3d60-4b08-81a7-c2ef27e86c3a" cx="251.5694" cy="77.7775" r="0.2183"/><rect class="ab43a0fe-b340-43c2-b9cc-a5c897cef76a" x="274.4176" y="69.0909" width="0.2133" height="0.2133"/><circle class="048f02c4-3d60-4b08-81a7-c2ef27e86c3a" cx="274.5242" cy="69.1975" r="0.1066"/><rect class="ab43a0fe-b340-43c2-b9cc-a5c897cef76a" x="286.3195" y="77.1915" width="0.5625" height="0.5625"/><circle class="048f02c4-3d60-4b08-81a7-c2ef27e86c3a" cx="286.6008" cy="77.4728" r="0.2813"/><rect class="ab43a0fe-b340-43c2-b9cc-a5c897cef76a" x="315.7661" y="68.8297" width="0.435" height="0.435"/><circle class="048f02c4-3d60-4b08-81a7-c2ef27e86c3a" cx="315.9837" cy="69.0472" r="0.2175"/><rect class="ab43a0fe-b340-43c2-b9cc-a5c897cef76a" x="392.2151" y="108.5707" width="0.404" height="0.404"/><circle class="048f02c4-3d60-4b08-81a7-c2ef27e86c3a" cx="392.4171" cy="108.7727" r="0.202"/><rect class="ab43a0fe-b340-43c2-b9cc-a5c897cef76a" x="379.8136" y="107.6893" width="0.4538" height="0.4538"/><circle class="048f02c4-3d60-4b08-81a7-c2ef27e86c3a" cx="380.0405" cy="107.9162" r="0.2269"/><rect class="ab43a0fe-b340-43c2-b9cc-a5c897cef76a" x="353.6372" y="102.8599" width="0.207" height="0.207"/><circle class="048f02c4-3d60-4b08-81a7-c2ef27e86c3a" cx="353.7407" cy="102.9635" r="0.1035"/><rect class="ab43a0fe-b340-43c2-b9cc-a5c897cef76a" x="327.9056" y="96.7993" width="0.2777" height="0.2777"/><circle class="048f02c4-3d60-4b08-81a7-c2ef27e86c3a" cx="328.0444" cy="96.9381" r="0.1389"/><rect class="ab43a0fe-b340-43c2-b9cc-a5c897cef76a" x="307.3919" y="96.0865" width="0.4586" height="0.4586"/><circle class="048f02c4-3d60-4b08-81a7-c2ef27e86c3a" cx="307.6212" cy="96.3157" r="0.2293"/><rect class="ab43a0fe-b340-43c2-b9cc-a5c897cef76a" x="283.4817" y="91.8401" width="0.4765" height="0.4765"/><circle class="048f02c4-3d60-4b08-81a7-c2ef27e86c3a" cx="283.72" cy="92.0784" r="0.2383"/><rect class="ab43a0fe-b340-43c2-b9cc-a5c897cef76a" x="271.7167" y="87.915" width="0.2614" height="0.2614"/><circle class="048f02c4-3d60-4b08-81a7-c2ef27e86c3a" cx="271.8474" cy="88.0457" r="0.1307"/><rect class="ab43a0fe-b340-43c2-b9cc-a5c897cef76a" x="251.5375" y="83.8215" width="0.2805" height="0.2805"/><circle class="048f02c4-3d60-4b08-81a7-c2ef27e86c3a" cx="251.6778" cy="83.9618" r="0.1403"/><rect class="ab43a0fe-b340-43c2-b9cc-a5c897cef76a" x="231.6157" y="50.5907" width="0.2809" height="0.2809"/><circle class="048f02c4-3d60-4b08-81a7-c2ef27e86c3a" cx="231.7562" cy="50.7311" r="0.1405"/><ellipse class="a1a8e87c-8e4d-4cc0-8dc0-4b8ff866a1b2" cx="143.2519" cy="11.5168" rx="53.3333" ry="20.0796" transform="translate(0.7523 30.1609) rotate(-12.0504)"/><rect class="ab43a0fe-b340-43c2-b9cc-a5c897cef76a" x="267.0575" y="85.2282" width="0.5765" height="0.5765"/><circle class="048f02c4-3d60-4b08-81a7-c2ef27e86c3a" cx="267.3458" cy="85.5165" r="0.2882"/><rect class="ab43a0fe-b340-43c2-b9cc-a5c897cef76a" x="255.8427" y="92.239" width="0.5993" height="0.5993"/><circle class="048f02c4-3d60-4b08-81a7-c2ef27e86c3a" cx="256.1423" cy="92.5386" r="0.2997"/><rect class="ab43a0fe-b340-43c2-b9cc-a5c897cef76a" x="228.299" y="92.4821" width="0.4601" height="0.4601"/><circle class="048f02c4-3d60-4b08-81a7-c2ef27e86c3a" cx="228.5291" cy="92.7121" r="0.23"/><rect class="ab43a0fe-b340-43c2-b9cc-a5c897cef76a" x="209.651" y="99.9967" width="0.4244" height="0.4244"/><circle class="048f02c4-3d60-4b08-81a7-c2ef27e86c3a" cx="209.8632" cy="100.209" r="0.2122"/><rect class="ab43a0fe-b340-43c2-b9cc-a5c897cef76a" x="183.6864" y="101.7326" width="0.5657" height="0.5657"/><circle class="048f02c4-3d60-4b08-81a7-c2ef27e86c3a" cx="183.9692" cy="102.0154" r="0.2828"/><rect class="ab43a0fe-b340-43c2-b9cc-a5c897cef76a" x="169.2854" y="111.1295" width="0.4903" height="0.4903"/><circle class="048f02c4-3d60-4b08-81a7-c2ef27e86c3a" cx="169.5306" cy="111.3747" r="0.2451"/><rect class="ab43a0fe-b340-43c2-b9cc-a5c897cef76a" x="153.0408" y="110.8175" width="0.4212" height="0.4212"/><circle class="048f02c4-3d60-4b08-81a7-c2ef27e86c3a" cx="153.2515" cy="111.0281" r="0.2106"/><rect class="ab43a0fe-b340-43c2-b9cc-a5c897cef76a" x="134.5613" y="120.3697" width="0.3846" height="0.3846"/><circle class="048f02c4-3d60-4b08-81a7-c2ef27e86c3a" cx="134.7536" cy="120.562" r="0.1923"/><rect class="ab43a0fe-b340-43c2-b9cc-a5c897cef76a" x="109.2703" y="123.2565" width="0.4823" height="0.4823"/><circle class="048f02c4-3d60-4b08-81a7-c2ef27e86c3a" cx="109.5114" cy="123.4976" r="0.2412"/><rect class="ab43a0fe-b340-43c2-b9cc-a5c897cef76a" x="96.9823" y="120.8455" width="0.3477" height="0.3477"/><circle class="048f02c4-3d60-4b08-81a7-c2ef27e86c3a" cx="97.1562" cy="121.0193" r="0.1739"/><rect class="ab43a0fe-b340-43c2-b9cc-a5c897cef76a" x="70.3233" y="127.0216" width="0.2947" height="0.2947"/><circle class="048f02c4-3d60-4b08-81a7-c2ef27e86c3a" cx="70.4707" cy="127.1689" r="0.1473"/><rect class="ab43a0fe-b340-43c2-b9cc-a5c897cef76a" x="57.4008" y="129.6533" width="0.509" height="0.509"/><circle class="048f02c4-3d60-4b08-81a7-c2ef27e86c3a" cx="57.6553" cy="129.9078" r="0.2545"/><rect class="ab43a0fe-b340-43c2-b9cc-a5c897cef76a" x="42.5636" y="139.1783" width="0.4031" height="0.4031"/><circle class="048f02c4-3d60-4b08-81a7-c2ef27e86c3a" cx="42.7651" cy="139.3799" r="0.2016"/><rect class="ab43a0fe-b340-43c2-b9cc-a5c897cef76a" x="30.9951" y="136.7702" width="0.5828" height="0.5828"/><circle class="048f02c4-3d60-4b08-81a7-c2ef27e86c3a" cx="31.2865" cy="137.0616" r="0.2914"/><rect class="ab43a0fe-b340-43c2-b9cc-a5c897cef76a" x="235.4688" y="175.0049" width="0.5307" height="0.5307"/><circle class="048f02c4-3d60-4b08-81a7-c2ef27e86c3a" cx="235.7342" cy="175.2703" r="0.2653"/><rect class="ab43a0fe-b340-43c2-b9cc-a5c897cef76a" x="213.8425" y="177.1322" width="0.2176" height="0.2176"/><circle class="048f02c4-3d60-4b08-81a7-c2ef27e86c3a" cx="213.9513" cy="177.241" r="0.1088"/><rect class="ab43a0fe-b340-43c2-b9cc-a5c897cef76a" x="186.3905" y="181.7778" width="0.493" height="0.493"/><circle class="048f02c4-3d60-4b08-81a7-c2ef27e86c3a" cx="186.637" cy="182.0243" r="0.2465"/><rect class="ab43a0fe-b340-43c2-b9cc-a5c897cef76a" x="160.0547" y="180.4727" width="0.2342" height="0.2342"/><circle class="048f02c4-3d60-4b08-81a7-c2ef27e86c3a" cx="160.1718" cy="180.5898" r="0.1171"/><rect class="ab43a0fe-b340-43c2-b9cc-a5c897cef76a" x="137.2936" y="181.1753" width="0.2864" height="0.2864"/><circle class="048f02c4-3d60-4b08-81a7-c2ef27e86c3a" cx="137.4368" cy="181.3185" r="0.1432"/><rect class="ab43a0fe-b340-43c2-b9cc-a5c897cef76a" x="110.2048" y="186.6634" width="0.5615" height="0.5615"/><circle class="048f02c4-3d60-4b08-81a7-c2ef27e86c3a" cx="110.4856" cy="186.9442" r="0.2807"/><rect class="ab43a0fe-b340-43c2-b9cc-a5c897cef76a" x="88.5524" y="184.8662" width="0.4872" height="0.4872"/><circle class="048f02c4-3d60-4b08-81a7-c2ef27e86c3a" cx="88.796" cy="185.1098" r="0.2436"/><rect class="ab43a0fe-b340-43c2-b9cc-a5c897cef76a" x="61.1982" y="178.7399" width="0.4738" height="0.4738"/><circle class="048f02c4-3d60-4b08-81a7-c2ef27e86c3a" cx="61.4351" cy="178.9768" r="0.2369"/><rect class="ab43a0fe-b340-43c2-b9cc-a5c897cef76a" x="132.429" y="248.3388" width="0.3626" height="0.3626"/><circle class="048f02c4-3d60-4b08-81a7-c2ef27e86c3a" cx="132.6103" cy="248.5201" r="0.1813"/><rect class="ab43a0fe-b340-43c2-b9cc-a5c897cef76a" x="159.4864" y="231.8228" width="0.4318" height="0.4318"/><circle class="048f02c4-3d60-4b08-81a7-c2ef27e86c3a" cx="159.7023" cy="232.0387" r="0.2159"/><rect class="ab43a0fe-b340-43c2-b9cc-a5c897cef76a" x="172.2026" y="227.3091" width="0.5612" height="0.5612"/><circle class="048f02c4-3d60-4b08-81a7-c2ef27e86c3a" cx="172.4832" cy="227.5897" r="0.2806"/><rect class="ab43a0fe-b340-43c2-b9cc-a5c897cef76a" x="187.1444" y="220.8786" width="0.2621" height="0.2621"/><circle class="048f02c4-3d60-4b08-81a7-c2ef27e86c3a" cx="187.2754" cy="221.0096" r="0.131"/><rect class="ab43a0fe-b340-43c2-b9cc-a5c897cef76a" x="205.136" y="205.2376" width="0.3906" height="0.3906"/><circle class="048f02c4-3d60-4b08-81a7-c2ef27e86c3a" cx="205.3313" cy="205.4329" r="0.1953"/><rect class="ab43a0fe-b340-43c2-b9cc-a5c897cef76a" x="220.9309" y="179.6213" width="0.3679" height="0.3679"/><circle class="048f02c4-3d60-4b08-81a7-c2ef27e86c3a" cx="221.1149" cy="179.8053" r="0.184"/><rect class="ab43a0fe-b340-43c2-b9cc-a5c897cef76a" x="233.174" y="158.4903" width="0.508" height="0.508"/><circle class="048f02c4-3d60-4b08-81a7-c2ef27e86c3a" cx="233.4279" cy="158.7443" r="0.254"/><rect class="ab43a0fe-b340-43c2-b9cc-a5c897cef76a" x="197.9602" y="260.5201" width="0.3538" height="0.3538"/><circle class="048f02c4-3d60-4b08-81a7-c2ef27e86c3a" cx="198.1371" cy="260.697" r="0.1769"/><rect class="ab43a0fe-b340-43c2-b9cc-a5c897cef76a" x="220.8465" y="257.6119" width="0.5684" height="0.5684"/><circle class="048f02c4-3d60-4b08-81a7-c2ef27e86c3a" cx="221.1306" cy="257.8961" r="0.2842"/><rect class="ab43a0fe-b340-43c2-b9cc-a5c897cef76a" x="249.0329" y="259.0346" width="0.3635" height="0.3635"/><circle class="048f02c4-3d60-4b08-81a7-c2ef27e86c3a" cx="249.2147" cy="259.2163" r="0.1817"/><rect class="ab43a0fe-b340-43c2-b9cc-a5c897cef76a" x="279.8031" y="252.939" width="0.3608" height="0.3608"/><circle class="048f02c4-3d60-4b08-81a7-c2ef27e86c3a" cx="279.9835" cy="253.1195" r="0.1804"/><rect class="ab43a0fe-b340-43c2-b9cc-a5c897cef76a" x="304.1212" y="246.3205" width="0.5901" height="0.5901"/><circle class="048f02c4-3d60-4b08-81a7-c2ef27e86c3a" cx="304.4163" cy="246.6156" r="0.2951"/><rect class="ab43a0fe-b340-43c2-b9cc-a5c897cef76a" x="331.9957" y="223.1631" width="0.3703" height="0.3703"/><circle class="048f02c4-3d60-4b08-81a7-c2ef27e86c3a" cx="332.1809" cy="223.3483" r="0.1851"/><rect class="ab43a0fe-b340-43c2-b9cc-a5c897cef76a" x="338.8135" y="212.4191" width="0.468" height="0.468"/><circle class="048f02c4-3d60-4b08-81a7-c2ef27e86c3a" cx="339.0475" cy="212.6531" r="0.234"/><rect class="ab43a0fe-b340-43c2-b9cc-a5c897cef76a" x="310.6763" y="225.4449" width="0.5307" height="0.5307"/><circle class="048f02c4-3d60-4b08-81a7-c2ef27e86c3a" cx="310.9416" cy="225.7103" r="0.2653"/><rect class="ab43a0fe-b340-43c2-b9cc-a5c897cef76a" x="330.9509" y="213.195" width="0.486" height="0.486"/><circle class="048f02c4-3d60-4b08-81a7-c2ef27e86c3a" cx="331.1939" cy="213.438" r="0.243"/><rect class="ab43a0fe-b340-43c2-b9cc-a5c897cef76a" x="345.3078" y="218.1395" width="0.2515" height="0.2515"/><circle class="048f02c4-3d60-4b08-81a7-c2ef27e86c3a" cx="345.4336" cy="218.2652" r="0.1258"/><rect class="ab43a0fe-b340-43c2-b9cc-a5c897cef76a" x="376.2595" y="196.2028" width="0.4693" height="0.4693"/><circle class="048f02c4-3d60-4b08-81a7-c2ef27e86c3a" cx="376.4942" cy="196.4375" r="0.2347"/><rect class="ab43a0fe-b340-43c2-b9cc-a5c897cef76a" x="384.8242" y="146.7651" width="0.4313" height="0.4313"/><circle class="048f02c4-3d60-4b08-81a7-c2ef27e86c3a" cx="385.0399" cy="146.9807" r="0.2156"/><rect class="ab43a0fe-b340-43c2-b9cc-a5c897cef76a" x="358.5656" y="119.5792" width="0.2157" height="0.2157"/><circle class="048f02c4-3d60-4b08-81a7-c2ef27e86c3a" cx="358.6735" cy="119.6871" r="0.1078"/><rect class="ab43a0fe-b340-43c2-b9cc-a5c897cef76a" x="73.5877" y="210.8093" width="0.4417" height="0.4417"/><circle class="048f02c4-3d60-4b08-81a7-c2ef27e86c3a" cx="73.8085" cy="211.0301" r="0.2208"/><rect class="ab43a0fe-b340-43c2-b9cc-a5c897cef76a" x="88.6238" y="201.2427" width="0.5832" height="0.5832"/><circle class="048f02c4-3d60-4b08-81a7-c2ef27e86c3a" cx="88.9154" cy="201.5343" r="0.2916"/><rect class="ab43a0fe-b340-43c2-b9cc-a5c897cef76a" x="99.1313" y="177.835" width="0.4172" height="0.4172"/><circle class="048f02c4-3d60-4b08-81a7-c2ef27e86c3a" cx="99.3399" cy="178.0437" r="0.2086"/><rect class="ab43a0fe-b340-43c2-b9cc-a5c897cef76a" x="69.0212" y="211.0176" width="0.5294" height="0.5294"/><circle class="048f02c4-3d60-4b08-81a7-c2ef27e86c3a" cx="69.2858" cy="211.2822" r="0.2647"/><rect class="ab43a0fe-b340-43c2-b9cc-a5c897cef76a" x="53.4667" y="198.7226" width="0.5693" height="0.5693"/><circle class="048f02c4-3d60-4b08-81a7-c2ef27e86c3a" cx="53.7514" cy="199.0073" r="0.2846"/><rect class="ab43a0fe-b340-43c2-b9cc-a5c897cef76a" x="38.9137" y="194.4878" width="0.4028" height="0.4028"/><circle class="048f02c4-3d60-4b08-81a7-c2ef27e86c3a" cx="39.1151" cy="194.6892" r="0.2014"/><rect class="ab43a0fe-b340-43c2-b9cc-a5c897cef76a" x="15.0531" y="195.7042" width="0.2307" height="0.2307"/><circle class="048f02c4-3d60-4b08-81a7-c2ef27e86c3a" cx="15.1684" cy="195.8195" r="0.1153"/><path class="77626299-e5bf-41e3-8e7b-b35864e3f30f" d="M177.688,363.8756a1.998,1.998,0,0,1-2.6342-1.0654l-3.9238-9.2583a1.9886,1.9886,0,0,1-.1494-1.0574,2.5547,2.5547,0,0,1-.0551-.4924V341.9044a2.0272,2.0272,0,0,1,1.9974-2.05,1.9711,1.9711,0,0,1,1.4153.5973,2.0845,2.0845,0,0,1,.59,1.4529v10.0977a1.8635,1.8635,0,0,1-.0079.21l3.8058,8.96A2.093,2.093,0,0,1,177.688,363.8756Z"/><rect class="4374b055-3b46-4f8e-b9b9-75d6226fac84" x="164.5823" y="337.7713" width="10.189" height="26.7814" rx="5.0945" ry="5.0945"/><ellipse class="4374b055-3b46-4f8e-b9b9-75d6226fac84" cx="169.6768" cy="330.9623" rx="6.1331" ry="6.2956"/><rect class="4374b055-3b46-4f8e-b9b9-75d6226fac84" x="169.6768" y="359.6234" width="5.0945" height="27.3766" rx="2.4425" ry="2.4425"/><path class="4374b055-3b46-4f8e-b9b9-75d6226fac84" d="M163.9927,386.8868h0a2.61,2.61,0,0,1-2.2033-2.9255l2.8134-22.5684a2.5687,2.5687,0,0,1,2.85-2.2617h0a2.61,2.61,0,0,1,2.2033,2.9255l-2.8134,22.5684A2.5686,2.5686,0,0,1,163.9927,386.8868Z"/><path class="f96c5365-780c-4008-8288-06fda4b7537a" d="M169.57,341.8737l-4.93,14.0044,2.6736,4.7543a2.6693,2.6693,0,0,1-.928,3.5757,2.5256,2.5256,0,0,1-3.4834-.9605l-3.13-5.57a2.5289,2.5289,0,0,1-.33-1.235,2.5705,2.5705,0,0,1,.0786-1.4368l5.2605-14.9084a2.5545,2.5545,0,0,1,2.3983-1.7274,2.4663,2.4663,0,0,1,.8572.1534A2.6468,2.6468,0,0,1,169.57,341.8737Z"/><path class="2f038cd0-387a-4a92-802c-736b110778c0" d="M277.1667,291.63a2.6843,2.6843,0,0,1-2.12,1.04,2.6428,2.6428,0,0,1-1.62-.55l-6.26-4.8-3.75,4.5a2.6656,2.6656,0,0,1-4.72-1.7,2.7065,2.7065,0,0,1,.62-1.71l5.21-6.26a2.714,2.714,0,0,1,.99-.74,2.6514,2.6514,0,0,1,2.96.19l8.2,6.29A2.68,2.68,0,0,1,277.1667,291.63Z"/><rect class="b72fbbaf-f564-4150-bc98-8539f9b959d2" x="268.3966" y="268.8333" width="5.3333" height="13.9167" rx="2.6667" ry="2.6667" transform="translate(650.3256 200.3166) rotate(123.2495)"/><rect class="4374b055-3b46-4f8e-b9b9-75d6226fac84" x="267.68" y="268.8333" width="10.6667" height="24.3333" rx="5.3333" ry="5.3333"/><path class="de802d95-06bd-4539-b6b6-dde6d369768f" d="M273.7167,291.63a2.6843,2.6843,0,0,1-2.12,1.04,2.6426,2.6426,0,0,1-1.62-.55l-6.19-4.75-3.71,4.45a2.6656,2.6656,0,0,1-4.72-1.7,2.7065,2.7065,0,0,1,.62-1.71l5.21-6.26a2.1745,2.1745,0,0,1,.31-.3.5259.5259,0,0,1,.14-.12,2.644,2.644,0,0,1,3.39-.13l8.2,6.29A2.68,2.68,0,0,1,273.7167,291.63Z"/><circle class="4374b055-3b46-4f8e-b9b9-75d6226fac84" cx="270.452" cy="263.9254" r="4.9079"/><path class="0e850188-534e-41af-b3c9-d0bf8c835b2c" d="M275.36,271.5015v8.6a2.4038,2.4038,0,0,1-.03.37,2.054,2.054,0,0,1-.07.34,3.0053,3.0053,0,0,1-.11.32c-.03.05-.05.11-.08.16-.05.09-.1.18-.15.26l-.37.45c-.05.04-.1.09-.15.13l-.68.41a1.1764,1.1764,0,0,1-.2.07l-.19.06a1.9848,1.9848,0,0,1-.32.06c-.11.01-.21.02-.32.02h-.02a2.1863,2.1863,0,0,1-.36-.03,1.5253,1.5253,0,0,1-.37-.08,1.9346,1.9346,0,0,1-.59-.26.6721.6721,0,0,1-.12-.06l-7.18-4.71a2.6682,2.6682,0,1,1,2.93-4.46l3.04,2v-3.65a2.6759,2.6759,0,0,1,2.67-2.67,2.6631,2.6631,0,0,1,2.67,2.67Z"/><text class="54a06617-d8f6-464f-a50f-4307f53740ec" transform="translate(56.1665 308.3333)">P</text></g></g></svg>