<svg xmlns="http://www.w3.org/2000/svg" xmlns:xlink="http://www.w3.org/1999/xlink" viewBox="0 0 326.75 155.5"><defs><style>.\30 4b02af9-0191-434a-8b50-97becc9e255d,.\31 c56a2e0-0c4e-4d40-9329-366ef33d4d6c,.\33 c6ad90a-431e-4750-ba2b-0e6362f5b52c,.\35 c4e469c-9351-452d-9bec-a4e57075b3b1,.\37 07373ef-6074-4ac1-b46b-6d0e3cda3d55{fill:none;}.\39 0ce36cc-15dd-48ad-aace-92b35d4552f7{clip-path:url(#643c5a25-e74a-4aad-a195-f3019e206403);}.\38 434a8fa-fe94-49c8-a2b9-5f91b9e09f6e{fill:#ead5c7;}.de02f6f0-3ec3-4ad4-b8ff-f5f5d666748a{fill:#c6d4be;}.\32 84caa84-8d55-4728-978e-ffc7c36ca114{fill:#c9d4b7;}.d08075ca-8b95-4a3d-b5e6-1fb6c3575c07{fill:#ceb2bc;}.d9c91f9f-23ed-47a4-af2c-26419a11c6d9{fill:#d1acbe;}.ca5d52a4-eea5-4d02-89b4-846206addb7a{fill:#9b848d;}.\30 ae44b2f-f000-4ba7-999c-2d4dae58b084{fill:#9f6464;}.\30 99b821a-50e5-4e48-b04f-f4d472bf65b6{fill:#d38884;}.\32 5deec04-ee05-4960-8c89-1ad6a3db1a0a{opacity:0.56;fill:url(#e147d6e3-3ce5-44f2-9341-941494f47052);}.\30 4b02af9-0191-434a-8b50-97becc9e255d,.\32 7581228-7c3f-43e2-84ef-8478f8db278e,.\32 dea613c-01c1-4ea2-902e-2dae03b80b70,.\37 07373ef-6074-4ac1-b46b-6d0e3cda3d55,.c0e84564-9f40-4f68-a82d-e22d2003fd46{stroke:#231f20;}.\30 4b02af9-0191-434a-8b50-97becc9e255d,.\31 c56a2e0-0c4e-4d40-9329-366ef33d4d6c,.\32 7581228-7c3f-43e2-84ef-8478f8db278e,.\32 dea613c-01c1-4ea2-902e-2dae03b80b70,.\35 c4e469c-9351-452d-9bec-a4e57075b3b1,.\37 07373ef-6074-4ac1-b46b-6d0e3cda3d55,.c0e84564-9f40-4f68-a82d-e22d2003fd46{stroke-miterlimit:10;}.\32 7581228-7c3f-43e2-84ef-8478f8db278e,.\32 dea613c-01c1-4ea2-902e-2dae03b80b70,.\35 c4e469c-9351-452d-9bec-a4e57075b3b1,.\37 07373ef-6074-4ac1-b46b-6d0e3cda3d55{stroke-width:0.5px;}.a2cb9eca-b80a-49df-8691-d478d1ceb5d8{fill:#231f20;}.\36 6e160e5-342d-4acc-b6b1-0a9331da9cce{fill:#af7271;}.fe131681-3658-42e7-a4a1-9d266cd70c0d{fill:#849962;}.\37 4c6b2ef-9c2f-4822-b3f7-984e5a8e014b{fill:#afd57c;}.\30 671c220-93ae-4b6c-a58d-5c08c2bc8665{fill:url(#65279f89-a28e-449e-9ca6-8f05df1ab3ab);}.\33 7114540-a9f7-4494-8c91-642066e248da{fill:#90a869;}.\30 4b02af9-0191-434a-8b50-97becc9e255d,.\31 c56a2e0-0c4e-4d40-9329-366ef33d4d6c{stroke-width:0.75px;}.\38 98a7561-257f-4cb1-8f5f-9053c7993287{fill:#ba90a7;}.f2e6b759-3a4c-4a1b-8ab8-69143e20c495{fill:#f0b7d4;}.\32 7581228-7c3f-43e2-84ef-8478f8db278e,.\37 c12b377-abc7-4ad4-a282-6ad0af0c9caa,.c0e84564-9f40-4f68-a82d-e22d2003fd46{fill:#fff;}.f5b1797e-9f55-41fb-a84e-d3872d641b7a{opacity:0.69;fill:url(#bcca7ee9-3756-4630-ba3f-ca21c68890d5);}.d5503f5f-618c-4f12-a6e0-0ea6e1329713{fill:#eda2b2;}.\32 dea613c-01c1-4ea2-902e-2dae03b80b70{fill:#f3eb3f;}.a7c0efc0-b733-4367-8059-756727120b06{opacity:0.51;}.\35 3e76950-6f77-4a23-aff9-faf8d355fc5a{fill:#e5bbb9;}.\32 0ab866e-9079-4c97-bb80-d1aca27f83dd{fill:#ddcfca;}.\31 c56a2e0-0c4e-4d40-9329-366ef33d4d6c{stroke:#ada79c;}.b11565d2-6082-4e0c-bce5-4dee233d6b3c{fill:#f2f2f3;}.\39 53450b6-6b13-47c8-baae-aac7f0e15671{fill:#80777a;}.\35 c4e469c-9351-452d-9bec-a4e57075b3b1{stroke:#8f9ed0;}</style><clipPath id="643c5a25-e74a-4aad-a195-f3019e206403"><polygon class="3c6ad90a-431e-4750-ba2b-0e6362f5b52c" points="44.484 0.553 0 14.5 0 155.5 291.065 155.5 326.75 130.333 326.75 0 44.484 0.553"/></clipPath><linearGradient id="e147d6e3-3ce5-44f2-9341-941494f47052" x1="53.0825" y1="141.7128" x2="53.0825" y2="105.5011" gradientUnits="userSpaceOnUse"><stop offset="0" stop-color="#f04e23" stop-opacity="0.7"/><stop offset="1" stop-color="#f48ba1" stop-opacity="0"/></linearGradient><linearGradient id="65279f89-a28e-449e-9ca6-8f05df1ab3ab" x1="118.5721" y1="141.9628" x2="118.5721" y2="123.5838" gradientUnits="userSpaceOnUse"><stop offset="0" stop-color="#819a71"/><stop offset="1" stop-color="#6fbe44" stop-opacity="0"/></linearGradient><linearGradient id="bcca7ee9-3756-4630-ba3f-ca21c68890d5" x1="293.5417" y1="141.9628" x2="293.5417" y2="122.87" gradientUnits="userSpaceOnUse"><stop offset="0" stop-color="#f593a2"/><stop offset="1" stop-color="#b69cca" stop-opacity="0"/></linearGradient></defs><title>numbers</title><g id="057ccdd2-ca20-411b-a436-a5be149be17c" data-name="Layer 2"><g class="90ce36cc-15dd-48ad-aace-92b35d4552f7"><g id="f0c09c23-4803-41b1-9a4d-932c30726a56" data-name="Background"><rect class="8434a8fa-fe94-49c8-a2b9-5f91b9e09f6e" width="326.75" height="141.9628"/><rect class="de02f6f0-3ec3-4ad4-b8ff-f5f5d666748a" y="94.6304" width="228.75" height="14.7"/><rect class="284caa84-8d55-4728-978e-ffc7c36ca114" y="82.8936" width="228.75" height="8.316"/><rect class="d08075ca-8b95-4a3d-b5e6-1fb6c3575c07" x="227.5" y="0.5535" width="8" height="140.8558"/><rect class="d9c91f9f-23ed-47a4-af2c-26419a11c6d9" y="14.5" width="326.75" height="5.25"/><rect class="ca5d52a4-eea5-4d02-89b4-846206addb7a" width="326.75" height="3.25"/><rect class="d08075ca-8b95-4a3d-b5e6-1fb6c3575c07" y="3.25" width="326.75" height="11.25"/></g><g id="1d8d0b04-4d7a-479c-a292-70ab65ef5a1f" data-name="1"><path class="0ae44b2f-f000-4ba7-999c-2d4dae58b084" d="M48.6884,32.5S31.861,49.3333,14.471,49.6667V62.5s22.11-2.5,20.9435,5.8333l.5,72.5458,30.3329.7241V32.5Z"/><path class="099b821a-50e5-4e48-b04f-f4d472bf65b6" d="M52.8134,32.5S35.986,49.3333,18.596,49.6667V62.5S40.7061,60,39.54,68.3333l.5,72.5458,30.3329.7241V32.5Z"/><rect class="25deec04-ee05-4960-8c89-1ad6a3db1a0a" x="35.7926" y="105.5011" width="34.5798" height="36.2117"/><line class="707373ef-6074-4ac1-b46b-6d0e3cda3d55" x1="55.6676" y1="96.4199" x2="61.6004" y2="96.4362"/><circle class="a2cb9eca-b80a-49df-8691-d478d1ceb5d8" cx="52.8134" cy="93.4356" r="1.6057"/><circle class="a2cb9eca-b80a-49df-8691-d478d1ceb5d8" cx="63.2061" cy="93.4356" r="1.6057"/><circle class="66e160e5-342d-4acc-b6b1-0a9331da9cce" cx="49.9895" cy="96.4043" r="1.8646"/><circle class="66e160e5-342d-4acc-b6b1-0a9331da9cce" cx="66.0311" cy="96.4483" r="1.8646"/></g><g id="ba6c6b46-d75c-402d-bb1b-d9a535ed19ba" data-name="2"><path class="fe131681-3658-42e7-a4a1-9d266cd70c0d" d="M111.2427,69.31s-3.0944-26.1667,6.9528-22.5c0,0,9.8071.1666,4.6772,16.6666l-38.63,61.6667v15.7123H149.576v-18.379l-33.1879.1667S143.9094,88.31,143.2427,85.81c0,0,13-24.1667,9.1667-25.6667,0,0,4.5-29.1667-35-29.6667,0,0-36.5-6.1666-33.1667,38.6667Z"/><path class="74c6b2ef-9c2f-4822-b3f7-984e5a8e014b" d="M114.9094,69.31s-3.0944-26.1667,6.9528-22.5c0,0,9.8071.1666,4.6771,16.6666l-38.63,61.6667v15.7123h65.3333v-18.379l-33.1879.1667S147.576,88.31,146.9094,85.81c0,0,13-24.1667,9.1666-25.6667,0,0,4.5-29.1667-35-29.6667,0,0-36.5-6.1666-33.1666,38.6667Z"/><rect class="0671c220-93ae-4b6c-a58d-5c08c2bc8665" x="84.0721" y="123.5838" width="69" height="18.379"/><rect class="37114540-a9f7-4494-8c91-642066e248da" x="116.0345" y="92.4583" width="5.5" height="1.7575"/><rect class="37114540-a9f7-4494-8c91-642066e248da" x="135.1595" y="92.4583" width="5.5" height="1.7575"/><circle class="a2cb9eca-b80a-49df-8691-d478d1ceb5d8" cx="123.5761" cy="91.2811" r="1.8573"/><circle class="a2cb9eca-b80a-49df-8691-d478d1ceb5d8" cx="133.6735" cy="91.2811" r="1.8573"/><line class="04b02af9-0191-434a-8b50-97becc9e255d" x1="119.6178" y1="89.4239" x2="127.156" y2="89.4239"/><line class="04b02af9-0191-434a-8b50-97becc9e255d" x1="129.9043" y1="89.4239" x2="137.4426" y2="89.4239"/><line class="04b02af9-0191-434a-8b50-97becc9e255d" x1="126.719" y1="93.1384" x2="129.9043" y2="93.1384"/></g><g id="65f1eb5d-50ce-4133-83ca-755de42b464e" data-name="4"><polygon class="898a7561-257f-4cb1-8f5f-9053c7993287" points="269.083 33.037 245.75 104.203 245.75 122.87 278.083 122.87 278.083 141.963 305.083 141.963 305.083 122.703 312.583 122.703 312.583 104.37 304.25 104.203 303.75 33.037 269.083 33.037"/><polygon class="f2e6b759-3a4c-4a1b-8ab8-69143e20c495" points="272.5 33.037 249.167 104.203 249.167 122.87 281.5 122.87 281.5 141.963 308.5 141.963 308.5 122.703 316 122.703 316 104.37 307.667 104.203 307.167 33.037 272.5 33.037"/><polygon class="7c12b377-abc7-4ad4-a282-6ad0af0c9caa" points="281.5 53.81 269 103.977 281.5 103.977 281.5 53.81"/><polygon class="898a7561-257f-4cb1-8f5f-9053c7993287" points="281.5 103.977 278.583 103.977 279.167 63.175 281.5 53.81 281.5 103.977"/><polygon class="8434a8fa-fe94-49c8-a2b9-5f91b9e09f6e" points="279.167 63.125 268.625 103.977 278.562 103.977 279.167 63.125"/><rect class="f5b1797e-9f55-41fb-a84e-d3872d641b7a" x="278.5833" y="122.87" width="29.9167" height="19.0928"/><circle cx="297.9629" cy="108.9024" r="1.9518"/><line class="707373ef-6074-4ac1-b46b-6d0e3cda3d55" x1="292.0991" y1="114.4308" x2="295.4093" y2="115.8617"/><line class="707373ef-6074-4ac1-b46b-6d0e3cda3d55" x1="294.9262" y1="115.8157" x2="298.4963" y2="114.4768"/><circle cx="289.1129" cy="111.2822" r="1.9518"/><circle class="d5503f5f-618c-4f12-a6e0-0ea6e1329713" cx="285.7404" cy="116.6065" r="3.3725"/><circle class="d5503f5f-618c-4f12-a6e0-0ea6e1329713" cx="303.9964" cy="112.4142" r="3.3725"/></g><g id="cad0ead8-ea1a-4c78-9f2e-3b1d87456651" data-name="Flower"><circle class="27581228-7c3f-43e2-84ef-8478f8db278e" cx="304.5152" cy="102.4303" r="1.9589"/><circle class="27581228-7c3f-43e2-84ef-8478f8db278e" cx="304.5152" cy="105.8926" r="1.9589"/><circle class="27581228-7c3f-43e2-84ef-8478f8db278e" cx="306.9426" cy="107.8514" r="1.9589"/><circle class="27581228-7c3f-43e2-84ef-8478f8db278e" cx="309.6223" cy="107.8514" r="1.9589"/><circle class="27581228-7c3f-43e2-84ef-8478f8db278e" cx="311.5812" cy="105.8926" r="1.9589"/><circle class="27581228-7c3f-43e2-84ef-8478f8db278e" cx="311.5812" cy="102.4303" r="1.9589"/><circle class="27581228-7c3f-43e2-84ef-8478f8db278e" cx="309.6223" cy="100.8051" r="1.9589"/><circle class="27581228-7c3f-43e2-84ef-8478f8db278e" cx="306.9426" cy="100.8051" r="1.9589"/><circle class="2dea613c-01c1-4ea2-902e-2dae03b80b70" cx="307.7041" cy="104.3891" r="2.7204"/></g><g id="76d807d7-9ebf-4e6a-b4f5-cdcfda80f5f9" data-name="Cup"><path class="c0e84564-9f40-4f68-a82d-e22d2003fd46" d="M140.1944,122.4768s-1.3261.0251-5.3261-.1435-3.6666-11.4166-3.6666-11.4166H143.69S143.1871,121.87,140.1944,122.4768Z"/><path class="04b02af9-0191-434a-8b50-97becc9e255d" d="M143.5362,112.8553s12.693,3.69-1.0766,6.863Z"/><g class="a7c0efc0-b733-4367-8059-756727120b06"><path class="a2cb9eca-b80a-49df-8691-d478d1ceb5d8" d="M141.7587,108.453c.83-.8272.0416-1.5817-.8129-1.9151-.3717-.1451-1.0059-.2273-1.2421-.5955-.4319-.6733.3454-1.0655.7283-1.3294a15.6036,15.6036,0,0,1,2.374-1.3312c.9083-.4159.09-1.0357-.605-.7173a18.1,18.1,0,0,0-2.3952,1.3068,4.1835,4.1835,0,0,0-1.6151,1.408,1.1946,1.1946,0,0,0,.39,1.4687c.298.2618,2.4854.8858,1.992,1.3779-.62.6181.79.7217,1.1857.3271Z"/></g><g class="a7c0efc0-b733-4367-8059-756727120b06"><path class="a2cb9eca-b80a-49df-8691-d478d1ceb5d8" d="M135.6376,108.6311c.5076-.8366.8592-1.8326-.0181-2.5528-.3576-.2936-1.4333-.507-1.6692-.8413-.5089-.7208,1.15-1.8052,1.566-2.1095.7925-.58-.4056-.9622-.9373-.5729-.7079.5182-2.5933,1.7452-2.35,2.7975.3782,1.6337,3.5456.6779,2.0367,3.1647-.3934.6483,1.074.6046,1.3715.1143Z"/></g></g><g id="b6fe1abc-15cb-4c56-a17b-556ff39034b7" data-name="Headband"><rect class="66e160e5-342d-4acc-b6b1-0a9331da9cce" x="35.5246" y="84.3128" width="34.8478" height="6.2497"/><rect class="53e76950-6f77-4a23-aff9-faf8d355fc5a" x="35.5246" y="85.5228" width="34.8478" height="0.6855"/><rect class="53e76950-6f77-4a23-aff9-faf8d355fc5a" x="35.5246" y="88.8978" width="34.8478" height="0.6855"/></g><g id="c3a1d996-7ae6-4843-8dac-d17e43f56252" data-name="Ground"><rect class="20ab866e-9079-4c97-bb80-d1aca27f83dd" y="140.8558" width="326.75" height="14.6442"/><line class="1c56a2e0-0c4e-4d40-9329-366ef33d4d6c" y1="140.8558" x2="326.75" y2="140.8558"/></g><g id="1bf2fc54-4b1b-4ccb-9a0d-cc4636fde6bb" data-name="Poster"><rect class="b11565d2-6082-4e0c-bce5-4dee233d6b3c" x="168.75" y="52" width="50.9167" height="71.6069"/><circle class="953450b6-6b13-47c8-baae-aac7f0e15671" cx="193.5208" cy="55.1227" r="1.3125"/><g id="7d3d82fe-f4b5-48ba-9aad-77f6b6521473" data-name="Writing"><line class="5c4e469c-9351-452d-9bec-a4e57075b3b1" x1="177.0488" y1="72.1411" x2="170.8646" y2="73.6711"/><line class="5c4e469c-9351-452d-9bec-a4e57075b3b1" x1="172.4679" y1="77.9334" x2="171.4754" y2="73.999"/><line class="5c4e469c-9351-452d-9bec-a4e57075b3b1" x1="179.4156" y1="78.4798" x2="172.4679" y2="77.9334"/><line class="5c4e469c-9351-452d-9bec-a4e57075b3b1" x1="177.1251" y1="75.9662" x2="179.4156" y2="78.4798"/><line class="5c4e469c-9351-452d-9bec-a4e57075b3b1" x1="178.2703" y1="74.764" x2="175.9417" y2="75.9662"/><line class="5c4e469c-9351-452d-9bec-a4e57075b3b1" x1="178.2703" y1="71.5946" x2="180.2554" y2="77.7148"/><line class="5c4e469c-9351-452d-9bec-a4e57075b3b1" x1="183.1566" y1="70.7203" x2="178.2703" y2="71.5946"/><line class="5c4e469c-9351-452d-9bec-a4e57075b3b1" x1="184.0728" y1="76.5126" x2="180.7135" y2="77.223"/><line class="5c4e469c-9351-452d-9bec-a4e57075b3b1" x1="182.7749" y1="71.1575" x2="184.0728" y2="76.5126"/><line class="5c4e469c-9351-452d-9bec-a4e57075b3b1" x1="184.4545" y1="71.1575" x2="184.4545" y2="78.8077"/><line class="5c4e469c-9351-452d-9bec-a4e57075b3b1" x1="188.0429" y1="78.8077" x2="184.4545" y2="71.8132"/><line class="5c4e469c-9351-452d-9bec-a4e57075b3b1" x1="188.3483" y1="71.1575" x2="188.0429" y2="78.8077"/><line class="5c4e469c-9351-452d-9bec-a4e57075b3b1" x1="189.2644" y1="69.6274" x2="190.8677" y2="78.8077"/><line class="5c4e469c-9351-452d-9bec-a4e57075b3b1" x1="191.7076" y1="68.6438" x2="189.2644" y2="69.6274"/><line class="5c4e469c-9351-452d-9bec-a4e57075b3b1" x1="192.013" y1="72.9061" x2="190.0661" y2="72.9061"/><line class="5c4e469c-9351-452d-9bec-a4e57075b3b1" x1="193.1582" y1="77.7148" x2="190.8677" y2="78.8077"/><line class="5c4e469c-9351-452d-9bec-a4e57075b3b1" x1="179.2629" y1="80.8842" x2="181.7823" y2="91.048"/><line class="5c4e469c-9351-452d-9bec-a4e57075b3b1" x1="183.4238" y1="81.7585" x2="179.2629" y2="80.8842"/><line class="5c4e469c-9351-452d-9bec-a4e57075b3b1" x1="184.4545" y1="85.0371" x2="181.0189" y2="84.7093"/><line class="5c4e469c-9351-452d-9bec-a4e57075b3b1" x1="184.8363" y1="81.3213" x2="185.5997" y2="89.6273"/><line class="5c4e469c-9351-452d-9bec-a4e57075b3b1" x1="188.1956" y1="89.518" x2="183.4238" y2="90.5016"/><line class="5c4e469c-9351-452d-9bec-a4e57075b3b1" x1="186.745" y1="81.3213" x2="183.4238" y2="82.9971"/><line class="5c4e469c-9351-452d-9bec-a4e57075b3b1" x1="191.0395" y1="81.7585" x2="187.6611" y2="82.9971"/><line class="5c4e469c-9351-452d-9bec-a4e57075b3b1" x1="191.4022" y1="85.9661" x2="187.7375" y2="83.6164"/><line class="5c4e469c-9351-452d-9bec-a4e57075b3b1" x1="189.3503" y1="88.8622" x2="191.4022" y2="85.9661"/><line class="5c4e469c-9351-452d-9bec-a4e57075b3b1" x1="192.013" y1="80.1191" x2="191.0395" y2="90.0098"/><line class="5c4e469c-9351-452d-9bec-a4e57075b3b1" x1="195.0669" y1="85.4743" x2="192.013" y2="84.8732"/><line class="5c4e469c-9351-452d-9bec-a4e57075b3b1" x1="194.6851" y1="80.0099" x2="195.0669" y2="90.0098"/><line class="5c4e469c-9351-452d-9bec-a4e57075b3b1" x1="195.7795" y1="79.4634" x2="199.5714" y2="79.9006"/><line class="5c4e469c-9351-452d-9bec-a4e57075b3b1" x1="196.2884" y1="90.0098" x2="199.7241" y2="90.0098"/><line class="5c4e469c-9351-452d-9bec-a4e57075b3b1" x1="197.3828" y1="79.682" x2="198.2226" y2="89.2994"/><line class="5c4e469c-9351-452d-9bec-a4e57075b3b1" x1="200.7166" y1="79.682" x2="199.7241" y2="87.4142"/><line class="5c4e469c-9351-452d-9bec-a4e57075b3b1" x1="204.1523" y1="88.2065" x2="200.7166" y2="79.682"/><line class="5c4e469c-9351-452d-9bec-a4e57075b3b1" x1="204.6867" y1="79.682" x2="204.1523" y2="88.2065"/><line class="5c4e469c-9351-452d-9bec-a4e57075b3b1" x1="209.1912" y1="79.682" x2="205.2975" y2="80.6656"/><line class="5c4e469c-9351-452d-9bec-a4e57075b3b1" x1="205.6029" y1="78.8077" x2="206.061" y2="88.5344"/><line class="5c4e469c-9351-452d-9bec-a4e57075b3b1" x1="209.3439" y1="89.1901" x2="206.061" y2="88.5344"/><line class="5c4e469c-9351-452d-9bec-a4e57075b3b1" x1="208.046" y1="85.1737" x2="209.3439" y2="89.1901"/><line class="5c4e469c-9351-452d-9bec-a4e57075b3b1" x1="209.7257" y1="84.7912" x2="207.2444" y2="85.4743"/><line class="5c4e469c-9351-452d-9bec-a4e57075b3b1" x1="198.6552" y1="95.7474" x2="196.9756" y2="96.7857"/><line class="5c4e469c-9351-452d-9bec-a4e57075b3b1" x1="199.037" y1="98.8075" x2="197.1664" y2="97.4414"/><line class="5c4e469c-9351-452d-9bec-a4e57075b3b1" x1="197.1664" y1="99.7365" x2="198.8079" y2="98.9168"/><line class="5c4e469c-9351-452d-9bec-a4e57075b3b1" x1="199.7241" y1="95.6381" x2="199.7241" y2="99.6272"/><line class="5c4e469c-9351-452d-9bec-a4e57075b3b1" x1="202.8162" y1="96.2665" x2="201.0602" y2="96.9496"/><line class="5c4e469c-9351-452d-9bec-a4e57075b3b1" x1="201.671" y1="100.2283" x2="201.0602" y2="96.9496"/><line class="5c4e469c-9351-452d-9bec-a4e57075b3b1" x1="204.1523" y1="98.5889" x2="201.9382" y2="100.2829"/><line class="5c4e469c-9351-452d-9bec-a4e57075b3b1" x1="201.9382" y1="98.1245" x2="203.9614" y2="98.5889"/><line class="5c4e469c-9351-452d-9bec-a4e57075b3b1" x1="204.6104" y1="95.3103" x2="204.0759" y2="100.6108"/><line class="5c4e469c-9351-452d-9bec-a4e57075b3b1" x1="205.8319" y1="100.2829" x2="204.6104" y2="95.3103"/><line class="5c4e469c-9351-452d-9bec-a4e57075b3b1" x1="206.9008" y1="95.0917" x2="205.8319" y2="100.2829"/><line class="5c4e469c-9351-452d-9bec-a4e57075b3b1" x1="207.2444" y1="96.8403" x2="207.0535" y2="100.884"/><line class="5c4e469c-9351-452d-9bec-a4e57075b3b1" x1="208.485" y1="96.895" x2="207.2444" y2="97.2228"/><line class="5c4e469c-9351-452d-9bec-a4e57075b3b1" x1="208.695" y1="98.5889" x2="207.127" y2="99.3266"/><line class="5c4e469c-9351-452d-9bec-a4e57075b3b1" x1="209.0004" y1="100.3375" x2="207.2444" y2="101.1572"/><line class="5c4e469c-9351-452d-9bec-a4e57075b3b1" x1="209.1531" y1="95.6381" x2="209.3821" y2="100.7474"/><line class="5c4e469c-9351-452d-9bec-a4e57075b3b1" x1="211.5962" y1="98.8621" x2="208.8477" y2="95.966"/><line class="5c4e469c-9351-452d-9bec-a4e57075b3b1" x1="209.3821" y1="100.7474" x2="211.5962" y2="98.8621"/><line class="5c4e469c-9351-452d-9bec-a4e57075b3b1" x1="213.8485" y1="93.507" x2="216.1771" y2="94.436"/><line class="5c4e469c-9351-452d-9bec-a4e57075b3b1" x1="213.9248" y1="96.6081" x2="216.1771" y2="94.436"/><line class="5c4e469c-9351-452d-9bec-a4e57075b3b1" x1="216.1007" y1="98.1928" x2="214.2789" y2="96.2665"/><line class="5c4e469c-9351-452d-9bec-a4e57075b3b1" x1="213.4667" y1="100.2829" x2="215.8811" y2="97.9605"/><line class="5c4e469c-9351-452d-9bec-a4e57075b3b1" x1="178.2703" y1="95" x2="176.5" y2="96"/><line class="5c4e469c-9351-452d-9bec-a4e57075b3b1" x1="180.0625" y1="96.2665" x2="178.2703" y2="95"/><line class="5c4e469c-9351-452d-9bec-a4e57075b3b1" x1="183.4238" y1="94.3125" x2="181.625" y2="96.2665"/><line class="5c4e469c-9351-452d-9bec-a4e57075b3b1" x1="180.7135" y1="98.1928" x2="178.2703" y2="98.3567"/><line class="5c4e469c-9351-452d-9bec-a4e57075b3b1" x1="185.5" y1="96.6081" x2="183.4238" y2="94.3125"/><line class="5c4e469c-9351-452d-9bec-a4e57075b3b1" x1="179.4919" y1="100.7474" x2="178.2703" y2="98.3567"/><line class="5c4e469c-9351-452d-9bec-a4e57075b3b1" x1="180.7135" y1="98.1928" x2="179.875" y2="100.7474"/></g></g></g></g></svg>